<svg width="533" height="619" viewBox="0 0 533 619" fill="none" xmlns="http://www.w3.org/2000/svg">
<path fill-rule="evenodd" clip-rule="evenodd" d="M213.909 593.436C206.758 586.512 182.932 560.915 175.229 554.931C174.993 554.679 174.673 554.516 174.329 554.475C173.988 554.434 173.642 554.518 173.352 554.708C173.065 554.9 172.853 555.188 172.756 555.518C172.658 555.852 172.683 556.207 172.824 556.524C176.659 563.452 210.106 594.903 212.056 596.754C213.389 598.416 219.109 605.311 220.67 606.742C220.621 608.037 220.959 609.314 221.642 610.414C222.327 611.52 223.324 612.389 224.505 612.922C228.693 614.347 232.794 616.008 236.791 617.895C237.377 618.415 238.059 617.895 237.897 617.345C235.892 614.832 234.21 612.076 232.891 609.149C232.607 607.209 231.623 605.441 230.125 604.175C228.63 602.916 226.724 602.242 224.765 602.283C224.537 601.863 215.924 594.773 213.909 593.436ZM224.863 602.803C226.618 602.904 228.281 603.637 229.543 604.861C230.808 606.086 231.594 607.718 231.753 609.474C232.485 611.68 233.584 613.749 235.004 615.589C226.78 612.171 223.985 612.661 222.197 609.894C221.631 608.977 221.276 607.942 221.157 606.872C223.432 606.251 225.025 602.413 224.863 602.803ZM214.559 594.643C217.094 596.949 219.727 599.421 223.595 602.774C223.026 603.903 222.175 604.867 221.125 605.571L212.641 596.494C213.389 596.015 214.03 595.382 214.526 594.643H214.559ZM229.023 556.329C225.318 553.89 175.034 520.78 174.546 522.406C174.059 524.032 223.887 561.761 224.31 562.021C226.423 564.428 240.562 579.682 242.415 580.332C244.772 580.243 247.006 579.256 248.655 577.565C250.915 575.258 252.588 572.434 253.531 569.339C254.149 567.127 231.038 557.175 229.023 556.329ZM251.938 570.802C251.299 572.865 250.14 574.727 248.574 576.21C247.011 577.701 245.091 578.759 243 579.291C245.34 577.08 250.281 572.364 251.938 570.802ZM242.187 563.289C245.754 564.991 249.181 566.984 252.426 569.241C252.003 570.64 252.426 569.241 249.176 571.941C246.537 574.011 244.224 576.465 242.317 579.226C240.692 578.02 234.094 571.453 234.484 571.811C236.919 568.824 239.525 565.978 242.285 563.289H242.187ZM228.893 556.784C234.256 559.289 237.832 561.045 241.895 563.029C238.671 565.089 236.055 567.975 234.321 571.388C232.371 569.436 225.74 562.704 224.765 561.631C225.708 560.72 228.178 557.89 228.991 556.85L228.893 556.784ZM150.136 519.609C148.478 505.038 146.04 486.922 144.058 486.825C142.075 486.727 144.22 505.038 146.268 519.707C139.767 520.26 132.031 523.837 133.266 530.017C133.207 531.117 133.35 532.22 133.689 533.269C130.438 555.353 133.331 559.907 133.104 559.549C134.997 561.831 137.365 563.669 140.044 564.94C142.722 566.208 145.645 566.878 148.608 566.9C151.583 566.916 154.527 566.295 157.246 565.086C159.963 563.875 162.393 562.097 164.373 559.874C167.07 555.809 165.348 538.636 164.828 533.855C165.115 532.849 165.28 531.811 165.315 530.765C165.708 529.055 165.486 527.261 164.689 525.697C163.893 524.132 162.574 522.899 160.96 522.211C157.636 520.428 153.906 519.53 150.136 519.609ZM134.306 548.166C136.874 553.434 144.058 555.093 149.843 555.093C149.922 556.651 150.095 558.205 150.363 559.744C150.623 560.98 150.916 562.053 152.184 562.021C154.012 561.65 155.624 560.576 156.669 559.029C157.514 557.76 157.319 557.11 156.247 554.313C157.655 553.944 158.966 553.274 160.087 552.348C161.211 551.42 162.119 550.261 162.747 548.946C162.734 551.851 162.439 554.749 161.87 557.598C161.184 558.89 160.204 560.004 159.009 560.85C151.664 566.834 142.757 565.143 135.314 558.736C134.989 556.329 134.534 551.613 134.306 548.166ZM164.145 535.156C164.373 539.091 165.25 555.711 163.04 558.964C161.339 560.942 159.189 562.482 156.767 563.452C159.305 562.213 161.369 560.181 162.65 557.663C163.208 554.18 163.395 550.648 163.202 547.125C163.408 546.138 163.37 545.117 163.091 544.146C162.815 543.178 162.306 542.292 161.61 541.563C159.302 538.896 158.749 540.425 160.862 538.961C162.244 538.029 163.373 536.765 164.145 535.286V535.156ZM155.402 554.345C155.795 555.4 156.089 556.489 156.279 557.598C156.279 558.703 153.354 561.175 152.054 561.045C151.599 561.045 151.469 560.362 151.306 559.549C151.016 558.077 150.821 556.589 150.721 555.093C152.3 555.061 153.869 554.854 155.402 554.475V554.345ZM134.079 534.375C135.195 536.435 136.904 538.113 138.987 539.189C135.249 540.36 132.779 542.864 133.786 546.669C133.786 548.718 133.786 550.735 133.981 552.556C134.306 559.354 134.534 559.061 134.209 558.573C132.681 552.784 133.461 540.62 134.079 534.505V534.375ZM139.54 539.481C142.579 540.953 145.913 541.72 149.291 541.726C149.285 543.669 149.537 545.604 150.038 547.483C149.905 549.648 149.905 551.822 150.038 553.987C145.967 554.126 141.942 553.099 138.434 551.028C133.266 547.775 132.454 541.888 139.54 539.612V539.481ZM152.964 547.613C153.159 548.068 154.784 552.589 155.076 553.402C153.619 553.757 152.124 553.941 150.623 553.955C150.623 552.361 150.298 549.304 150.331 547.71C151.198 547.9 152.091 547.911 152.964 547.743V547.613ZM159.042 540.067C165.283 544.36 162.65 551.19 155.792 553.272C155.109 551.548 154.036 549.141 153.256 547.483C153.167 545.539 152.95 543.607 152.606 541.693C154.827 541.522 157.005 540.972 159.042 540.067ZM152.314 541.726L152.606 546.995C152.054 546.995 150.266 547.255 150.461 546.995C150.656 546.734 150.038 543.937 149.811 541.791C150.656 541.856 151.501 541.823 152.314 541.758V541.726ZM134.631 533.107C140.417 540.36 157.904 540.457 163.885 533.107C163.254 534.735 162.211 536.178 160.862 537.286C159.514 538.398 157.901 539.143 156.182 539.449C148.771 541.466 137.622 539.839 134.631 533.139V533.107ZM146.755 523.089C147.731 529.822 148.576 535.286 148.868 537.075C143.96 537.075 137.394 535.286 135.119 531.318C135.834 526.244 141.62 523.61 146.755 523.122V523.089ZM150.526 523.089C153.21 523.222 155.808 524.073 158.051 525.556C160.291 527.038 162.092 529.095 163.267 531.513C161.187 534.765 155.954 536.554 151.924 536.945C151.761 535.156 151.241 529.757 150.526 523.122V523.089ZM150.201 520.227C153.744 520.357 157.198 521.374 160.245 523.187C163.137 525.041 165.088 527.903 163.495 530.993C162.387 528.432 160.578 526.233 158.278 524.65C155.978 523.067 153.28 522.167 150.493 522.048L150.201 520.227ZM146.268 520.552C146.268 521.105 146.43 521.658 146.528 522.211C141.165 522.699 135.542 525.464 134.664 530.667C133.494 527.708 135.444 525.041 138.174 523.317C140.642 521.823 143.402 520.88 146.268 520.552ZM115.129 533.757C116.657 526.179 129.008 469.717 124.88 466.432C123.415 465.624 121.82 465.074 120.167 464.806C115.617 463.83 86.5906 459.927 85.2579 463.862C83.9253 467.798 91.7587 527.74 92.3438 530.96C92.3438 533.139 93.1564 539.221 93.1564 539.221C93.9985 540.986 95.2502 542.522 96.8022 543.71C98.357 544.897 100.169 545.696 102.092 546.046C104.013 546.396 105.992 546.281 107.862 545.718C109.733 545.154 111.445 544.154 112.854 542.799C113.94 539.877 114.701 536.844 115.129 533.757ZM86.9156 471.083C99.3617 471.248 111.781 472.335 124.068 474.335C123.06 487.995 117.144 519.869 114.577 533.465C111.193 535.315 107.336 536.12 103.496 535.779C99.6519 535.437 95.9978 533.966 92.9939 531.546C92.6363 528.781 87.1757 474.725 86.9156 471.083ZM89.841 489.947C89.841 489.947 89.6459 487.735 92.3763 488.288C95.1066 488.841 100.08 493.525 106.19 493.004C112.301 492.484 118.119 489.069 119.94 491.345C121.76 493.622 114.056 500.81 104.078 499.119C92.6363 497.2 89.6134 492.484 89.841 489.947ZM122.02 466.855C122.507 466.855 123.84 467.375 123.97 467.798C124.247 469.86 124.247 471.947 123.97 474.01L120.72 473.392C121.454 471.283 121.893 469.082 122.02 466.855ZM116.397 465.651C118.054 465.944 120.005 466.302 121.597 466.724C121.115 468.871 120.755 471.042 120.525 473.229C119.29 473.002 115.844 472.416 114.837 472.319C114.934 472.091 115.714 469.392 116.397 465.651ZM110.188 464.838C112.236 465.066 114.186 465.326 115.974 465.586C115.178 467.762 114.696 470.039 114.544 472.351L109.083 471.668C109.278 470.595 109.961 467.212 110.188 464.838ZM104.11 464.253C105.215 464.253 107.556 464.513 109.766 464.773C109.08 466.995 108.742 469.31 108.758 471.636L102.908 471.083C103.005 470.53 103.688 467.603 104.013 464.253H104.11ZM97.6094 463.83L103.688 464.22C102.986 466.429 102.615 468.73 102.583 471.05C100.697 471.05 98.617 470.79 96.7643 470.725C96.7643 470.66 97.5119 464.253 97.5119 463.83H97.6094ZM89.7435 463.83C89.8599 466.109 90.1093 468.378 90.4911 470.627H86.8831C86.8831 469.814 86.3306 464.35 86.8831 464.123C87.8257 463.936 88.782 463.849 89.7435 463.862V463.83ZM90.166 463.83H97.1544C96.5262 466.071 96.285 468.402 96.4393 470.725H90.7836C90.8811 468.41 90.6725 466.09 90.166 463.83ZM334.792 508.616C330.534 508.616 327.056 510.177 327.056 512.161C327.056 514.145 330.534 515.706 334.792 515.706C339.05 515.706 342.495 514.113 342.495 512.161C342.495 510.21 339.18 508.616 334.792 508.616ZM416.962 489.882C416.962 490.597 418.294 491.248 419.985 491.313C421.675 491.378 423.235 490.825 423.235 490.077C423.17 488.353 417.027 488.028 416.962 489.882Z" fill="white"/>
<path d="M386.18 571.973C384.097 571.973 382.409 570.968 382.409 569.729C382.409 568.491 384.097 567.485 386.18 567.485C388.262 567.485 389.95 568.491 389.95 569.729C389.95 570.968 388.262 571.973 386.18 571.973Z" fill="white"/>
<path fill-rule="evenodd" clip-rule="evenodd" d="M223.855 462.009C220.605 462.009 217.809 462.952 217.809 464.091C217.809 465.229 220.507 466.205 223.855 466.205C227.203 466.205 229.868 465.261 229.868 464.091C229.868 462.92 227.17 462.009 223.855 462.009ZM430.807 378.974C430.807 379.787 431.295 385.934 431.035 394.911C431.035 396.115 430.807 400.213 430.807 400.213C430.807 400.213 430.417 400.44 430.417 400.213C430.417 399.985 430.222 396.115 430.19 394.911C429.995 387.431 430.417 378.649 430.417 378.974C430.417 378.923 430.437 378.874 430.475 378.836C430.511 378.801 430.561 378.779 430.612 378.779C430.664 378.779 430.713 378.801 430.75 378.836C430.787 378.874 430.807 378.923 430.807 378.974ZM295.429 23.5805C291.366 24.6864 284.182 26.9956 281.582 30.3456C281.487 30.4684 281.436 30.6183 281.436 30.7728C281.436 30.9273 281.482 31.078 281.574 31.2024C281.666 31.3268 281.796 31.4184 281.943 31.4631C282.091 31.5081 282.248 31.5041 282.395 31.4514C295.396 26.15 316.101 32.915 329.232 38.3791C334.433 40.5583 303.23 5.33431 280.802 10.8634C280.648 10.9102 280.515 11.005 280.417 11.1338C280.323 11.2628 280.271 11.4186 280.271 11.579C280.271 11.7392 280.323 11.8954 280.417 12.0241C280.515 12.1531 280.648 12.2477 280.802 12.2946C285.9 13.4909 290.905 15.0451 295.786 16.9456C292.048 17.1082 283.435 17.6611 280.542 20.198C280.425 20.2972 280.344 20.4276 280.301 20.5737C280.26 20.7195 280.26 20.8743 280.306 21.0193C280.352 21.164 280.436 21.2927 280.553 21.3895C280.672 21.4863 280.813 21.547 280.964 21.564C285.816 21.9861 290.645 22.659 295.429 23.5805ZM284.637 11.7742C291.022 11.7509 297.3 13.411 302.84 16.5878C312.75 21.8497 321.575 28.9463 328.842 37.501C316.394 32.1019 298.679 25.9873 285.385 29.0446C289.578 26.9013 294.036 25.3263 298.647 24.3611C298.814 24.3256 298.963 24.2335 299.072 24.1002C299.18 23.967 299.24 23.8006 299.24 23.6293C299.24 23.4578 299.18 23.2917 299.072 23.1583C298.963 23.0252 298.814 22.9331 298.647 22.8975C293.692 21.5621 288.638 20.6482 283.532 20.1655C288.516 18.9892 293.622 18.3997 298.744 18.4092C298.91 18.4138 299.074 18.3626 299.207 18.2636C299.343 18.1645 299.44 18.0232 299.486 17.8625C299.53 17.7015 299.519 17.5302 299.456 17.376C299.391 17.2215 299.278 17.093 299.134 17.0106C294.513 14.7274 289.648 12.9708 284.637 11.7742ZM504.136 283.84C507.369 284.263 510.628 284.461 513.887 284.426C514.053 284.431 514.216 284.383 514.348 284.282C514.48 284.182 514.573 284.039 514.611 283.876C514.65 283.716 514.631 283.545 514.558 283.396C514.485 283.247 514.363 283.128 514.212 283.06C510.182 280.881 500.691 278.734 495.815 275.352L483.756 267.286C483.732 267.258 483.702 267.237 483.668 267.22C483.634 267.204 483.598 267.196 483.561 267.196C483.524 267.196 483.488 267.204 483.454 267.22C483.421 267.237 483.39 267.258 483.366 267.286C483.009 267.708 483.756 267.741 487.819 273.107C490.516 276.43 492.707 280.136 494.32 284.101C496.063 288.248 497.593 292.481 498.903 296.785C498.903 297.761 501.243 298.476 500.593 293.142C500.324 291.153 499.956 289.177 499.488 287.223C502.86 289.66 506.413 291.833 510.117 293.728C510.251 293.804 510.404 293.839 510.557 293.825C510.71 293.809 510.856 293.75 510.973 293.649C511.09 293.549 511.174 293.416 511.213 293.267C511.252 293.118 511.243 292.961 511.19 292.817C509.527 289.342 507.119 286.277 504.136 283.84ZM485.739 269.432C501.666 280.653 494.548 276.587 510.442 282.93C507.4 282.921 504.377 282.464 501.471 281.564L501.113 281.271C500.398 280.718 499.131 281.824 500.528 282.735C503.652 285.193 506.411 288.085 508.719 291.321C505.12 289.478 501.749 287.218 498.676 284.588C498.561 284.456 498.404 284.366 498.231 284.34C498.057 284.309 497.88 284.342 497.729 284.431C497.578 284.521 497.463 284.662 497.404 284.827C497.346 284.992 497.346 285.172 497.408 285.337C498.08 287.789 498.622 290.275 499.033 292.785C496.463 284.076 491.914 276.084 485.739 269.432ZM483.529 254.243C478.017 245.307 470.142 238.069 460.776 233.33C448.164 227.378 443.549 233.72 449.269 245.104C454.141 254.198 461.104 262.001 469.584 267.871C468.629 271.207 468.245 274.682 468.447 278.149C469.292 281.401 485.186 286.865 487.364 286.605C487.529 286.597 487.689 286.545 487.826 286.454C487.963 286.361 488.073 286.234 488.144 286.085C488.469 285.337 487.722 284.654 487.007 284.101C483.038 281.201 478.879 278.571 474.558 276.23L474.785 270.831L476.638 271.741C476.758 271.774 476.886 271.774 477.007 271.739C477.127 271.706 477.235 271.638 477.32 271.546L487.559 261.561C487.607 261.507 487.634 261.439 487.634 261.366C487.634 261.293 487.607 261.225 487.559 261.171C487.559 261.171 487.234 260.488 486.552 259.285H492.24C493.085 261.041 498.741 272.489 500.561 273.27C500.691 273.333 500.836 273.365 500.98 273.359C501.126 273.357 501.268 273.319 501.395 273.249C501.523 273.178 501.631 273.078 501.712 272.958C501.793 272.837 501.844 272.698 501.861 272.554C502.251 270.115 497.44 254.211 494.255 253.268C490.718 252.942 487.152 253.184 483.691 253.983C483.64 254.004 483.597 254.04 483.568 254.087C483.538 254.133 483.525 254.188 483.529 254.243ZM470.3 268.099C471.59 268.961 472.924 269.752 474.298 270.473L473.615 276.62C473.615 277.108 473.615 276.815 480.116 281.108C482.099 282.377 484.114 283.71 485.479 284.719C480.547 283.358 475.79 281.425 471.307 278.962C470.95 278.734 470.007 278.084 469.877 277.661C469.534 274.471 469.676 271.246 470.3 268.099ZM484.634 257.463C485.901 259.35 486.682 260.716 486.974 261.269L476.898 270.603C475.728 270.018 474.46 269.302 473.127 268.489C477.326 265.212 481.181 261.518 484.634 257.463ZM483.821 254.699C487.174 254.223 490.577 254.223 493.93 254.699C495.068 255.089 497.018 260.26 497.375 261.203C498.523 264.266 499.446 267.407 500.138 270.603C498.188 267.708 492.857 258.244 493.085 258.699C493.041 258.607 492.971 258.531 492.885 258.48C492.798 258.428 492.698 258.404 492.597 258.406L486.259 258.732C485.609 257.496 484.829 256.227 483.821 254.699ZM465.912 237.818C473.279 242.822 479.541 249.288 484.309 256.813C479.993 260.128 476.047 263.901 472.542 268.066C465.126 263.174 458.759 256.851 453.82 249.462L465.912 237.818ZM471.73 245.982C472.355 246.638 472.845 247.41 473.172 248.255C473.499 249.1 473.656 250.002 473.635 250.908C473.614 251.814 473.415 252.707 473.049 253.536C472.683 254.365 472.158 255.113 471.502 255.739C470.847 256.366 470.075 256.856 469.23 257.184C468.385 257.509 467.485 257.667 466.579 257.648C465.674 257.626 464.782 257.425 463.953 257.059C463.124 256.694 462.376 256.168 461.751 255.512C460.488 254.188 459.803 252.416 459.845 250.586C459.888 248.756 460.655 247.018 461.979 245.754C463.302 244.491 465.072 243.805 466.901 243.847C468.73 243.89 470.467 244.658 471.73 245.982ZM462.661 246.502C461.615 247.578 461.029 249.019 461.029 250.52C461.029 252.02 461.615 253.461 462.661 254.536C463.687 255.487 465.037 256.013 466.436 256.003C467.836 255.991 469.178 255.45 470.19 254.482C471.203 253.515 471.808 252.198 471.882 250.799C471.957 249.401 471.496 248.027 470.592 246.958C469.586 245.869 468.197 245.213 466.718 245.128C465.239 245.043 463.785 245.536 462.661 246.502ZM464.449 248.356C464.006 248.816 463.708 249.395 463.593 250.023C463.477 250.651 463.548 251.298 463.798 251.886C464.047 252.473 464.464 252.974 464.995 253.326C465.528 253.679 466.151 253.866 466.789 253.866C467.427 253.866 468.051 253.679 468.583 253.326C469.114 252.974 469.531 252.473 469.78 251.886C470.03 251.298 470.102 250.651 469.985 250.023C469.87 249.395 469.572 248.816 469.129 248.356C468.826 248.042 468.463 247.792 468.06 247.62C467.658 247.449 467.226 247.361 466.789 247.361C466.352 247.361 465.92 247.449 465.518 247.62C465.115 247.792 464.752 248.042 464.449 248.356Z" fill="white"/>
<path fill-rule="evenodd" clip-rule="evenodd" d="M361.542 27.4506C361.84 27.1982 362.073 26.879 362.223 26.5193C362.373 26.1593 362.437 25.769 362.407 25.3804C362.378 24.9915 362.257 24.615 362.055 24.2819C361.852 23.9485 361.574 23.668 361.242 23.4631C360.911 23.2579 360.535 23.1343 360.147 23.1023C359.759 23.0704 359.368 23.1306 359.007 23.2785C358.647 23.4262 358.326 23.6571 358.072 23.9528C357.817 24.2483 357.637 24.5998 357.544 24.9787C357.521 25.388 357.595 25.797 357.759 26.1726C357.924 26.548 358.174 26.8795 358.492 27.1394C358.809 27.3993 359.182 27.5807 359.582 27.6688C359.983 27.7569 360.398 27.7487 360.794 27.6457C360.794 27.9709 361.282 31.5812 362.257 35.8093C357.741 35.8264 353.381 37.4653 349.97 40.4278C349.921 40.337 349.84 40.2676 349.743 40.2326C324.39 36.655 321.758 45.0461 329.916 51.7787C339.082 59.3568 367.231 68.0409 382.768 65.9918C386.831 65.504 393.136 63.6175 393.201 59.7797C393.201 54.836 379.972 49.3393 379.452 49.0791C377.333 43.7097 373.239 39.3564 368.011 36.9151C370.319 34.4108 372.723 30.768 373.276 30.1501C376.039 31.6462 378.639 28.101 376.526 26.2797C376.061 25.8712 375.454 25.6612 374.836 25.6942C374.321 25.5896 373.786 25.662 373.316 25.8994C372.847 26.1369 372.471 26.5255 372.25 27.0028C372.028 27.4798 371.974 28.0178 372.095 28.5298C372.216 29.0418 372.506 29.498 372.919 29.8248C371.825 30.613 370.85 31.5551 370.025 32.6219C365.345 38.2812 369.31 36.3297 363.525 35.8744C363.353 32.9732 362.682 30.1235 361.542 27.4506ZM380.005 49.9898C382.93 51.4209 392.356 56.4947 392.226 59.7471C392.226 60.8204 391.284 61.8937 389.561 62.837C377.469 69.3418 341.487 59.1292 331.053 50.6403C325.105 45.8592 325.723 41.2734 337.034 40.4603C341.372 40.2636 345.718 40.3939 350.036 40.8506C350.849 42.737 358.682 57.568 380.005 49.9898ZM383.255 57.7306C383.396 58.0316 383.473 58.3592 383.48 58.6916C383.487 59.0239 383.424 59.3545 383.296 59.6608C383.166 59.9671 382.975 60.2433 382.733 60.4715C382.491 60.6992 382.204 60.8737 381.889 60.9831C381.578 61.0605 381.254 61.0759 380.937 61.028C380.619 60.9801 380.314 60.8701 380.04 60.7039C379.764 60.5378 379.525 60.3184 379.335 60.0594C379.145 59.8004 379.008 59.5065 378.932 59.1942C378.738 58.6206 378.78 57.9932 379.048 57.4503C379.316 56.9075 379.789 56.4935 380.362 56.2996C380.936 56.1056 381.562 56.147 382.104 56.4155C382.647 56.6839 383.061 57.157 383.255 57.7306ZM380.589 56.8199C379.159 57.4704 380.135 60.0724 381.5 59.6821C382.865 59.2918 382.149 56.5272 380.589 56.8199ZM358.162 54.9661C358.392 54.7946 358.657 54.6775 358.938 54.6219C359.22 54.5669 359.509 54.5752 359.787 54.6473C360.064 54.7189 360.323 54.8519 360.542 55.0364C360.762 55.2215 360.937 55.4527 361.055 55.7141C361.304 56.2972 361.329 56.9518 361.125 57.5526C360.921 58.1529 360.502 58.6567 359.949 58.9666C359.686 59.1304 359.388 59.2327 359.079 59.2664C358.771 59.3001 358.459 59.264 358.166 59.1605C357.872 59.0576 357.606 58.8903 357.386 58.6715C357.166 58.4521 356.998 58.186 356.894 57.8932C356.712 57.3344 356.74 56.7283 356.974 56.1896C357.207 55.6502 357.63 55.215 358.162 54.9661ZM358.421 55.4214C357.121 56.3971 357.966 58.6738 359.332 57.8932C360.697 57.1127 359.982 54.7709 358.421 55.4539V55.4214ZM341.032 46.1194C341.221 45.9426 341.448 45.8101 341.695 45.7333C341.941 45.6558 342.203 45.6351 342.458 45.6724C342.715 45.7102 342.959 45.8048 343.174 45.9497C343.388 46.0946 343.567 46.2862 343.697 46.5097C343.949 47.0307 344.002 47.625 343.846 48.1821C343.691 48.7391 343.337 49.2199 342.853 49.5345C342.636 49.7113 342.383 49.8373 342.112 49.9041C341.84 49.9709 341.557 49.9762 341.284 49.9206C341.01 49.8645 340.752 49.748 340.528 49.58C340.305 49.4121 340.122 49.1968 339.992 48.949C339.872 48.6954 339.804 48.4204 339.792 48.1401C339.78 47.8598 339.823 47.5795 339.919 47.3163C340.016 47.0526 340.164 46.8113 340.355 46.6055C340.547 46.4003 340.777 46.2347 341.032 46.1194ZM341.292 46.5422C340.317 47.4529 340.999 49.2743 342.137 48.4937C343.275 47.7131 342.625 45.8918 341.292 46.5422ZM374.836 26.1821C374.416 26.1976 374.016 26.3694 373.715 26.6643C373.415 26.9589 373.235 27.3552 373.211 27.7758C373.228 28.1525 373.389 28.5081 373.662 28.7689C373.935 29.0293 374.296 29.1746 374.673 29.1743C374.87 29.1849 375.066 29.1567 375.252 29.0914C375.438 29.0261 375.608 28.925 375.755 28.7936C376.05 28.5282 376.229 28.1563 376.25 27.7595C376.272 27.3627 376.135 26.9736 375.87 26.6776C375.605 26.3819 375.233 26.2035 374.836 26.1821ZM360.437 23.4175C360.017 23.433 359.617 23.6048 359.316 23.8997C359.016 24.1943 358.836 24.5906 358.812 25.0112C358.829 25.388 358.99 25.7436 359.263 26.0043C359.535 26.2648 359.897 26.4101 360.274 26.4098C360.484 26.4505 360.7 26.4458 360.908 26.396C361.116 26.3464 361.31 26.2526 361.479 26.1211C361.647 25.9897 361.786 25.8238 361.885 25.6343C361.984 25.4449 362.041 25.2365 362.052 25.0232C362.064 24.8096 362.031 24.5963 361.953 24.3971C361.875 24.1981 361.756 24.0179 361.603 23.8689C361.45 23.7198 361.266 23.6051 361.065 23.533C360.864 23.4606 360.649 23.4324 360.437 23.4501V23.4175ZM200.03 184.901C198.505 182.072 196.004 179.897 192.992 178.778C189.983 177.659 186.667 177.675 183.666 178.821C180.668 179.968 178.187 182.168 176.689 185.01C175.188 187.852 174.774 191.143 175.522 194.268C170.74 196.596 166.174 199.338 161.87 202.464C159.985 204.155 160.245 205.717 163.593 205.489C169.405 204.97 175.156 203.88 180.755 202.236C182.548 203.546 184.639 204.384 186.838 204.672C189.038 204.961 191.275 204.691 193.344 203.887C195.414 203.084 197.248 201.773 198.675 200.075C200.105 198.377 201.086 196.347 201.525 194.17C204.775 192.609 216.054 186.787 216.737 183.502C216.964 182.299 215.794 181.746 214.559 181.616C209.564 181.879 204.653 182.99 200.03 184.901ZM175.782 194.951C176.415 197.161 177.615 199.167 179.259 200.773C173.737 202.366 168.078 203.455 162.357 204.025C164.21 201.618 173.116 196.48 175.782 194.951ZM200.355 194.658C199.826 196.488 198.887 198.172 197.602 199.579C196.319 200.986 194.728 202.077 192.957 202.769C191.183 203.462 189.274 203.735 187.377 203.57C185.481 203.404 183.65 202.803 182.022 201.814C188.301 199.886 194.431 197.494 200.355 194.658ZM180.267 200.48C177.984 198.443 176.529 195.636 176.18 192.595C175.833 189.554 176.616 186.49 178.382 183.99C179.308 182.625 180.503 181.463 181.892 180.575C183.285 179.688 184.84 179.093 186.467 178.828C188.095 178.563 189.761 178.634 191.359 179.035C192.96 179.436 194.461 180.159 195.772 181.161C197.537 182.461 198.93 184.204 199.807 186.213C200.688 188.223 201.021 190.429 200.777 192.609C194.162 195.781 187.304 198.413 180.267 200.48ZM200.355 185.551C202.76 184.771 213.356 181.714 215.274 183.21C214.526 185.551 203.963 191.048 201.525 192.056C201.709 189.823 201.308 187.58 200.355 185.551ZM436.009 385.999C432.084 388.58 427.953 390.832 423.658 392.732C423.616 392.745 423.571 392.743 423.53 392.729C423.489 392.713 423.455 392.683 423.432 392.645C423.41 392.607 423.4 392.564 423.406 392.521C423.411 392.477 423.431 392.437 423.463 392.406C427.391 389.832 431.522 387.582 435.814 385.674C435.855 385.66 435.9 385.663 435.941 385.677C435.982 385.693 436.017 385.723 436.039 385.761C436.062 385.796 436.071 385.842 436.065 385.886C436.06 385.929 436.04 385.97 436.009 385.999ZM506.478 100.435C506.478 92.5642 506.023 85.1487 506.023 85.4739C506.001 85.4089 505.96 85.3521 505.904 85.3119C505.849 85.2717 505.782 85.2504 505.714 85.2504C505.645 85.2504 505.579 85.2717 505.523 85.3119C505.468 85.3521 505.426 85.4089 505.405 85.4739C505.405 87.8482 504.983 89.9623 504.95 100.956C502.548 99.3914 500.063 97.958 497.507 96.6623C497.472 96.641 497.434 96.6268 497.395 96.6197C497.355 96.6132 497.314 96.6144 497.275 96.6233C497.236 96.6327 497.199 96.6493 497.166 96.6729C497.133 96.696 497.105 96.7256 497.084 96.7599C497.063 96.7942 497.048 96.832 497.041 96.8722C497.034 96.9113 497.036 96.9521 497.045 96.9917C497.054 97.0307 497.071 97.068 497.094 97.1005C497.118 97.1336 497.147 97.1614 497.182 97.1827C499.262 98.8905 501.432 100.487 503.682 101.964C499.002 104.533 498.059 105.216 495.816 106.582C493.574 107.948 493.541 107.948 493.704 108.273C493.866 108.599 494.029 108.469 496.271 107.428C498.514 106.387 500.042 105.737 504.95 103.037C504.95 115.494 505.438 121.186 505.438 120.86C505.459 120.925 505.5 120.982 505.556 121.022C505.611 121.063 505.678 121.084 505.746 121.084C505.815 121.084 505.881 121.063 505.937 121.022C505.992 120.982 506.034 120.925 506.055 120.86C506.055 118.519 506.51 116.47 506.51 103.785C509.046 105.466 511.672 107.008 514.376 108.404C514.41 108.425 514.448 108.44 514.488 108.446C514.527 108.453 514.568 108.451 514.607 108.443C514.647 108.433 514.684 108.417 514.717 108.393C514.749 108.37 514.777 108.34 514.799 108.306C514.82 108.272 514.834 108.234 514.841 108.194C514.848 108.155 514.847 108.114 514.837 108.074C514.828 108.035 514.812 107.998 514.788 107.965C514.765 107.932 514.735 107.904 514.701 107.883C512.142 105.786 509.461 103.842 506.673 102.061C509.306 100.598 510.151 100.077 512.231 98.8089C514.311 97.5405 514.994 97.1502 514.831 96.7924C514.77 96.7475 514.696 96.7232 514.62 96.7232C514.544 96.7232 514.47 96.7475 514.409 96.7924C510.313 98.321 507.875 99.7196 506.478 100.435Z" fill="white"/>
<path fill-rule="evenodd" clip-rule="evenodd" d="M435.813 392.732C432.172 390.821 428.721 388.566 425.509 385.999C425.281 385.999 425.509 385.544 425.704 385.674C429.343 387.588 432.793 389.843 436.008 392.407C436.203 392.537 436.008 392.862 435.813 392.732ZM335.05 196.609C335.05 205.749 334.725 207.212 334.725 208.871C334.739 208.906 334.744 208.943 334.741 208.981C334.736 209.017 334.723 209.053 334.703 209.083C334.681 209.115 334.654 209.14 334.621 209.157C334.588 209.174 334.551 209.183 334.514 209.183C334.477 209.183 334.44 209.174 334.408 209.157C334.375 209.14 334.346 209.115 334.326 209.083C334.305 209.053 334.292 209.017 334.288 208.981C334.284 208.943 334.289 208.906 334.303 208.871C334.303 209.196 333.945 203.927 333.945 196.057C331.426 197.483 328.833 198.775 326.177 199.927C325.917 199.927 325.689 199.667 325.949 199.537C328.237 198.007 330.603 196.596 333.035 195.308C331.425 194.314 329.873 193.228 328.387 192.056C328.343 192.023 328.313 191.974 328.302 191.919C328.291 191.865 328.301 191.808 328.329 191.761C328.357 191.713 328.401 191.677 328.454 191.659C328.506 191.642 328.564 191.644 328.614 191.666C328.614 191.666 331.28 193.032 333.945 194.756C333.945 186.657 334.27 184.998 334.27 183.632C334.27 183.572 334.294 183.515 334.337 183.471C334.38 183.429 334.437 183.405 334.498 183.405C334.558 183.405 334.616 183.429 334.658 183.471C334.702 183.515 334.725 183.572 334.725 183.632C334.725 183.307 335.018 188.869 335.05 194.398C335.993 193.91 337.878 192.902 340.738 191.666C340.998 191.666 341.226 191.926 340.966 192.056C340.706 192.186 338.561 193.715 335.18 195.569C337.182 196.782 339.114 198.107 340.966 199.537C341.226 199.537 340.966 200.09 340.738 199.927C341.063 200.09 338.626 198.886 335.05 196.609ZM253.336 426.427C256.879 424.964 294.258 422.654 294.583 422.622C295.591 422.622 302.872 424.085 303.359 424.216C303.847 424.346 303.359 424.216 303.359 424.378C300.518 425.676 297.584 426.763 294.583 427.631C291.333 428.314 284.832 428.379 254.018 431.696C253.433 431.696 252.198 429.68 252.913 426.752C252.946 426.655 253.173 426.525 253.336 426.427ZM294.746 427.305L299.654 425.582C299.464 425.321 299.34 425.02 299.296 424.703C299.25 424.386 299.283 424.061 299.394 423.76C297.804 423.44 296.198 423.21 294.583 423.077C293.803 423.858 295.884 424.151 294.323 425.159C294.128 425.159 294.096 425.159 294.323 425.386C294.405 425.427 294.478 425.484 294.537 425.554C294.6 425.625 294.643 425.706 294.67 425.796C294.697 425.883 294.708 425.977 294.697 426.067C294.689 426.159 294.659 426.248 294.616 426.33C294.356 426.785 294.063 426.98 294.746 427.305ZM294.356 427.305C293.446 426.818 294.681 426.069 294.063 425.679C292.698 424.736 299.199 424.996 256.261 428.932C256.35 429.601 256.202 430.281 255.839 430.851L294.356 427.305ZM256.229 428.671C257.691 428.509 293.673 425.094 293.901 424.899C294.128 424.703 294.713 424.541 294.421 424.151C294.128 423.76 293.966 423.402 294.421 423.012C294.096 423.012 262.209 425.549 255.416 426.687C255.89 427.27 256.174 427.985 256.229 428.736V428.671ZM254.148 430.916C254.376 430.688 254.408 430.753 254.636 430.102C254.864 429.452 254.636 427.24 253.596 427.24C253.436 427.869 253.404 428.522 253.498 429.165C253.593 429.807 253.813 430.425 254.148 430.981V430.916ZM231.558 334.936C231.594 334.817 231.656 334.706 231.74 334.613C231.824 334.522 231.926 334.448 232.043 334.399C232.157 334.351 232.282 334.329 232.409 334.337C232.533 334.342 232.655 334.375 232.764 334.435C232.875 334.494 232.969 334.575 233.045 334.676C233.118 334.776 233.17 334.893 233.194 335.015C233.219 335.137 233.216 335.264 233.186 335.386C233.156 335.508 233.099 335.619 233.021 335.717C232.696 336.237 232.371 336.758 232.013 337.278C231.965 337.389 231.891 337.489 231.799 337.571C231.707 337.652 231.599 337.711 231.48 337.747C231.363 337.782 231.238 337.793 231.12 337.774C230.997 337.758 230.881 337.711 230.778 337.646C230.675 337.579 230.588 337.489 230.523 337.386C230.458 337.283 230.415 337.167 230.402 337.045C230.385 336.923 230.396 336.798 230.434 336.682C230.47 336.565 230.532 336.457 230.616 336.367C230.778 335.912 231.266 335.424 231.558 334.936ZM272.058 265.854C271.863 264.326 270.075 256.552 270.758 256.39C270.796 256.373 270.837 256.368 270.877 256.368C270.918 256.371 270.958 256.382 270.996 256.4C271.035 256.419 271.067 256.444 271.091 256.477C271.118 256.509 271.137 256.544 271.148 256.585C272.069 258.856 272.776 261.206 273.261 263.61C273.445 264.456 273.564 265.315 273.618 266.18C273.613 266.312 273.575 266.442 273.507 266.556C273.44 266.67 273.342 266.762 273.228 266.83C272.413 267.245 271.533 267.521 270.628 267.643C269.913 267.643 267.378 267.838 267.67 267.155C267.963 266.472 268.353 267.708 272.058 265.854ZM257.464 261.138V259.447C257.464 258.276 259.089 258.114 259.122 259.447V261.301C259.13 261.423 259.113 261.548 259.067 261.661C259.024 261.778 258.956 261.881 258.87 261.967C258.781 262.054 258.675 262.119 258.558 262.16C258.442 262.201 258.317 262.217 258.195 262.203C258.073 262.193 257.954 262.152 257.849 262.09C257.743 262.027 257.651 261.943 257.583 261.84C257.513 261.74 257.467 261.623 257.445 261.504C257.423 261.382 257.431 261.258 257.464 261.138ZM255.319 270.115C256.359 274.018 257.756 274.603 259.447 274.799C259.793 274.826 260.14 274.826 260.487 274.799C260.562 274.771 260.649 274.78 260.723 274.815C260.796 274.853 260.85 274.915 260.877 274.994C260.901 275.072 260.896 275.156 260.861 275.23C260.822 275.302 260.757 275.357 260.682 275.384C257.854 277.01 253.986 275.026 254.701 270.115C254.723 270.05 254.763 269.993 254.817 269.952C254.874 269.912 254.942 269.89 255.01 269.89C255.077 269.89 255.145 269.912 255.199 269.952C255.257 269.993 255.297 270.05 255.319 270.115ZM243.097 310.771C243.116 310.665 243.157 310.562 243.214 310.47C243.273 310.38 243.349 310.299 243.439 310.24C243.528 310.177 243.628 310.134 243.734 310.109C243.839 310.088 243.947 310.085 244.056 310.104C244.161 310.122 244.264 310.163 244.356 310.22C244.446 310.28 244.525 310.356 244.587 310.445C244.649 310.535 244.693 310.635 244.717 310.74C244.739 310.846 244.741 310.957 244.722 311.063C244.584 311.668 244.408 312.267 244.202 312.852C244.192 312.977 244.154 313.099 244.091 313.207C244.029 313.316 243.945 313.407 243.842 313.481C243.739 313.551 243.62 313.6 243.498 313.619C243.374 313.641 243.249 313.633 243.127 313.6C243.008 313.565 242.897 313.503 242.802 313.421C242.707 313.337 242.634 313.237 242.582 313.121C242.534 313.006 242.51 312.882 242.515 312.755C242.52 312.63 242.553 312.508 242.61 312.397C242.805 311.844 242.967 311.291 243.097 310.771ZM275.081 256.292C275.057 256.17 275.059 256.043 275.089 255.921C275.119 255.799 275.176 255.688 275.257 255.59C275.336 255.493 275.436 255.416 275.547 255.363C275.661 255.308 275.785 255.281 275.91 255.281C276.034 255.281 276.159 255.308 276.27 255.363C276.384 255.416 276.484 255.493 276.563 255.59C276.641 255.688 276.698 255.799 276.728 255.921C276.761 256.043 276.763 256.17 276.739 256.292V258.146C276.763 258.268 276.761 258.396 276.728 258.518C276.698 258.636 276.641 258.751 276.563 258.848C276.484 258.943 276.384 259.021 276.27 259.076C276.159 259.13 276.034 259.157 275.91 259.157C275.785 259.157 275.661 259.13 275.547 259.076C275.436 259.021 275.336 258.943 275.257 258.848C275.176 258.751 275.119 258.636 275.089 258.518C275.059 258.396 275.057 258.268 275.081 258.146C275.119 257.528 275.119 256.91 275.081 256.292ZM18.1371 392.537C18.3321 392.569 18.1371 392.537 18.1371 392.537V392.537Z" fill="white"/>
<path fill-rule="evenodd" clip-rule="evenodd" d="M1.91772 390.455C5.5257 388.699 14.1068 390.162 18.1697 391.008C19.662 389.338 21.5448 388.067 23.6493 387.308C25.7538 386.547 28.0155 386.321 30.2287 386.65C33.8691 387.56 34.7467 392.049 34.5842 395.821C36.9245 395.399 39.4598 395.106 41.8001 394.878C41.6051 394.163 40.9875 393.154 41.1826 392.439C41.2883 392.184 41.4479 391.953 41.6483 391.767C41.8516 391.577 42.0927 391.436 42.3557 391.349C42.618 391.263 42.8946 391.233 43.1706 391.265C43.4442 391.295 43.7096 391.385 43.9454 391.528C44.5925 392.046 45.1912 392.623 45.7331 393.252C45.7331 392.114 44.7905 390.292 45.9281 390C47.0658 389.707 50.6087 392.894 51.6163 394.033C59.0816 393.211 66.6113 393.211 74.0766 394.033C83.8496 394.735 93.0589 398.87 100.08 405.709C60.5549 360.175 43.1978 328.886 43.6528 289.89C44.1079 250.893 90.4261 232.289 109.473 231.801C127.968 231.346 147.048 241.558 148.023 241.558C164.73 244.811 208.546 239.965 217.744 243.803C217.631 239.681 218.37 235.581 219.914 231.758C221.458 227.936 223.773 224.474 226.715 221.588C231.981 215.832 240.399 213.685 248.948 214.043C261.137 214.596 273.228 219.702 279.274 230.305C281.279 233.738 282.457 237.59 282.72 241.558C282.72 242.567 284.8 259.154 279.469 271.708C278.267 274.888 276.344 277.744 273.851 280.051C271.357 282.36 268.363 284.057 265.102 285.011C270.357 291.982 275.176 299.27 279.534 306.835C280.542 308.949 279.794 310.087 278.332 310.087C276.869 310.087 274.919 309.697 273.553 309.762C275.699 315.649 281.159 331 282.492 337.082C289.174 341.584 295.193 347.005 300.369 353.182C310.12 364.37 314.671 376.502 325.722 382.974L328.973 384.796C324.552 371.363 316.199 344.693 319.222 344.661C322.244 344.628 329.59 370.29 334.27 387.69C339.276 390.455 341.812 392.211 343.567 397.675C344.139 399.057 344.433 400.537 344.433 402.034C344.433 403.53 344.139 405.009 343.567 406.392C343.358 406.834 343.039 407.219 342.641 407.503C342.243 407.787 341.778 407.964 341.291 408.018C340.901 408.018 340.901 407.66 341.974 410.035C342.485 410.181 342.968 410.411 343.405 410.718L359.038 401.188C359.396 401.188 354.911 400.57 450.05 412.962C451.838 411.628 453.723 410.23 455.673 408.701C502.414 372.306 349.775 333.245 337.554 283.515C326.6 238.989 389.56 230.012 375.583 188.186C361.607 146.359 270.206 158.068 184.168 153.059C98.1295 148.051 63.9028 61.1456 126.538 15.8716C189.173 -29.4025 253.531 34.8983 268.743 51.3233C283.955 67.7481 301.507 89.2467 350.782 87.1001C400.058 84.9535 464.547 93.3122 488.177 164.801C499.554 199.016 489.347 223.019 474.168 242.046C469.084 236.87 462.796 233.037 455.868 230.89C451.838 229.915 447.84 230.435 446.702 234.436C444.557 241.786 453.463 253.202 458.631 258.894C445.63 271.448 433.148 282.051 428.24 293.012C420.049 311.421 459.314 325.048 475.891 335.814C492.468 346.58 517.788 379.884 502.252 412.214C501.084 414.691 499.782 417.101 498.351 419.434C531.31 423.695 532.448 423.695 532.772 423.89C533.098 424.085 533 424.671 532.772 424.996H533C530.075 428.248 443.972 551.385 391.12 613.962L390.178 614.158C378.736 608.658 171.101 507.803 182.152 501.591C182.152 501.591 333.946 416.8 337.554 414.653C336.989 413.683 336.5 412.671 336.091 411.628C335.911 411.615 335.741 411.539 335.611 411.414C335.481 411.289 335.397 411.124 335.375 410.945V409.189C333.36 409.872 330.207 407.92 328.582 406.457C325.332 403.465 320.457 395.138 316.849 394.033C309.655 392.238 302.558 390.067 295.591 387.528C266.63 376.665 254.604 364.5 241.992 344.856C239.907 341.788 238.132 338.519 236.694 335.098C229.335 343.05 220.388 349.368 210.431 353.637C236.694 383.983 232.566 403.237 223.075 413.742C214.396 423.337 200.322 419.954 198.014 419.239C198.014 433.68 193.139 465.749 191.513 468.969C190.668 470.823 193.496 472.221 194.081 475.896C194.387 477.764 194.146 479.68 193.385 481.412C192.624 483.146 191.375 484.618 189.791 485.654C186.183 487.93 180.04 488.061 182.445 484.45C183.247 483.418 184.152 482.472 185.143 481.621C184.2 481.913 183.16 482.304 181.892 482.759C170.028 487.41 168.468 489.524 166.29 488.906C165.998 488.838 165.724 488.706 165.488 488.521C165.253 488.337 165.061 488.101 164.925 487.833C164.665 488.011 164.37 488.136 164.061 488.193C163.75 488.25 163.433 488.242 163.124 488.169C162.818 488.095 162.531 487.958 162.282 487.765C162.029 487.573 161.824 487.328 161.675 487.052C161.564 486.841 161.504 486.608 161.504 486.369C161.504 486.13 161.564 485.897 161.675 485.686C161.263 484.992 161.122 484.168 161.285 483.377C161.285 480.45 172.466 470.888 174.741 469.001C174.416 465.749 172.694 458.528 168.403 439.339C146.235 464.35 71.7038 429.582 67.6408 427.825C66.9582 428.541 39.4273 416.8 36.2419 415.108C36.567 415.108 1.33264 399.171 0 393.317C0 391.951 0.877625 391.073 1.91772 390.455ZM127.643 95.9792C127.104 95.9958 126.595 96.2241 126.227 96.6132C125.855 97.0029 125.652 97.5227 125.66 98.0608C125.652 98.3281 125.696 98.5948 125.79 98.8449C125.888 99.0945 126.032 99.3233 126.216 99.5173C126.4 99.7107 126.622 99.8662 126.866 99.9732C127.112 100.08 127.375 100.138 127.643 100.142C127.911 100.138 128.177 100.081 128.423 99.9738C128.67 99.8668 128.895 99.7124 129.082 99.5191C129.268 99.3257 129.414 99.0974 129.515 98.8473C129.612 98.5971 129.661 98.3293 129.658 98.0608C129.661 97.7917 129.612 97.5238 129.515 97.2737C129.414 97.0236 129.268 96.7953 129.082 96.6019C128.895 96.4086 128.67 96.2542 128.423 96.1472C128.177 96.0401 127.911 95.9834 127.643 95.9792ZM146.008 39.1916C145.745 39.1913 145.485 39.2439 145.241 39.3456C144.997 39.4472 144.778 39.5962 144.594 39.784C144.41 39.9716 144.263 40.1941 144.166 40.4386C144.068 40.6831 144.02 40.9446 144.025 41.2081C143.99 41.4875 144.012 41.7716 144.095 42.0412C144.177 42.3109 144.315 42.56 144.502 42.7717C144.689 42.9834 144.916 43.1532 145.173 43.2691C145.431 43.3856 145.71 43.4453 145.992 43.4453C146.273 43.4453 146.552 43.3856 146.81 43.2691C147.065 43.1532 147.294 42.9834 147.481 42.7717C147.666 42.56 147.804 42.3109 147.888 42.0412C147.969 41.7716 147.994 41.4875 147.958 41.2081C147.961 40.9473 147.915 40.6885 147.82 40.4462C147.722 40.2039 147.582 39.9827 147.4 39.7955C147.219 39.6082 147.002 39.4586 146.764 39.3547C146.525 39.2512 146.268 39.1956 146.008 39.1916ZM207.115 128.926C207.348 128.884 207.557 128.761 207.709 128.58C207.86 128.399 207.942 128.171 207.942 127.934C207.942 127.698 207.86 127.469 207.709 127.288C207.557 127.107 207.348 126.984 207.115 126.942C206.845 126.942 206.582 127.05 206.392 127.242C206.2 127.434 206.092 127.695 206.092 127.967C206.092 128.239 206.2 128.499 206.392 128.691C206.582 128.883 206.845 128.991 207.115 128.991V128.926ZM215.956 39.5819C215.956 38.2809 212.706 37.6304 211.276 37.4353C208.914 37.1228 206.52 37.1228 204.158 37.4353C202.692 34.745 200.891 32.2528 198.794 30.0197C198.112 29.4668 197.494 29.2716 196.877 30.0197C195.406 32.99 194.461 36.1918 194.081 39.4843C189.043 40.7853 182.022 43.1922 186.248 46.2169C187.548 47.1602 189.856 48.1359 192.359 49.4694C192.077 52.0938 191.99 54.7354 192.099 57.3728C192.099 58.5762 192.424 60.3976 193.626 60.6252C196.064 61.0481 197.949 57.6655 201.785 54.348C205.458 56.1694 212.804 60.2024 212.966 56.332C212.568 53.0305 211.587 49.826 210.073 46.8674C213.811 43.3223 216.184 41.5984 215.956 39.6469V39.5819ZM219.207 99.3943C219.215 101.664 219.806 103.894 220.927 105.868C222.045 107.843 223.655 109.495 225.599 110.666C227.544 111.836 229.757 112.485 232.024 112.551C234.292 112.616 236.54 112.095 238.547 111.038L219.629 96.0118C219.34 97.1383 219.185 98.2956 219.174 99.4593L219.207 99.3943ZM220.019 94.8083C225.22 98.8088 232.208 104.566 239.197 110.648C239.722 110.33 240.223 109.971 240.692 109.574C233.899 102.712 227.235 94.971 223.107 90.0598C221.747 91.4329 220.685 93.0716 219.987 94.8734L220.019 94.8083ZM223.822 89.3768C225.123 90.7753 236.434 103.525 241.31 108.891C242.697 107.616 243.804 106.065 244.56 104.338C239.619 100.76 232.891 95.7841 225.415 89.8972L224.245 88.954L223.822 89.3768ZM232.371 86.1244C229.762 86.1214 227.213 86.9032 225.058 88.3685L229.641 91.621C230.681 92.4016 238.579 98.6137 244.82 103.492C245.481 101.51 245.665 99.399 245.356 97.3316C245.045 95.2649 244.251 93.301 243.035 91.6003C241.821 89.8995 240.223 88.5111 238.368 87.5477C236.516 86.585 234.46 86.0747 232.371 86.0593V86.1244ZM263.705 80.7904C263.309 80.7774 262.919 80.8826 262.586 81.0925C262.25 81.3025 261.987 81.6076 261.828 81.9689C261.668 82.3302 261.619 82.7306 261.687 83.1197C261.758 83.5088 261.939 83.8683 262.215 84.1522C262.489 84.4366 262.841 84.6318 263.228 84.714C263.616 84.7962 264.016 84.7607 264.382 84.6123C264.748 84.4644 265.062 84.2107 265.284 83.8825C265.503 83.5555 265.623 83.1694 265.623 82.7743C265.59 82.2794 265.368 81.8158 265.008 81.4775C264.644 81.1393 264.168 80.9518 263.672 80.953L263.705 80.7904ZM281.614 130.032C280.856 130.058 280.119 130.306 279.502 130.747C278.884 131.187 278.407 131.8 278.134 132.509C277.863 133.218 277.803 133.992 277.966 134.734C278.131 135.476 278.508 136.153 279.055 136.682C279.599 137.21 280.29 137.566 281.035 137.705C281.782 137.844 282.554 137.761 283.253 137.464C283.952 137.168 284.548 136.672 284.968 136.039C285.388 135.405 285.612 134.663 285.612 133.903C285.585 132.861 285.152 131.872 284.405 131.148C283.657 130.424 282.655 130.023 281.614 130.032ZM332.191 120.86C330.793 120.86 330.793 123.365 332.191 123.365C333.588 123.365 333.621 120.86 332.191 120.86ZM464.384 192.772C464.538 192.799 464.696 192.792 464.848 192.751C464.999 192.711 465.14 192.638 465.26 192.536C465.38 192.436 465.476 192.31 465.542 192.168C465.608 192.026 465.643 191.871 465.643 191.714C465.643 191.558 465.608 191.403 465.542 191.261C465.476 191.119 465.38 190.993 465.26 190.892C465.14 190.792 464.999 190.718 464.848 190.678C464.696 190.637 464.538 190.63 464.384 190.658C464.23 190.63 464.072 190.637 463.92 190.678C463.769 190.718 463.629 190.792 463.509 190.892C463.389 190.993 463.292 191.119 463.226 191.261C463.159 191.403 463.126 191.558 463.126 191.714C463.126 191.871 463.159 192.026 463.226 192.168C463.292 192.31 463.389 192.436 463.509 192.536C463.629 192.638 463.769 192.711 463.92 192.751C464.072 192.792 464.23 192.799 464.384 192.772ZM394.501 320.462C394.937 320.411 395.35 320.237 395.689 319.956C396.028 319.677 396.278 319.302 396.411 318.885C396.543 318.465 396.55 318.015 396.433 317.592C396.315 317.167 396.077 316.787 395.748 316.494C395.419 316.204 395.012 316.015 394.577 315.95C394.142 315.885 393.698 315.947 393.298 316.128C392.898 316.31 392.559 316.606 392.322 316.977C392.085 317.345 391.962 317.779 391.965 318.218C392.007 318.85 392.297 319.441 392.772 319.86C393.246 320.283 393.867 320.497 394.501 320.462ZM386.797 102.939C386.352 102.933 385.916 103.059 385.542 103.301C385.169 103.544 384.877 103.892 384.702 104.302C384.527 104.711 384.478 105.164 384.561 105.601C384.644 106.038 384.855 106.441 385.167 106.758C385.479 107.075 385.879 107.292 386.315 107.382C386.751 107.471 387.203 107.428 387.615 107.26C388.027 107.091 388.379 106.803 388.627 106.434C388.875 106.064 389.007 105.628 389.008 105.184C389.008 104.593 388.775 104.028 388.362 103.608C387.948 103.188 387.386 102.948 386.797 102.939ZM384.912 219.734C384.915 220.052 385.009 220.362 385.183 220.628C385.357 220.894 385.604 221.103 385.894 221.233C386.183 221.363 386.504 221.406 386.818 221.358C387.132 221.31 387.426 221.174 387.664 220.964C387.903 220.755 388.076 220.481 388.163 220.175C388.25 219.87 388.248 219.546 388.157 219.241C388.066 218.937 387.889 218.666 387.648 218.459C387.407 218.252 387.112 218.119 386.797 218.076C386.569 218.057 386.339 218.087 386.122 218.162C385.906 218.238 385.708 218.357 385.54 218.513C385.372 218.669 385.238 218.857 385.147 219.068C385.055 219.278 385.008 219.505 385.01 219.734H384.912ZM384.165 267.773C382.214 266.244 376.461 261.496 374.738 262.992C373.016 264.488 374.511 267.643 374.738 272.131C371.13 273.855 363.655 277.14 366.58 279.222C369.444 280.622 372.519 281.544 375.681 281.954C376.234 286.67 376.201 289.076 377.794 289.89C378.899 290.41 381.337 288.426 382.247 287.58C383.995 286.087 385.527 284.357 386.797 282.441C389.766 282.799 392.767 282.799 395.736 282.441C396.516 282.246 397.101 281.889 396.939 281.108C396.581 279.319 392.551 275.514 391.218 274.245C392.063 272.391 394.046 267.74 393.363 265.887C392.388 263.317 388.195 266.147 384.262 267.773H384.165ZM394.728 162.979C394.046 162.979 393.688 163.467 393.786 164.313C394.465 166.726 395.495 169.027 396.841 171.143C395.447 172.603 394.256 174.244 393.298 176.022C390.048 182.299 394.566 180.705 401.262 179.274C402.84 181.623 404.847 183.653 407.177 185.259C410.2 186.755 410.883 180.38 411.403 176.77C415.986 175.566 419.626 175.729 420.569 173.875C421.512 172.021 414.491 169.192 412.476 168.281C412.703 165.028 414.101 160.67 411.305 160.8C408.472 161.657 405.871 163.147 403.699 165.159C400.843 163.962 397.814 163.226 394.728 162.979ZM436.138 253.853C436.501 253.911 436.871 253.89 437.225 253.791C437.579 253.692 437.907 253.518 438.186 253.28C438.466 253.042 438.69 252.746 438.845 252.412C438.998 252.078 439.078 251.715 439.078 251.348C439.078 250.98 438.998 250.618 438.845 250.284C438.69 249.951 438.466 249.655 438.186 249.416C437.907 249.178 437.579 249.003 437.225 248.905C436.871 248.806 436.501 248.785 436.138 248.844C435.776 248.785 435.404 248.806 435.051 248.905C434.698 249.003 434.37 249.178 434.09 249.416C433.811 249.655 433.586 249.951 433.432 250.284C433.278 250.618 433.198 250.98 433.198 251.348C433.198 251.715 433.278 252.078 433.432 252.412C433.586 252.746 433.811 253.042 434.09 253.28C434.37 253.518 434.698 253.692 435.051 253.791C435.404 253.89 435.776 253.911 436.138 253.853ZM454.471 155.596C454.59 155.566 454.696 155.498 454.773 155.4C454.848 155.303 454.89 155.183 454.89 155.059C454.89 154.936 454.848 154.816 454.773 154.719C454.696 154.622 454.59 154.553 454.471 154.523C447.352 154.035 439.259 153.808 432.14 153.808C438.073 149.644 444.423 146.112 451.09 143.27C451.231 143.226 451.35 143.131 451.425 143.003C451.499 142.875 451.521 142.723 451.489 142.58C451.455 142.435 451.369 142.309 451.247 142.226C451.125 142.143 450.976 142.109 450.83 142.131C443.441 142.21 436.173 144.014 429.605 147.4C433.925 143.092 438.495 139.041 443.289 135.269C443.392 135.185 443.461 135.068 443.485 134.938C443.509 134.807 443.484 134.673 443.418 134.559C443.351 134.445 443.246 134.359 443.12 134.316C442.996 134.273 442.859 134.276 442.737 134.325C434.543 136.969 426.852 140.971 419.984 146.164C413.204 151.135 407.323 157.229 402.594 164.183C402.594 164.476 402.887 164.703 403.082 164.411C407.807 157.502 413.677 151.452 420.439 146.522C426.462 142.101 433.098 138.584 440.136 136.082C437.764 138.001 428.142 145.839 426.875 148.734C426.615 149.254 427.265 149.742 427.817 149.417C431.288 147.482 434.976 145.964 438.804 144.896C441.786 144.003 444.862 143.457 447.97 143.27C444.232 145.059 432.628 150.75 430.255 154.133C430.194 154.223 430.16 154.329 430.156 154.438C430.152 154.547 430.178 154.655 430.233 154.75C430.287 154.844 430.366 154.922 430.462 154.974C430.558 155.026 430.666 155.049 430.775 155.043C431.133 155.043 440.104 155.043 449.628 155.369C438.381 157.515 423.624 161.646 414.231 168.378C413.971 168.574 414.231 168.964 414.556 168.769C424.762 161.646 442.412 157.223 454.471 155.596ZM270.433 222.759C259.349 214.4 237.377 212.189 227.755 222.759C224.922 225.523 222.695 228.848 221.217 232.522C219.741 236.196 219.044 240.137 219.174 244.095C219.933 251.268 223.013 257.997 227.95 263.252C228.535 263.838 228.535 263.252 228.34 262.959C227.78 262.155 227.411 261.236 227.257 260.268C227.102 259.3 227.167 258.311 227.449 257.373C227.731 256.436 228.219 255.573 228.879 254.851C229.54 254.129 230.356 253.565 231.266 253.202C237.409 250.405 239.262 260.715 243.747 261.984C247.648 263.122 246.185 254.015 245.893 247.933C245.484 245.259 246.098 242.529 247.615 240.29C250.316 237.391 253.653 235.163 257.367 233.785C263.876 231.162 270.943 230.233 277.909 231.085C276.007 227.831 273.464 224.998 270.433 222.759ZM278.137 271.253C283.5 258.569 281.159 241.721 281.159 241.721C280.896 238.3 279.911 234.974 278.267 231.964C271.243 231.249 264.155 232.37 257.692 235.216C254.176 236.533 251.006 238.635 248.428 241.363C245.178 245.656 248.428 253.853 247.388 260.26C246.998 262.764 245.828 264.358 243.39 263.512C238.352 262.081 236.661 252.519 231.818 254.731C226.975 256.942 227.853 263.285 233.574 265.691C235.784 266.635 235.589 268.749 233.899 268.944C233.021 268.944 231.298 268.456 228.665 266.342C224.808 262.571 221.778 258.043 219.759 253.039C215.238 253.994 210.867 255.546 206.758 257.658C200.972 260.292 194.146 263.968 188.751 267.122C196.974 269.085 204.469 273.345 210.363 279.411C216.257 285.475 220.304 293.091 222.035 301.371C223.27 301.371 223.172 299.614 224.017 298.964C224.863 298.313 225.383 298.964 226.39 299.289C226.368 298.487 226.547 297.695 226.91 296.98C226.91 295.093 229.998 296.199 231.786 296.785C231.764 295.977 231.886 295.174 232.143 294.41C231.396 292.004 235.751 293.207 238.189 293.89C238.005 292.966 238.005 292.017 238.189 291.093C237.962 289.207 242.09 290.41 243.812 291.093C243.663 290.006 243.731 288.9 244.007 287.841C244.918 286.572 249.728 289.239 249.923 288.036C249.907 287.144 249.731 286.263 249.403 285.434C248.85 283.45 251.548 284.686 252.328 284.556C252.358 284.572 252.39 284.583 252.426 284.583C252.461 284.583 252.494 284.572 252.523 284.556V284.165C249.804 283.42 247.193 282.327 244.755 280.913C243.514 282.74 241.656 284.056 239.522 284.621C237.582 285.198 235.519 285.203 233.577 284.637C231.634 284.068 229.898 282.948 228.576 281.417C227.254 279.886 226.404 278.002 226.125 275.999C225.846 273.993 226.152 271.95 227.008 270.115C227.008 269.757 227.723 270.115 227.56 270.342C227.138 271.589 226.975 272.906 227.076 274.218C227.176 275.53 227.541 276.806 228.148 277.975C228.758 279.14 229.595 280.173 230.61 281.007C231.626 281.842 232.799 282.463 234.061 282.832L241.927 277.986C242.22 277.79 242.187 277.986 243.91 279.091C244.991 276.956 245.28 274.508 244.728 272.177C244.173 269.849 242.813 267.795 240.887 266.374C238.615 264.851 235.914 264.098 233.184 264.228C233.119 264.206 233.062 264.165 233.021 264.108C232.98 264.055 232.959 263.987 232.959 263.919C232.959 263.851 232.98 263.783 233.021 263.729C233.062 263.672 233.119 263.631 233.184 263.61C236.109 263.254 239.072 263.884 241.602 265.399C243.899 266.924 245.549 269.253 246.226 271.928C246.906 274.6 246.567 277.433 245.275 279.872C251.037 283.152 257.645 284.637 264.257 284.133C267.427 283.241 270.339 281.609 272.752 279.371C275.165 277.129 277.01 274.348 278.137 271.253ZM227.528 300.135C226.674 299.95 225.843 299.669 225.058 299.289C223.627 298.769 224.017 301.631 222.197 301.663C222.522 303.192 222.717 304.395 222.815 305.143C224.342 304.591 225.773 303.973 227.203 303.387C227.141 302.292 227.249 301.194 227.528 300.135ZM227.528 299.419C227.528 299.419 227.528 299.257 227.203 298.151C227.122 298.56 226.956 298.947 226.715 299.289L227.528 299.387V299.419ZM227.853 300.037C228.018 301.116 228.018 302.211 227.853 303.29C230.128 302.346 232.241 301.371 234.354 300.395C234.354 299.779 234.475 299.173 234.711 298.606C233.216 298.606 228.21 296.199 227.983 296.915C227.755 297.63 228.926 299.387 227.853 300.037ZM235.036 298.378C235.042 298.885 234.966 299.392 234.809 299.875C235.654 299.484 239.132 297.728 240.009 297.273C240.025 296.579 240.134 295.888 240.334 295.224C238.387 294.955 236.461 294.53 234.581 293.955C234.354 293.955 232.891 293.76 233.021 293.955C233.151 294.898 236.466 297.63 235.036 298.378ZM240.724 296.882C242.382 296.004 243.975 295.158 245.21 294.378C245.188 293.687 245.31 293.001 245.568 292.361C245.042 292.451 244.506 292.358 244.04 292.101C242.545 291.421 240.933 291.033 239.294 290.963C239.982 291.757 240.57 292.63 241.05 293.565C241.177 294.681 241.066 295.811 240.724 296.882ZM245.958 293.955L249.566 291.776C249.492 290.811 249.59 289.843 249.858 288.914C248.818 289.141 246.12 288.068 244.885 288.166C245.473 288.962 246.004 289.8 246.478 290.67C246.478 291.787 246.302 292.895 245.958 293.955ZM244.56 289.239C244.641 289.887 244.641 290.542 244.56 291.191C244.788 291.191 245.535 291.548 245.6 291.191C245.665 290.833 244.95 289.629 244.56 289.239ZM238.839 292.036C238.858 292.673 238.783 293.31 238.612 293.923C239.11 294.107 239.638 294.207 240.172 294.215C240.172 294.215 240.302 293.76 238.839 292.036ZM232.598 295.289C232.555 295.823 232.436 296.348 232.241 296.85C232.888 297.096 233.549 297.302 234.224 297.468C233.834 296.882 233.314 296.134 232.598 295.256V295.289ZM250.508 288.524C250.524 289.499 250.402 290.475 250.151 291.418C250.703 291.079 251.247 290.722 251.776 290.345L252.523 284.881C251.711 284.881 250.021 284.393 250.021 284.881C250.021 285.369 251.386 287.515 250.508 288.491V288.524ZM243.552 279.742C243.097 279.449 242.61 279.091 242.155 278.734L235.004 283.124C236.591 283.444 238.235 283.309 239.746 282.731C241.258 282.157 242.577 281.165 243.552 279.872V279.742ZM278.364 308.624C279.144 308.396 274.659 301.436 274.139 300.623C272.546 298.053 264.842 286.149 264.192 285.174C261.505 285.331 258.81 285.168 256.164 284.686C255.644 303.94 252.166 311.941 247.94 319.454C250.118 318.771 252.328 319.779 254.246 319.096C256.944 318.186 256.846 314.283 260.747 314.055C263.296 314.356 265.747 315.21 267.93 316.56C268.808 316.917 269.003 316.56 269.23 316.169C269.553 313.968 270.029 311.794 270.661 309.664C272.156 307.095 276.836 309.144 278.364 308.624ZM359.396 402.034L344.055 411.303C344.948 412.149 345.916 412.91 346.947 413.58C349.45 414.913 352.051 413.905 352.083 415.889C366.092 421.255 387.187 446.007 360.892 468.611C327.283 497.46 289.025 508.974 324.617 536.489C334.368 544.133 344.412 542.994 356.016 535.481C368.758 527.122 368.628 490.305 380.849 467.57C401.164 429.744 409.55 442.494 448.815 414.068L359.396 402.034ZM314.249 538.636C314.292 538.636 314.332 538.628 314.373 538.612C314.411 538.595 314.449 538.571 314.479 538.541C314.509 538.511 314.533 538.473 314.549 538.435C314.565 538.395 314.574 538.354 314.574 538.311C314.574 538.268 314.565 538.227 314.549 538.186C314.533 538.145 314.509 538.11 314.479 538.08C314.449 538.05 314.411 538.026 314.373 538.01C314.332 537.994 314.292 537.985 314.249 537.985C314.183 538.007 314.127 538.048 314.086 538.104C314.045 538.159 314.024 538.227 314.024 538.294C314.024 538.362 314.045 538.43 314.086 538.484C314.127 538.541 314.183 538.581 314.249 538.603V538.636ZM330.891 548.393C331.026 548.417 331.167 548.415 331.301 548.38C331.435 548.344 331.56 548.279 331.667 548.193C331.773 548.103 331.859 547.992 331.918 547.868C331.976 547.743 332.007 547.604 332.007 547.466C332.007 547.328 331.976 547.19 331.918 547.065C331.859 546.94 331.773 546.829 331.667 546.74C331.56 546.651 331.435 546.588 331.301 546.553C331.167 546.517 331.026 546.515 330.891 546.539C330.627 546.539 330.375 546.645 330.189 546.829C330.003 547.017 329.899 547.268 329.899 547.531C329.899 547.794 330.003 548.046 330.189 548.233C330.375 548.417 330.627 548.523 330.891 548.523V548.393ZM372.756 546.117C372.422 545.151 371.928 544.249 371.293 543.45C372.756 541.433 373.633 540.425 371.097 540.555C370.355 540.609 369.622 540.764 368.92 541.01C366.32 538.148 365.864 538.343 365.962 542.246C365.312 542.571 363.785 543.352 363.492 544.002C363.199 544.653 364.857 545.043 366.027 545.401C366.027 546.182 366.32 548.653 367.067 548.653C367.815 548.653 368.237 547.45 369.212 546.214C370.545 546.572 372.918 547.418 372.756 546.247V546.117ZM373.178 504.68C373.314 504.705 373.454 504.702 373.588 504.667C373.723 504.631 373.847 504.566 373.954 504.48C374.061 504.39 374.146 504.28 374.205 504.155C374.264 504.03 374.295 503.892 374.295 503.753C374.295 503.615 374.264 503.477 374.205 503.352C374.146 503.228 374.061 503.116 373.954 503.027C373.847 502.938 373.723 502.875 373.588 502.84C373.454 502.805 373.314 502.802 373.178 502.827C372.915 502.827 372.663 502.932 372.477 503.116C372.291 503.304 372.187 503.556 372.187 503.818C372.187 504.081 372.291 504.333 372.477 504.52C372.663 504.705 372.915 504.811 373.178 504.811V504.68ZM412.443 457.52C412.579 457.544 412.719 457.542 412.853 457.507C412.987 457.471 413.112 457.406 413.219 457.32C413.325 457.23 413.411 457.119 413.47 456.994C413.529 456.87 413.559 456.731 413.559 456.593C413.559 456.455 413.529 456.317 413.47 456.192C413.411 456.067 413.325 455.956 413.219 455.867C413.112 455.777 412.987 455.715 412.853 455.68C412.719 455.644 412.579 455.642 412.443 455.666C412.307 455.642 412.166 455.644 412.032 455.68C411.898 455.715 411.773 455.777 411.666 455.867C411.56 455.956 411.474 456.067 411.415 456.192C411.356 456.317 411.325 456.455 411.325 456.593C411.325 456.731 411.356 456.87 411.415 456.994C411.474 457.119 411.56 457.23 411.666 457.32C411.773 457.406 411.898 457.471 412.032 457.507C412.166 457.542 412.307 457.544 412.443 457.52ZM425.445 437.225C425.581 437.249 425.721 437.246 425.855 437.211C425.989 437.176 426.114 437.111 426.221 437.024C426.327 436.935 426.413 436.823 426.472 436.699C426.53 436.574 426.561 436.436 426.561 436.298C426.561 436.16 426.53 436.022 426.472 435.897C426.413 435.772 426.327 435.661 426.221 435.572C426.114 435.482 425.989 435.42 425.855 435.385C425.721 435.349 425.581 435.344 425.445 435.371C425.31 435.339 425.17 435.339 425.035 435.366C424.9 435.395 424.773 435.452 424.663 435.534C424.552 435.618 424.462 435.723 424.397 435.845C424.332 435.967 424.294 436.103 424.287 436.238C424.28 436.376 424.303 436.515 424.355 436.642C424.406 436.772 424.486 436.886 424.587 436.981C424.688 437.073 424.808 437.143 424.939 437.187C425.071 437.23 425.21 437.241 425.347 437.225H425.445ZM463.572 430.72C463.435 430.696 463.295 430.698 463.161 430.734C463.027 430.769 462.902 430.831 462.795 430.921C462.689 431.01 462.603 431.121 462.544 431.246C462.485 431.371 462.454 431.509 462.454 431.647C462.454 431.785 462.485 431.923 462.544 432.048C462.603 432.172 462.689 432.284 462.795 432.373C462.902 432.46 463.027 432.525 463.161 432.56C463.295 432.595 463.435 432.598 463.572 432.574C463.708 432.59 463.847 432.579 463.978 432.536C464.11 432.492 464.23 432.422 464.331 432.33C464.432 432.235 464.511 432.121 464.563 431.991C464.615 431.864 464.638 431.725 464.631 431.587C464.624 431.452 464.587 431.316 464.521 431.194C464.456 431.073 464.365 430.967 464.256 430.883C464.145 430.801 464.018 430.744 463.883 430.715C463.748 430.688 463.608 430.688 463.474 430.72H463.572ZM484.992 365.671C483.647 364.587 482.116 363.761 480.474 363.232C480.474 359.004 480.799 356.727 477.451 359.232C476.473 360.028 475.599 360.947 474.851 361.964C473.341 361.505 471.778 361.256 470.203 361.215C469.748 361.215 469.455 361.476 469.488 361.931C470.042 363.609 470.878 365.181 471.958 366.582C471.02 368.04 470.441 369.701 470.268 371.428C470.56 373.022 473.063 371.623 475.078 371.038C475.956 372.079 478.654 375.526 479.661 374.746C480.669 373.965 480.116 371.949 480.246 369.216C482.229 368.501 486.26 367.2 484.894 365.671H484.992ZM496.953 394.358C496.817 394.331 496.677 394.336 496.543 394.371C496.408 394.406 496.284 394.469 496.177 394.558C496.07 394.648 495.985 394.759 495.926 394.884C495.867 395.008 495.836 395.147 495.836 395.284C495.836 395.423 495.867 395.561 495.926 395.686C495.985 395.811 496.07 395.921 496.177 396.011C496.284 396.098 496.408 396.163 496.543 396.198C496.677 396.234 496.817 396.236 496.953 396.212C497.09 396.228 497.229 396.217 497.36 396.174C497.492 396.13 497.612 396.06 497.713 395.967C497.814 395.873 497.893 395.759 497.945 395.629C497.996 395.501 498.02 395.363 498.013 395.225C498.005 395.089 497.968 394.954 497.903 394.832C497.838 394.71 497.747 394.604 497.637 394.52C497.527 394.439 497.4 394.382 497.264 394.353C497.129 394.325 496.989 394.325 496.856 394.358H496.953ZM183.452 502.371C195.349 517.885 372.983 604.14 390.275 612.496C430.873 564.265 494.061 476.319 531.115 424.996L497.636 420.605C476.768 453.552 444.784 445.909 427.622 456.382C408.315 468.188 398.369 477.1 392.518 499.997C384.555 531.123 394.598 544.555 371.325 554.475C349.027 563.94 304.757 560.135 286.815 529.334C268.873 498.533 304.01 485.068 335.571 470.79C367.132 456.512 361.574 436.737 357.284 431.143C354.007 426.888 350.207 423.06 345.972 419.759C344.37 419.765 342.795 419.35 341.404 418.556C340.012 417.765 338.853 416.62 338.041 415.238C334.238 417.288 189.986 498.631 183.355 502.371H183.452ZM303.717 540.718C303.674 540.718 303.633 540.726 303.593 540.742C303.552 540.758 303.517 540.783 303.487 540.812C303.457 540.842 303.433 540.877 303.416 540.918C303.4 540.959 303.392 541 303.392 541.043C303.392 541.086 303.4 541.127 303.416 541.167C303.433 541.205 303.457 541.243 303.487 541.273C303.517 541.303 303.552 541.327 303.593 541.344C303.633 541.36 303.674 541.368 303.717 541.368C303.76 541.365 303.801 541.354 303.839 541.338C303.88 541.319 303.912 541.292 303.942 541.262C303.972 541.23 303.993 541.192 304.007 541.151C304.02 541.11 304.029 541.07 304.026 541.026C304.023 540.983 304.013 540.942 303.994 540.902C303.977 540.864 303.95 540.829 303.918 540.801C303.888 540.772 303.85 540.75 303.809 540.736C303.769 540.723 303.728 540.715 303.685 540.718H303.717ZM295.396 507.77C295.786 508.03 296.371 507.77 297.281 507.315C298.712 508.909 299.394 509.364 299.232 506.664C300.629 506.209 301.409 505.981 300.109 505.233C299.719 505.022 299.305 504.857 298.874 504.746C298.517 502.501 298.224 502.469 296.989 504.355C296.39 504.209 295.767 504.209 295.169 504.355C294.714 504.615 295.461 505.233 295.981 505.851C295.786 506.307 295.006 507.543 295.364 507.77H295.396ZM343.372 417.808C344.626 418.222 345.971 418.274 347.253 417.957C348.535 417.64 349.702 416.971 350.62 416.019H350.328C344.185 415.076 345.095 412.539 341.909 410.978C341.617 411.303 341.909 411.205 336.741 411.596C338.046 414.46 340.429 416.694 343.372 417.808ZM335.864 404.798C336.333 405.673 336.516 406.676 336.383 407.66C336.383 407.888 336.611 408.929 336.741 409.904L340.252 409.612C340.252 409.449 337.944 403.953 337.781 403.432H335.571L335.864 404.798ZM336.513 395.659C338.756 399.854 339.764 407.66 341.746 406.294C342.439 405.576 342.834 404.625 342.851 403.627C342.956 401.751 342.691 399.873 342.071 398.098C341.541 396.236 340.609 394.512 339.339 393.052C338.07 391.59 336.494 390.425 334.725 389.642C336.448 396.277 335.961 394.781 336.513 395.789V395.659ZM334.173 400.57C333.653 399.041 332.938 396.797 331.93 393.87C331.508 393.642 331.411 393.87 330.858 395.236C329.98 397.513 335.116 403.302 335.116 403.302C334.791 402.359 334.433 401.448 334.173 400.7V400.57ZM242.382 344.205C253.856 361.476 262.372 369.216 275.764 376.73C288.817 383.679 302.699 388.945 317.076 392.406C322.862 394.195 327.705 407.042 334.043 407.628C334.758 407.628 335.246 407.628 334.661 406.002C333.198 401.936 327.9 398.553 329.428 394.683C329.622 394.1 329.883 393.545 330.208 393.024C330.471 392.599 330.873 392.276 331.346 392.114C331.151 391.463 330.5 389.577 329.623 386.91C328.875 386.389 328.355 386.227 324.942 384.21C313.501 377.445 309.015 365.314 299.394 353.963C294.313 347.742 288.381 342.267 281.777 337.7C281.289 337.408 282.102 337.896 278.332 325.992C276.154 319.129 273.618 311.876 272.871 309.729C272.73 309.748 272.594 309.8 272.478 309.878C272.359 309.957 272.259 310.063 272.188 310.185C271.343 311.778 271.506 314.836 270.791 316.69C269.1 320.788 264.907 315.291 261.039 315.389C257.789 315.389 257.789 319.129 254.539 320.072C252.101 320.788 249.663 319.292 247.388 320.365C244.406 325.436 240.898 330.179 236.922 334.513C238.398 337.966 240.229 341.259 242.382 344.335V344.205ZM222.425 345.246C232.263 338.207 240.486 329.149 246.543 318.674C250.541 311.713 254.246 303.94 255.514 284.425C254.747 284.292 253.986 284.116 253.239 283.905L252.556 290.41C248.975 293.123 245.193 295.557 241.245 297.695C241.245 297.695 244.007 313.34 231.493 333.472C225.48 343.36 222.425 345.376 222.425 345.376V345.246ZM162 387.202C161.415 394.293 167.851 432.997 168.728 438.266C168.78 438.285 168.826 438.314 168.866 438.355C168.904 438.393 168.937 438.442 168.956 438.493C168.533 436.9 175.847 461.521 176.399 469.229C176.399 469.847 176.399 469.554 170.841 474.368C168.956 476.027 162.487 481.523 162.162 483.442C162.013 483.941 162.013 484.472 162.162 484.971C165.066 481.892 168.53 479.398 172.369 477.62C172.437 477.577 172.52 477.563 172.599 477.582C172.68 477.598 172.748 477.647 172.791 477.718C172.834 477.785 172.848 477.87 172.829 477.948C172.81 478.029 172.762 478.097 172.694 478.141L170.061 480.287C167.428 482.076 165.006 484.16 162.845 486.499C163.17 487.312 163.885 487.378 164.73 487.15C164.73 485.459 172.141 481.361 174.481 479.962C174.839 479.767 175.164 480.287 174.806 480.482C171.542 482.369 168.501 484.615 165.738 487.182C166.778 489.524 169.931 486.174 181.405 481.458C183.471 480.528 185.66 479.892 187.906 479.572C188.057 479.561 188.209 479.599 188.336 479.683C188.466 479.764 188.566 479.883 188.621 480.027C188.913 480.873 188.003 480.84 185.078 483.8C184.455 484.344 183.918 484.981 183.485 485.686C185.432 485.916 187.399 485.456 189.043 484.385C190.346 483.512 191.373 482.29 192.006 480.856C192.64 479.423 192.851 477.837 192.619 476.287C192.066 473.034 188.848 471.376 190.181 468.481C191.513 465.586 194.244 446.787 194.634 444.088C198.242 419.662 196.877 419.141 197.559 418.946C197.559 385.056 196.487 384.926 196.747 383.169C196.747 382.812 204.027 332.789 204.092 332.399C201.947 332.399 200.42 334.773 199.217 336.725C197.462 339.522 195.966 341.343 192.456 340.27C188.946 339.197 185.955 336.237 182.705 335.066C179.454 333.895 177.732 335.066 174.189 336.204C172.824 336.857 171.282 337.042 169.801 336.73C168.322 336.418 166.984 335.627 165.998 334.48C160.342 329.764 163.007 328.594 151.436 333.147C153.679 341.896 158.717 366.615 158.814 367.005C160.868 373.542 161.94 380.348 162 387.202ZM204.483 330.805C207.031 331.727 209.518 332.811 211.926 334.058C212.479 334.058 212.706 334.058 212.869 333.407C213.876 328.756 202.045 273.692 172.564 271.611C159.107 270.7 149.811 294.866 145.748 307.745C143.074 315.93 140.999 324.303 139.54 332.789C138.954 338.676 156.117 327.65 161.057 328.789C163.007 329.244 163.885 330.903 166.68 333.245C169.476 335.586 170.906 335.586 173.376 334.708C176.293 333.109 179.714 332.689 182.932 333.537C186.378 334.773 189.238 337.668 192.684 338.741C195.609 339.684 196.519 337.668 198.177 335.066C199.835 332.464 201.525 330.252 204.483 330.675V330.805ZM156.052 361.508C154.686 356.109 152.281 344.921 150.493 333.212C147.503 334.383 140.97 337.245 138.792 335.163C138.467 334.816 138.234 334.394 138.109 333.936C137.985 333.475 137.974 332.993 138.077 332.529C139.255 325.663 140.883 318.885 142.952 312.234C147.308 297.76 157.482 269.952 172.629 270.895C203.377 273.042 215.371 328.561 214.331 333.57C214.302 333.892 214.198 334.201 214.028 334.478C213.86 334.754 213.63 334.987 213.356 335.161C213.082 335.331 212.774 335.44 212.451 335.475C212.132 335.511 211.807 335.47 211.503 335.359C209.651 334.903 207.018 332.887 204.613 332.334C204.255 338.253 203.572 346.124 202.142 356.304C207.625 354.147 212.92 351.534 217.972 348.498C228.17 338.587 235.358 325.994 238.709 312.169C239.852 307.645 240.505 303.01 240.659 298.346C234.757 301.644 228.63 304.523 222.327 306.965C222.221 307.006 222.11 307.022 221.997 307.011C221.886 307 221.778 306.965 221.682 306.902C221.588 306.843 221.509 306.761 221.45 306.664C221.393 306.569 221.36 306.458 221.352 306.347C220.163 297.158 216.271 288.532 210.171 281.563C203.954 274.671 195.696 269.952 186.605 268.098C186.459 268.074 186.323 268.003 186.218 267.9C186.112 267.795 186.042 267.659 186.017 267.513C185.991 267.366 186.012 267.215 186.077 267.082C186.142 266.946 186.248 266.835 186.378 266.765C192.817 263.046 199.458 259.69 206.27 256.715C210.49 254.753 214.916 253.269 219.467 252.291C218.586 249.865 217.996 247.344 217.712 244.778C211.211 242.014 178.414 246.079 156.312 243.77C152.964 243.562 149.643 243.029 146.398 242.176C126.473 241.623 96.4718 266.147 90.9461 277.205C85.4205 288.263 86.298 302.086 98.5521 319.292C110.091 335.391 151.566 358.874 156.019 361.378L156.052 361.508ZM67.6082 427.175C63.0902 412.929 70.2411 399.594 72.8089 395.464L51.2913 394.878C48.5202 396.518 46.4074 399.071 45.3105 402.099C43.5471 406.633 42.6104 411.447 42.5477 416.312C48.9835 419.206 60.9124 424.671 67.6082 427.045V427.175ZM41.15 415.434C41.3291 410.668 42.4313 405.985 44.4005 401.643C45.7036 398.581 47.9924 396.038 50.9012 394.423C49.604 393.03 48.0326 391.921 46.2857 391.17C46.2857 392.211 47.5533 394.423 46.0257 394.651C44.498 394.878 44.3354 393.382 43.3928 392.894C43.0028 392.699 42.2227 392.667 42.5477 393.512C42.8728 394.358 43.5879 395.626 42.8403 396.765C42.2906 397.412 41.5318 397.849 40.695 398.001C40.5 398.001 41.8001 398.911 42.1577 399.952C42.2416 400.199 42.228 400.467 42.1198 400.702C42.0117 400.941 41.8137 401.125 41.5726 401.22C40.4675 401.643 38.5497 400.537 37.347 401.741C36.8595 402.261 37.1195 402.749 37.7371 403.107C39.2323 404.05 39.4273 405.156 38.0297 406.359C37.3282 406.847 36.7023 407.441 36.1769 408.116C37.1982 408.107 38.1922 408.441 39.0048 409.059C39.159 409.178 39.2837 409.33 39.3706 409.504C39.4575 409.679 39.503 409.872 39.503 410.067C39.503 410.262 39.4575 410.454 39.3706 410.628C39.2837 410.805 39.159 410.956 39.0048 411.075C38.2897 411.693 36.5345 412.344 36.1444 412.897C37.691 413.929 39.3759 414.739 41.15 415.304V415.434ZM1.72272 392.927C3.05536 398.358 32.309 411.466 34.3892 412.441C34.7468 411.173 36.7945 410.555 37.6396 409.937C36.7295 409.449 34.9093 409.644 34.5517 408.506C34.1942 407.368 36.7295 405.481 37.3145 404.733C36.762 404.213 34.7793 403.27 35.6569 401.481C36.0552 400.808 36.6562 400.28 37.3766 399.968C38.0947 399.659 38.8913 399.586 39.6548 399.757H40.1424C39.4273 398.846 38.2572 397.675 39.3298 396.895C40.4024 396.114 41.1175 396.895 41.6701 395.821C38.5822 396.212 36.0469 396.635 34.0967 397.057C34.0317 397.066 33.9637 397.063 33.9016 397.044C33.8396 397.025 33.7799 396.992 33.7308 396.949C33.6824 396.905 33.6416 396.852 33.6174 396.792C33.5902 396.732 33.5766 396.667 33.5766 396.602C33.5766 397.903 34.4867 389.089 29.8712 388.048C27.8098 387.831 25.7272 388.124 23.8065 388.899C21.8835 389.677 20.1826 390.916 18.8523 392.504C18.7766 392.599 18.6738 392.672 18.5598 392.71C18.4434 392.751 18.3217 392.759 18.2023 392.732C16.9996 392.504 7.02087 390.455 3.02289 391.918C2.56781 391.886 1.62518 392.341 1.72272 392.797V392.927Z" fill="white"/>
</svg>
