<svg width="58" height="68" viewBox="0 0 58 68" fill="none" xmlns="http://www.w3.org/2000/svg">
<path d="M39.3364 16.5822V15.2112C39.3364 14.9872 39.2098 14.7824 39.0095 14.6822C38.6568 14.5059 38.2337 14.7175 38.1631 15.1054L37.9179 16.4543C37.8465 16.8468 38.1103 17.2219 38.5038 17.2875C38.9397 17.3601 39.3364 17.024 39.3364 16.5822Z" fill="white"/>
<path d="M47.336 16.7585V15.1255C47.336 14.9495 47.4188 14.7838 47.5596 14.6782C47.9112 14.4145 48.4156 14.641 48.4521 15.079L48.5877 16.7064C48.6106 16.981 48.4516 17.2383 48.1958 17.3406C47.7839 17.5053 47.336 17.202 47.336 16.7585Z" fill="white"/>
<path d="M55.0774 20.2651C55.0774 20.2651 55.2417 19.1651 55.3354 18.4587C55.5886 16.5501 56.489 15.3724 55.8515 13.5557C55.5825 12.7891 54.9537 12.5506 54.8193 11.7494C54.7014 11.0466 55.0551 10.6552 55.0774 9.94298C55.1059 9.03086 54.7001 8.52525 54.8193 7.6205C54.9318 6.76685 55.4551 6.40592 55.5935 5.55608C55.7068 4.85981 55.6599 4.452 55.5935 3.7497C55.506 2.82472 56.0063 1.44411 55.0774 1.42722C54.7587 1.42143 54.6019 1.57431 54.3032 1.68528C52.3903 2.39577 51.8921 4.01397 49.9163 4.52386C48.355 4.92677 47.3991 4.4736 45.7874 4.52386C44.1727 4.57423 43.2736 4.82307 41.6586 4.78191C39.5215 4.72746 37.1464 4.71319 36.2395 4.00775C35.3325 3.30232 34.824 2.90681 33.917 2.20138C33.01 1.49595 32.5737 0.628347 31.8526 1.16917C31.492 1.43958 31.4856 1.7761 31.3364 2.20138C31.1336 2.77983 31.0926 3.13687 31.0784 3.7497C31.0618 4.4621 31.2122 4.85439 31.3364 5.55608C31.4984 6.47096 31.877 6.94977 31.8526 7.87856C31.8307 8.70929 31.376 9.1129 31.3364 9.94298C31.2876 10.9695 32.1982 11.5557 31.8526 12.5235C31.5649 13.3288 30.6218 13.2779 30.3042 14.0718C30.0048 14.8204 30.1871 15.3386 30.3042 16.1363C30.4108 16.8621 30.6718 17.2242 30.8203 17.9426C31.0456 19.0327 31.1536 19.6707 31.0784 20.7812C30.9942 22.0249 30.3785 22.6335 30.3042 23.8779C30.1935 25.7328 31.5326 26.675 31.3364 28.5228C31.1507 30.273 30.3007 31.0694 29.5301 32.6517C29.3327 33.0569 29.1117 33.2439 29.014 33.6839C28.9265 34.0774 29.097 34.3216 29.014 34.7161C28.8643 35.4272 28.4778 35.7333 27.9818 36.2644C27.5413 36.736 27.0509 36.7607 26.6915 37.2966C26.1273 38.1377 26.6284 38.8833 26.4334 39.8772C26.2309 40.9096 25.8654 41.4259 25.6593 42.4577C25.5001 43.2544 25.502 43.7159 25.4012 44.5221C25.3004 45.3283 25.1289 45.7742 25.1432 46.5866C25.1612 47.6141 25.4251 48.1664 25.6593 49.1671C25.9211 50.2859 25.9196 50.978 26.4334 52.0057C26.7584 52.6557 27.0429 52.9629 27.4656 53.554C27.7587 53.9639 27.9908 54.1482 28.2398 54.5862C28.508 55.058 28.6518 55.3439 28.7559 55.8765C28.8631 56.4248 28.9008 56.7675 28.7559 57.3071C28.6866 57.5652 28.5152 57.6742 28.4979 57.9409C28.4772 58.2589 28.6696 58.4083 28.7559 58.7151C28.895 59.2097 28.7333 59.5749 29.014 60.0053C29.1697 60.2441 29.3131 60.3366 29.5301 60.5214C29.9774 60.9025 30.2345 61.2505 30.8203 61.2956C31.2346 61.3275 31.5666 61.339 31.8526 61.0375C32.0076 60.8741 31.9174 60.6374 32.1106 60.5214C32.3839 60.3575 32.567 60.755 32.8848 60.7795C33.2991 60.8114 33.5664 60.7445 33.917 60.5214C34.1575 60.3684 34.2148 60.1887 34.4331 60.0053C34.7113 59.7716 34.9932 59.7829 35.2072 59.4892C35.3949 59.2317 35.4653 58.7151 35.4653 58.7151" stroke="white"/>
<path d="M46.0455 15.8781C45.912 16.2585 45.8455 16.5603 46.0455 16.9103C46.2257 17.2258 46.4774 17.3042 46.8196 17.4264C47.2941 17.5959 47.621 17.5486 48.1099 17.4264C48.5471 17.3171 48.8129 17.2181 49.1421 16.9103C49.4075 16.6622 49.5626 16.4867 49.6582 16.1361C49.7378 15.8445 49.7054 15.6606 49.6582 15.362C49.6085 15.0472 49.6084 14.829 49.4002 14.5878C49.0643 14.1989 48.6056 14.4527 48.1099 14.5879C47.7593 14.6835 47.6316 14.635 47.3357 14.8459C46.8103 15.2204 46.2591 15.2692 46.0455 15.8781Z" stroke="white" stroke-width="0.5"/>
<path d="M40.6263 15.8784C40.7761 16.2527 40.8263 16.5607 40.6263 16.9107C40.4461 17.2261 40.1983 17.316 39.8522 17.4268C39.4683 17.5496 39.2166 17.4989 38.82 17.4268C38.5064 17.3698 38.3225 17.3268 38.0458 17.1687C37.6746 16.9566 37.5401 16.7274 37.2717 16.3945C37.0436 16.1117 36.8663 15.9665 36.7555 15.6204C36.6327 15.2365 36.4877 14.8895 36.7555 14.5882C36.9053 14.4198 37.0563 14.3964 37.2717 14.3301C37.6569 14.2116 37.9186 14.2116 38.3039 14.3301C38.5192 14.3964 38.6184 14.4874 38.82 14.5882C39.2231 14.7897 39.4877 14.8392 39.8522 15.1043C40.198 15.3558 40.4676 15.4815 40.6263 15.8784Z" stroke="white" stroke-width="0.5"/>
<path d="M24.6271 41.4254C24.6271 41.4254 21.1688 41.2165 18.95 41.1673C16.8342 41.1204 13.5308 41.1673 13.5308 41.1673C13.5308 41.1673 11.6878 40.865 10.1762 41.1673C8.66451 41.4697 7.81699 41.6392 6.30535 41.9415C4.79371 42.2438 4.232 42.9738 3.20871 44.0059C2.34262 44.8795 1.82733 45.4321 1.40234 46.5864C0.948377 47.8195 0.902964 48.6495 1.14428 49.9411C1.36792 51.1381 1.69818 51.8099 2.43455 52.7797C3.34869 53.9836 4.32188 54.1952 5.53119 55.1022C5.9343 55.4045 6.09163 55.6994 6.5634 55.8764C8.18674 56.4854 8.35457 53.8073 9.14394 52.2636C9.63809 51.2972 9.41076 50.4527 10.1762 49.6831C11.0079 48.8467 11.8657 48.9176 13.0147 48.6509C14.5885 48.2856 15.5289 48.4447 17.1436 48.3928C18.8559 48.3378 19.8345 48.1505 21.5305 48.3928C22.7645 48.5691 24.6271 49.167 24.6271 49.167" stroke="white"/>
<path d="M43.723 22.8668C42.6553 22.6714 41.1425 23.899 41.1425 23.899C41.1425 23.899 42.6837 23.1832 43.723 23.3618C44.5278 23.5001 45.5294 24.157 45.5294 24.157C45.5294 24.157 44.5757 23.0228 43.723 22.8668Z" fill="white"/>
<path d="M55.0774 20.7812C55.0774 20.7812 56.7977 23.1037 56.1096 25.1682C55.4214 27.2326 54.0452 28.9742 54.0452 31.6195C54.0452 34.2647 55.5066 35.4952 56.1096 38.0708C56.7366 40.7491 57.2071 42.2884 57.1418 45.0383C57.1032 46.6628 57.1328 47.6233 56.6257 49.1671C56.1613 50.5807 55.5948 51.2519 54.8193 52.5218C53.5798 54.5517 52.1519 55.2423 51.2066 57.4248C50.5848 58.8604 49.8589 59.7633 50.1744 61.2956C50.3561 62.1785 51.1279 62.4621 51.2066 63.36C51.2601 63.9707 51.2535 64.3766 50.9485 64.9084C50.6275 65.4681 50.2414 65.6643 49.6583 65.9406C48.8335 66.3312 48.2482 66.1804 47.3358 66.1986C46.2229 66.2209 45.3921 66.6025 44.4972 65.9406C43.9129 65.5084 43.465 64.3923 43.465 64.3923C43.465 64.3923 43.4263 61.8754 43.465 60.2634C43.511 58.3466 43.1898 57.2022 43.723 55.3604C44.0617 54.1907 44.6587 53.6867 45.0133 52.5218C45.3993 51.2538 45.5294 49.1671 45.5294 49.1671" stroke="white"/>
<path d="M52.7551 47.8767L51.9809 51.2314L50.4326 54.8441L49.1423 57.6827L49.6584 59.7472" stroke="white"/>
<path d="M49.1422 66.1987L48.8841 64.1343M46.0455 66.1987L45.7875 64.1343" stroke="white"/>
<path d="M40.3683 66.7146L40.1237 64.3442M37.7878 66.1985L37.5432 63.8281" stroke="white"/>
<path d="M33.7413 60.5213L33.4967 58.151M31.0783 61.2955L30.5623 58.4569" stroke="white"/>
<path d="M43.2071 65.4244C43.2071 65.4244 42.8297 66.1459 42.433 66.4566C42.0057 66.7912 41.6717 67.0938 41.1427 66.9727C40.9231 66.9224 40.6266 66.7146 40.6266 66.7146C40.6266 66.7146 39.4975 66.9122 38.8202 66.7146C38.3876 66.5885 38.1871 66.408 37.788 66.1985C37.0687 65.8209 36.3864 65.8708 35.9816 65.1663C35.8229 64.89 35.8048 64.7003 35.7236 64.3922C35.4015 63.1693 35.6478 62.4163 35.7236 61.154C35.781 60.1979 35.9831 59.6728 35.9816 58.7149C35.9792 57.0744 35.6107 56.1763 35.2075 54.5861C34.7375 52.7326 34.1789 51.7812 33.6592 49.9411C33.3204 48.7415 32.885 46.8445 32.885 46.8445" stroke="white"/>
<path d="M42.949 19.8744C42.5372 19.93 41.9167 20.1324 41.9167 20.1324C41.9167 20.1324 42.6135 21.7582 43.4651 21.6808C44.1747 21.6162 44.7553 20.3905 44.7553 20.3905C44.7553 20.3905 44.4884 20.0128 44.2392 19.8744C43.7988 19.6297 43.4483 19.8069 42.949 19.8744Z" fill="white" fill-opacity="0.3" stroke="white" stroke-width="0.5"/>
<circle cx="42.9492" cy="21.1648" r="0.258053" fill="white"/>
<circle cx="43.9812" cy="21.1648" r="0.258053" fill="white"/>
<g opacity="0.4">
<path d="M46.3618 20.7581C47.3628 20.6846 48.4942 20.9245 49.4869 21.031C50.2242 21.1101 50.9578 21.3348 51.6932 21.3811C52.1345 21.4089 52.59 21.4862 53.018 21.5926C53.7434 21.773 54.6094 21.7335 55.2317 22.16C55.6266 22.4307 56.068 22.5756 56.5037 22.7593C56.8122 22.8894 57.0718 23.1352 57.4103 23.1531" stroke="white" stroke-width="0.5" stroke-linecap="round"/>
<path d="M40.3205 20.7581C39.3195 20.6846 38.1881 20.9245 37.1954 21.031C36.4582 21.1101 35.7245 21.3348 34.9891 21.3811C34.5478 21.4089 34.0923 21.4862 33.6643 21.5926C32.9389 21.773 32.0729 21.7335 31.4506 22.16C31.0558 22.4307 30.6143 22.5756 30.1786 22.7593C29.8701 22.8894 29.6106 23.1352 29.2721 23.1531" stroke="white" stroke-width="0.5" stroke-linecap="round"/>
<path d="M46.3036 21.2432C46.3799 21.5358 47.1384 21.5984 47.364 21.6387C48.0541 21.7623 48.7677 21.8643 49.4499 22.0226C50.1802 22.192 50.9217 22.3516 51.6515 22.5351C53.7706 23.0678 56.0449 23.452 57.3872 25.38" stroke="white" stroke-width="0.5" stroke-linecap="round"/>
<path d="M40.3786 21.2432C40.3023 21.5358 39.5438 21.5984 39.3182 21.6387C38.6281 21.7623 37.9145 21.8643 37.2323 22.0226C36.502 22.192 35.7604 22.3516 35.0307 22.5351C32.9116 23.0678 30.6373 23.452 29.295 25.38" stroke="white" stroke-width="0.5" stroke-linecap="round"/>
<path d="M46.3036 22.0547C46.5963 22.2373 46.945 22.3323 47.2667 22.4483C48.4043 22.8584 49.5264 23.3037 50.6081 23.8462C51.0711 24.0784 51.4636 24.3938 51.9737 24.5047" stroke="white" stroke-width="0.5" stroke-linecap="round"/>
<path d="M40.3786 22.0547C40.0859 22.2373 39.7372 22.3323 39.4155 22.4483C38.2779 22.8584 37.1558 23.3037 36.074 23.8462C35.6111 24.0784 35.2186 24.3938 34.7084 24.5047" stroke="white" stroke-width="0.5" stroke-linecap="round"/>
</g>
<path d="M32.885 23.8777C32.885 24.4231 33.3613 24.9388 33.6381 25.3712C33.9993 25.9355 34.6746 26.1871 35.2551 26.4598C35.8817 26.7541 36.4766 27.1171 37.1189 27.3774C37.6888 27.6085 37.7362 27.5123 38.3041 27.7485C38.5742 27.8608 39.3294 27.9266 39.5944 28.0229C40.2496 28.2612 41.4694 28.0229 42.1749 28.0229" stroke="white" stroke-width="0.5" stroke-linecap="square"/>
<path d="M54.0603 24.3938C53.7174 24.8464 53.2781 25.2407 52.8642 25.6152C52.4406 25.9985 51.9468 26.262 51.5162 26.6246C50.9524 27.0994 50.3006 27.2225 49.6208 27.441C49.0453 27.626 48.4625 27.8682 47.8519 27.8682" stroke="white" stroke-width="0.5" stroke-linecap="square"/>
<path d="M38.8307 47.915C38.8307 48.5485 38.7001 49.1536 38.8453 49.7827C38.8937 49.9925 38.896 50.2043 38.962 50.4101C39.044 50.6657 39.1969 50.8545 39.2903 51.0996C39.4099 51.4135 39.6413 51.6691 39.7755 51.9787C39.9048 52.2771 39.9561 52.6026 40.0928 52.8979C40.2345 53.204 40.3139 53.5301 40.3701 53.861C40.4344 54.2402 40.5978 54.5977 40.6619 54.9662C40.7872 55.6871 41.0749 56.3866 41.1945 57.1039C41.2597 57.4953 41.23 57.9679 41.3404 58.3405C41.4577 58.7363 41.5611 59.0855 41.5921 59.5041C41.6187 59.8642 41.6552 60.2325 41.7197 60.5875C41.7782 60.9092 41.7303 61.259 41.8 61.5724C41.8704 61.8891 41.9099 62.2219 41.9787 62.5318C42.047 62.8389 41.9675 63.182 42.0626 63.4912C42.1856 63.8909 42.3107 64.3187 42.3107 64.7387C42.3107 65.1781 42.548 65.4211 42.836 65.709" stroke="white" stroke-linecap="square"/>
</svg>
