<svg width="83" height="15" viewBox="0 0 83 15" fill="none" xmlns="http://www.w3.org/2000/svg">
<path d="M10.8649 5.00344C11.2478 5.11284 11.6216 5.29518 11.9862 5.55045C12.3509 5.78749 12.6609 6.09746 12.9162 6.48036C13.1714 6.84503 13.3629 7.28264 13.4905 7.79318C13.6364 8.30372 13.682 8.86896 13.6273 9.4889C13.5908 9.98121 13.4449 10.4917 13.1897 11.0205C12.9526 11.5493 12.5971 12.0325 12.123 12.4701C11.6672 12.9077 11.0837 13.2724 10.3726 13.5641C9.66146 13.8558 8.82272 14.0017 7.85634 14.0017C6.90819 14.0017 5.98739 13.8832 5.09395 13.6462C4.21874 13.4091 3.42558 13.0353 2.71447 12.5248C2.02159 11.996 1.45635 11.3305 1.01874 10.5282C0.599371 9.72594 0.371452 8.75956 0.334985 7.62908C0.298517 6.44389 0.508204 5.42281 0.964043 4.56584C1.43812 3.70886 2.03071 3.00686 2.74182 2.45986C3.45293 1.89462 4.23697 1.46613 5.09395 1.17439C5.95093 0.882652 6.75321 0.71855 7.50078 0.682082C8.08426 0.645616 8.69508 0.700317 9.33326 0.846185C9.98967 0.97382 10.6005 1.21086 11.1657 1.55729C11.7492 1.90373 12.2415 2.35957 12.6427 2.92481C13.062 3.49005 13.3173 4.18293 13.4085 5.00344H11.4666H10.8649ZM6.27002 1.01029C5.3401 1.19262 4.57429 1.63935 3.97258 2.35046C3.38911 3.04333 2.96974 3.85473 2.71447 4.78464H11.4392C11.3481 4.18293 11.1475 3.62681 10.8375 3.11627C10.5458 2.60573 10.172 2.17724 9.71616 1.8308C9.26032 1.46613 8.74067 1.21086 8.15719 1.06499C7.57372 0.900886 6.94466 0.882653 6.27002 1.01029ZM13.3811 9.5436C13.4723 8.83249 13.4267 8.19432 13.2444 7.62908C13.062 7.06384 12.7976 6.58976 12.4512 6.20686C12.123 5.82395 11.7219 5.53222 11.2478 5.33165C10.7737 5.11284 10.2723 5.00344 9.74351 5.00344H2.65977C2.47743 5.73278 2.4045 6.48036 2.44096 7.24617C2.47743 8.01198 2.61418 8.72309 2.85122 9.3795C3.36176 10.82 4.10934 11.8684 5.09395 12.5248C6.0968 13.163 7.30021 13.4547 8.7042 13.4C9.28767 13.3635 9.8438 13.245 10.3726 13.0445C10.9196 12.8439 11.4028 12.5704 11.8221 12.2239C12.2415 11.8775 12.588 11.4764 12.8615 11.0205C13.135 10.5647 13.3082 10.0724 13.3811 9.5436Z" fill="white"/>
<path d="M38.2868 12.0325C38.3415 12.5248 38.4327 12.8895 38.5603 13.1265C38.688 13.3453 38.8521 13.5185 39.0526 13.6462V13.8376H35.6885V13.6462C35.8891 13.5185 36.0259 13.3362 36.0988 13.0992C36.1717 12.8439 36.19 12.4883 36.1535 12.0325C36.1353 11.8866 36.1079 11.6496 36.0715 11.3214C36.0532 10.9749 36.0168 10.5829 35.9621 10.1453C35.9256 9.70771 35.8891 9.24275 35.8526 8.75044C35.8162 8.25814 35.7706 7.78406 35.7159 7.32822C35.6794 6.85415 35.643 6.42566 35.6065 6.04276C35.57 5.64162 35.5427 5.32253 35.5244 5.08549C35.4697 4.57495 35.3695 4.06441 35.2236 3.55387C35.096 3.0251 34.9045 2.56926 34.6492 2.18635C34.4122 1.80345 34.1022 1.51171 33.7193 1.31114C33.3546 1.11057 32.9079 1.06499 32.3792 1.17439C31.7592 1.30202 31.2578 1.63935 30.8749 2.18635C30.492 2.73336 30.2002 3.38065 29.9997 4.12823C29.7991 4.87581 29.6623 5.66897 29.5894 6.50771C29.5347 7.34646 29.5074 8.12138 29.5074 8.83249V12.0325C29.5074 12.5066 29.5529 12.8621 29.6441 13.0992C29.7535 13.3362 29.9085 13.5185 30.1091 13.6462V13.8376H26.745V13.6462C26.9455 13.5185 27.0914 13.3362 27.1826 13.0992C27.292 12.8621 27.3467 12.5066 27.3467 12.0325V5.08549C27.3467 4.55672 27.2829 4.03706 27.1552 3.52652C27.0458 3.01598 26.8635 2.56926 26.6082 2.18635C26.353 1.80345 26.0247 1.51171 25.6236 1.31114C25.2407 1.11057 24.7849 1.06499 24.2561 1.17439C23.4903 1.32026 22.8886 1.73963 22.451 2.43251C22.0316 3.12538 21.7125 3.92766 21.4937 4.83934C21.2931 5.73279 21.1655 6.63535 21.1108 7.54703C21.0743 8.4587 21.0561 9.20628 21.0561 9.78976V12.0325C21.0561 12.5066 21.1108 12.8621 21.2202 13.0992C21.3296 13.3362 21.4846 13.5185 21.6852 13.6462V13.8376H18.2937V13.6462C18.4943 13.5185 18.6493 13.3362 18.7587 13.0992C18.8681 12.8621 18.9228 12.5066 18.9228 12.0325V2.78806C18.9228 2.31399 18.8863 1.98578 18.8134 1.80345C18.7404 1.62111 18.5672 1.51171 18.2937 1.47524V1.28379L20.8646 0.682082H21.0561V6.75387C21.129 6.02452 21.2476 5.30429 21.4117 4.59318C21.5758 3.86384 21.8219 3.21655 22.1501 2.65131C22.4783 2.06784 22.9068 1.59376 23.4356 1.22909C23.9644 0.864418 24.639 0.682082 25.4595 0.682082C25.9883 0.682082 26.4897 0.791484 26.9638 1.01029C27.4379 1.22909 27.8572 1.54818 28.2219 1.96755C28.5866 2.36869 28.8783 2.87011 29.0971 3.47182C29.3341 4.07353 29.4618 4.74817 29.48 5.49575L29.5074 5.7966C29.5985 5.14019 29.7262 4.50202 29.8903 3.88208C30.0726 3.26213 30.3188 2.71513 30.6287 2.24105C30.9569 1.76698 31.3581 1.39319 31.8321 1.11969C32.3245 0.827951 32.917 0.682082 33.6099 0.682082C34.7039 0.682082 35.6065 1.08322 36.3176 1.8855C37.0287 2.68778 37.4663 3.89119 37.6304 5.49575C37.7034 6.15216 37.7763 6.81768 37.8492 7.49233C37.9222 8.16697 37.986 8.79603 38.0407 9.3795C38.0954 9.96298 38.141 10.4917 38.1774 10.9658C38.2321 11.4217 38.2686 11.7772 38.2868 12.0325Z" fill="white"/>
<path d="M52.1144 13.5094C52.8984 13.2906 53.5366 12.9259 54.0289 12.4154C54.5394 11.8866 54.9132 11.2849 55.1503 10.6103C55.3873 9.91739 55.4967 9.1607 55.4785 8.34019C55.4785 7.51968 55.3599 6.69916 55.1229 5.87865C54.8859 5.05814 54.5486 4.31057 54.1109 3.63592C53.6916 2.96128 53.1902 2.40516 52.6067 1.96755C52.0414 1.52994 51.4033 1.23821 50.6922 1.09234C49.9993 0.928236 49.2608 0.955586 48.4768 1.17439C47.6927 1.39319 47.0454 1.76698 46.5349 2.29575C46.0426 2.80629 45.6779 3.408 45.4409 4.10088C45.2038 4.77552 45.0853 5.5231 45.0853 6.34361C45.1036 7.16412 45.2312 7.98463 45.4682 8.80514C45.7053 9.62565 46.0335 10.3823 46.4528 11.0752C46.8904 11.7499 47.3919 12.306 47.9571 12.7436C48.5406 13.1812 49.1788 13.4821 49.8716 13.6462C50.5828 13.792 51.3303 13.7464 52.1144 13.5094ZM50.5827 0.682082C51.4944 0.682082 52.3605 0.827951 53.181 1.11969C54.0198 1.39319 54.7491 1.79433 55.3691 2.3231C56.0072 2.83365 56.5087 3.4627 56.8733 4.21028C57.238 4.95786 57.4203 5.80572 57.4203 6.75387C57.4203 7.84788 57.2015 8.84161 56.7639 9.73506C56.3446 10.6285 55.7884 11.3943 55.0956 12.0325C54.4027 12.6524 53.6095 13.1356 52.7161 13.4821C51.8226 13.8285 50.9201 14.0017 50.0084 14.0017C49.0785 14.0017 48.2033 13.865 47.3828 13.5915C46.5622 13.318 45.8329 12.9259 45.1947 12.4154C44.5748 11.8866 44.0825 11.2484 43.7178 10.5009C43.3531 9.73506 43.1708 8.87808 43.1708 7.92993C43.1708 6.79945 43.3805 5.78749 43.7999 4.89404C44.2375 4.00059 44.8027 3.2439 45.4956 2.62396C46.2067 1.98578 46.9999 1.50259 47.8751 1.17439C48.7685 0.846185 49.6711 0.682082 50.5827 0.682082Z" fill="white"/>
<path d="M74.8103 12.0325C74.865 12.5248 74.9561 12.8895 75.0838 13.1265C75.2114 13.3453 75.3755 13.5185 75.5761 13.6462V13.8376H72.1846V13.6462C72.4034 13.5185 72.5402 13.3362 72.5949 13.0992C72.6678 12.8439 72.6861 12.4883 72.6496 12.0325C72.6313 11.8866 72.604 11.6496 72.5675 11.3214C72.5493 10.9749 72.5219 10.5829 72.4855 10.1453C72.449 9.70771 72.4034 9.24275 72.3487 8.75044C72.3123 8.25814 72.2667 7.78406 72.212 7.32822C72.1755 6.85415 72.139 6.42566 72.1026 6.04276C72.0661 5.64162 72.0388 5.32253 72.0205 5.08549C71.9658 4.57495 71.8564 4.06441 71.6923 3.55387C71.5464 3.0251 71.3276 2.56926 71.0359 2.18635C70.7624 1.80345 70.4069 1.51171 69.9692 1.31114C69.5499 1.11057 69.0484 1.06499 68.465 1.17439C67.9544 1.26556 67.5077 1.49348 67.1248 1.85815C66.7601 2.22282 66.441 2.66043 66.1675 3.17097C65.894 3.68151 65.6661 4.24675 65.4838 4.86669C65.3197 5.4684 65.1829 6.07011 65.0735 6.67181C64.9824 7.27352 64.9185 7.84788 64.8821 8.39489C64.8456 8.94189 64.8274 9.40685 64.8274 9.78976V12.0325C64.8274 12.5066 64.873 12.8621 64.9641 13.0992C65.0735 13.3362 65.2376 13.5185 65.4564 13.6462V13.8376H62.065V13.6462C62.2656 13.5185 62.4114 13.3362 62.5026 13.0992C62.612 12.8621 62.6667 12.5066 62.6667 12.0325V2.78806C62.6667 2.31399 62.6302 1.98578 62.5573 1.80345C62.4844 1.62111 62.3203 1.51171 62.065 1.47524V1.28379L64.6359 0.682082H64.8274V7.46497C64.9185 6.69916 65.0553 5.91512 65.2376 5.11284C65.42 4.31057 65.6843 3.58122 66.0308 2.92481C66.3955 2.2684 66.8695 1.73051 67.453 1.31114C68.0365 0.891769 68.7749 0.682082 69.6684 0.682082C70.2336 0.682082 70.7624 0.782367 71.2547 0.982937C71.7653 1.16527 72.2211 1.45701 72.6222 1.85815C73.0234 2.25929 73.3607 2.76071 73.6342 3.36242C73.9077 3.96413 74.0809 4.67524 74.1539 5.49575C74.2268 6.15216 74.2906 6.81768 74.3453 7.49233C74.4182 8.16697 74.4821 8.79603 74.5368 9.3795C74.5915 9.96298 74.6462 10.4917 74.7009 10.9658C74.7556 11.4217 74.792 11.7772 74.8103 12.0325Z" fill="white"/>
<path d="M81.4485 11.0205C81.8679 11.0205 82.2143 11.1664 82.4878 11.4581C82.7795 11.7316 82.9254 12.0781 82.9254 12.4974C82.9254 12.9168 82.7795 13.2724 82.4878 13.5641C82.2143 13.8558 81.8679 14.0017 81.4485 14.0017C81.0291 14.0017 80.6736 13.8558 80.3818 13.5641C80.0901 13.2724 79.9442 12.9168 79.9442 12.4974C79.9442 12.0781 80.0901 11.7316 80.3818 11.4581C80.6736 11.1664 81.0291 11.0205 81.4485 11.0205Z" fill="white"/>
</svg>
