<svg width="87" height="47" viewBox="0 0 87 47" fill="none" xmlns="http://www.w3.org/2000/svg">
<path d="M49.9336 32.9629L52.2561 19.7817H62.2387L61.6479 23.1432H55.475L55.1083 25.1805H61.2812L60.6904 28.542H54.5378L53.7433 32.9425H49.9336V32.9629Z" fill="#4EE0DD"/>
<path d="M62.1777 32.9629L64.541 19.7817H68.3914L66.0282 32.9629H62.1777Z" fill="#4EE0DD"/>
<path d="M71.6711 32.9629L73.4232 23.1432H70.082L70.6525 19.7817H81.2259L80.6351 23.1432H77.2532L75.5012 32.9629H71.6711Z" fill="#4EE0DD"/>
<path d="M44.8805 21.9824H38.6465C38.6465 27.2182 42.5377 31.5983 47.7531 32.6985L48.894 26.2199C46.5715 25.7106 44.8805 23.9993 44.8805 21.9824Z" fill="#F95286"/>
<path d="M50.3206 10.9809C49.1797 10.9809 48.0796 11.1439 47.0405 11.4291L47.9166 6.51927H59.0808L60.2217 0H42.3752L38.8711 19.7819V19.8023H45.5941C46.5312 18.4781 48.2833 17.602 50.3002 17.602H60.9958C59.2031 13.7108 55.0878 10.9809 50.3206 10.9809Z" fill="#F95286"/>
<path d="M62.463 0L61.3018 6.53963H64.6225L65.7837 0H62.463Z" fill="#F95286"/>
<path d="M38.0967 11.5716C39.1357 5.39869 34.2463 0.0610352 27.8085 0.0610352C20.2502 0.0610352 15.9312 4.40042 14.7292 11.0216L21.4522 11.0012C22.043 8.43422 24.0803 6.60068 27.0751 6.60068C30.0699 6.60068 31.9646 8.47497 31.5164 11.0012C30.3144 17.8057 14.9533 16.2981 13.1198 26.8715L12.04 32.9833H14.2607H18.9871H35.489L36.6299 26.3826H21.2689C22.1042 21.4728 36.0391 23.7138 38.0967 11.5716Z" fill="#F95286"/>
<path d="M3.78932 46.4091H0L0.203727 45.4516L2.0169 43.8218C2.62808 43.2717 2.95404 42.8235 2.95404 42.4568C2.95404 42.3346 2.9133 42.2327 2.85218 42.1716C2.79106 42.1105 2.70957 42.0697 2.60771 42.0697C2.30212 42.0697 1.95578 42.2531 1.54833 42.6198L0.855653 41.6419C1.44646 41.0919 2.11876 40.8066 2.89292 40.8066C3.34112 40.8066 3.72821 40.9289 3.99305 41.1733C4.27827 41.4178 4.42088 41.7642 4.42088 42.192C4.42088 42.5791 4.31901 42.9254 4.09491 43.2717C3.87081 43.5977 3.50411 44.0052 2.97442 44.4534L2.20025 45.1053V45.146H4.0338L3.78932 46.4091Z" fill="#003B5D"/>
<path d="M7.15118 42.8234C7.59938 42.8234 7.96609 42.966 8.25131 43.2716C8.53653 43.5568 8.67914 43.9642 8.67914 44.4532C8.67914 45.1051 8.47541 45.6144 8.06796 45.9608C7.6605 46.3071 7.09007 46.4905 6.3159 46.4905C5.98994 46.4905 5.68435 46.4701 5.39913 46.409C5.11391 46.3479 4.88981 46.2867 4.76758 46.1849V44.9625C4.97131 45.0847 5.1954 45.1662 5.43988 45.2274C5.70472 45.2885 5.92882 45.3292 6.13255 45.3292C6.82522 45.3292 7.17156 45.0847 7.17156 44.6162C7.17156 44.4328 7.11044 44.2698 6.9882 44.1476C6.86597 44.0254 6.68261 43.9643 6.47888 43.9643C6.33628 43.9643 6.21404 43.9846 6.07143 44.005C5.92882 44.0254 5.80659 44.0661 5.7251 44.0865L5.25652 43.7401L6.07143 40.9287H9.12734L8.86249 42.1511H7.09007L6.86597 42.8438C6.94746 42.8234 7.04932 42.8234 7.15118 42.8234Z" fill="#003B5D"/>
<path d="M13.3642 46.4093V42.4774H13.3438C13.1808 43.5164 13.0586 44.1683 13.0178 44.3924L12.59 46.4093H11.2861L12.4474 40.9087H14.4032V44.7999H14.4235L16.2163 40.9087H18.1925L17.0109 46.4093H15.6866L16.1348 44.3517C16.2571 43.7812 16.3997 43.2312 16.5423 42.7219L16.6034 42.4774H16.583L14.7699 46.4093H13.3642Z" fill="#003B5D"/>
<path d="M18.2539 46.4093L19.4151 40.9087H20.9024L19.7411 46.4093H18.2539Z" fill="#003B5D"/>
<path d="M25.8322 46.4093H24.1209L23.0412 42.5385H23.0208C22.9393 43.2719 22.8782 43.7812 22.7967 44.1072L22.3078 46.4093H21.0039L22.1652 40.9087H23.8765L24.9562 44.5961H24.997C25.0785 44.0053 25.1396 43.5368 25.2211 43.2108L25.71 40.9087H27.0139L25.8322 46.4093Z" fill="#003B5D"/>
<path d="M32.4132 40.9287L31.6594 44.4328C31.5168 45.1459 31.2316 45.6552 30.8037 46.0015C30.3963 46.3478 29.8259 46.5108 29.1128 46.5108C28.7868 46.5108 28.4813 46.4497 28.2164 46.3071C27.9516 46.1645 27.7682 45.9811 27.6256 45.7367C27.483 45.4922 27.4219 45.207 27.4219 44.9014C27.4219 44.7384 27.4422 44.5754 27.4626 44.4124L28.2164 40.9491H29.6832L28.9498 44.3717C28.9091 44.5347 28.8887 44.6773 28.8887 44.7995C28.8887 45.1255 29.0313 45.2681 29.3369 45.2681C29.5814 45.2681 29.7647 45.1866 29.887 45.0236C30.0296 44.8606 30.1314 44.6162 30.1926 44.2902L30.9056 40.9287H32.4132Z" fill="#003B5D"/>
<path d="M34.7149 46.4093H33.2481L34.1445 42.1311H32.9629L33.2277 40.9087H37.0985L36.8337 42.1311H35.6317L34.7149 46.4093Z" fill="#003B5D"/>
<path d="M39.9911 46.4093H36.7314L37.8927 40.9087H41.1523L40.9079 42.0903H39.1151L38.9317 42.946H40.6023L40.3374 44.1276H38.6669L38.4428 45.1666H40.2356L39.9911 46.4093Z" fill="#003B5D"/>
<path d="M44.5959 44.7185C44.5959 45.2685 44.4126 45.7167 44.0458 46.0223C43.6791 46.3279 43.1698 46.4909 42.4975 46.4909C42.2123 46.4909 41.9678 46.4502 41.7233 46.4094C41.4789 46.3483 41.2752 46.2668 41.0918 46.1446V44.8203C41.2955 44.9629 41.54 45.0648 41.8048 45.1463C42.0697 45.2278 42.3142 45.2889 42.5383 45.2889C42.7216 45.2889 42.8642 45.2482 42.9661 45.1667C43.068 45.0852 43.1087 44.9833 43.1087 44.8407C43.1087 44.7796 43.0883 44.7185 43.068 44.6574C43.0476 44.5962 42.9865 44.5351 42.9457 44.474C42.905 44.4129 42.742 44.2906 42.4975 44.0869C42.2123 43.8424 41.9882 43.6183 41.866 43.3739C41.7233 43.1294 41.6622 42.8646 41.6622 42.559C41.6622 42.233 41.7437 41.9274 41.9067 41.6829C42.0697 41.4181 42.2938 41.2144 42.5994 41.0718C42.905 40.9291 43.2309 40.8477 43.5976 40.8477C44.1885 40.8477 44.7385 40.9903 45.2071 41.2551L44.6978 42.3756C44.2699 42.1515 43.9032 42.0496 43.5976 42.0496C43.4347 42.0496 43.3124 42.0904 43.2309 42.1515C43.1494 42.2126 43.1087 42.3145 43.1087 42.4571C43.1087 42.5793 43.1494 42.7016 43.2309 42.8034C43.3124 42.9053 43.4754 43.0479 43.7199 43.2313C44.0255 43.4554 44.2292 43.6795 44.3718 43.9239C44.5144 44.1684 44.5959 44.4129 44.5959 44.7185Z" fill="#003B5D"/>
<path d="M49.506 46.4093H48.0391L48.9355 42.1311H47.7539L48.0188 40.9087H51.8896L51.6247 42.1311H50.4227L49.506 46.4093Z" fill="#003B5D"/>
<path d="M54.7615 40.8271C55.4135 40.8271 55.9228 41.0105 56.2895 41.3772C56.6562 41.7439 56.8395 42.2736 56.8395 42.9255C56.8395 43.5978 56.7173 44.209 56.4728 44.7591C56.2284 45.3091 55.882 45.737 55.4338 46.0222C54.9856 46.3074 54.4967 46.4704 53.9059 46.4704C53.2336 46.4704 52.7039 46.287 52.3372 45.9203C51.9705 45.5536 51.7871 45.0239 51.7871 44.372C51.7871 43.6997 51.9093 43.0885 52.1742 42.5385C52.439 41.9884 52.7854 41.5606 53.2336 41.2754C53.6614 40.9901 54.1707 40.8271 54.7615 40.8271ZM55.332 42.9663C55.332 42.6811 55.2708 42.457 55.1486 42.294C55.0264 42.131 54.8634 42.0495 54.6189 42.0495C54.3744 42.0495 54.1503 42.1514 53.9262 42.3551C53.7225 42.5588 53.5595 42.8644 53.4373 43.2311C53.3151 43.5978 53.2539 43.9849 53.2539 44.3516C53.2539 44.9628 53.4984 45.2684 54.0077 45.2684C54.2522 45.2684 54.4763 45.1665 54.68 44.9628C54.8838 44.7591 55.0467 44.4739 55.169 44.1275C55.2708 43.7608 55.332 43.3941 55.332 42.9663Z" fill="#003B5D"/>
<path d="M61.8105 43.1905H64.1126L63.481 46.1853C62.8495 46.389 62.1976 46.4909 61.5253 46.4909C60.8733 46.4909 60.364 46.3075 59.9973 45.9205C59.6306 45.5334 59.4473 45.0037 59.4473 44.311C59.4473 43.6387 59.5899 43.0479 59.8547 42.4978C60.1399 41.9682 60.5066 41.5403 60.9956 41.2755C61.4845 40.9903 62.0346 40.8477 62.6661 40.8477C63.3384 40.8477 63.8885 40.9903 64.3571 41.2551L63.807 42.4164C63.4199 42.1923 63.0329 42.07 62.6661 42.07C62.3402 42.07 62.0346 42.1515 61.7901 42.3349C61.5456 42.5182 61.3419 42.7831 61.1789 43.1498C61.0363 43.4961 60.9548 43.8832 60.9548 44.2906C60.9548 44.9426 61.2197 45.2889 61.7494 45.2889C61.9124 45.2889 62.0753 45.2685 62.2587 45.2278L62.442 44.3518H61.5456L61.8105 43.1905Z" fill="#003B5D"/>
<path d="M67.8212 46.4093H64.5615L65.7228 40.9087H68.9824L68.7379 42.0903H66.9451L66.7618 42.946H68.4324L68.1675 44.1276H66.4969L66.2728 45.1666H68.0656L67.8212 46.4093Z" fill="#003B5D"/>
<path d="M71.1212 46.4093H69.6544L70.5508 42.1311H69.3691L69.634 40.9087H73.5048L73.2399 42.1311H72.038L71.1212 46.4093Z" fill="#003B5D"/>
<path d="M76.6016 46.4093H75.1348L76.296 40.9087H79.5353L79.2908 42.0903H77.5184L77.2943 43.1293H78.9241L78.6592 44.3313H77.0294L76.6016 46.4093Z" fill="#003B5D"/>
<path d="M79.4941 46.4093L80.6554 40.9087H82.1426L80.9813 46.4093H79.4941Z" fill="#003B5D"/>
<path d="M84.4649 46.4093H82.9981L83.8945 42.1311H82.7129L82.9777 40.9087H86.8485L86.5837 42.1311H85.3817L84.4649 46.4093Z" fill="#003B5D"/>
</svg>
