<svg width="191" height="52" viewBox="0 0 191 52" fill="none" xmlns="http://www.w3.org/2000/svg">
<g clip-path="url(#clip0_3_400)">
<path d="M0 10.4405C0 4.72536 4.62861 0.0922852 10.3383 0.0922852H41.3532C47.0629 0.0922852 51.6915 4.72536 51.6915 10.4405V41.4853C51.6915 47.2005 47.0629 51.8336 41.3532 51.8336H10.3383C4.62861 51.8336 0 47.2005 0 41.4853V10.4405Z" fill="#E4DFFF"/>
<path d="M22.3355 30.3717L10.572 27.022C9.97109 26.8509 9.96891 25.9875 10.569 25.8479L29.0625 21.5465C29.1597 21.5239 29.2616 21.5266 29.3589 21.5543L41.1159 24.9019C41.7167 25.073 41.719 25.9363 41.119 26.0759L22.632 30.3794C22.5348 30.402 22.4328 30.3994 22.3355 30.3717Z" fill="#460993"/>
<path d="M10.5731 27.023C10.1203 26.8941 9.96723 26.317 10.3005 25.9954L31.6119 5.43254C32.0742 4.98639 32.8277 5.51631 32.5868 6.11824L23.0187 30.025C22.9072 30.3035 22.607 30.4497 22.3163 30.3669L10.5731 27.023Z" fill="url(#paint0_linear_3_400)"/>
<path d="M41.1194 24.9032C41.5722 25.0322 41.7253 25.6093 41.392 25.9308L20.0807 46.4937C19.6183 46.9398 18.8648 46.4099 19.1057 45.808L28.6739 21.9012C28.7853 21.6227 29.0855 21.4766 29.3762 21.5593L41.1194 24.9032Z" fill="url(#paint1_linear_3_400)"/>
</g>
<path d="M66.3717 36.2964C65.7307 36.2964 65.2345 36.1205 64.883 35.7686C64.5521 35.3961 64.3867 34.889 64.3867 34.2474V16.1794C64.3867 15.5171 64.5625 15.0204 64.914 14.6892C65.2655 14.3374 65.7617 14.1614 66.4027 14.1614H73.8773C76.2758 14.1614 78.1263 14.7616 79.4289 15.962C80.7316 17.1624 81.3829 18.8389 81.3829 20.9913C81.3829 23.1437 80.7316 24.8305 79.4289 26.0516C78.1263 27.252 76.2758 27.8522 73.8773 27.8522H68.3566V34.2474C68.3566 34.889 68.1912 35.3961 67.8604 35.7686C67.5296 36.1205 67.0333 36.2964 66.3717 36.2964ZM68.3566 24.7167H73.257C74.663 24.7167 75.7278 24.4062 76.4515 23.7853C77.1752 23.1437 77.537 22.2124 77.537 20.9913C77.537 19.7702 77.1752 18.8492 76.4515 18.2283C75.7278 17.6074 74.663 17.297 73.257 17.297H68.3566V24.7167Z" fill="#191C1E"/>
<path d="M85.2394 36.2964C84.6191 36.2964 84.1435 36.1308 83.8127 35.7997C83.4819 35.4478 83.3165 34.9511 83.3165 34.3095V15.8689C83.3165 15.2273 83.4819 14.7409 83.8127 14.4098C84.1435 14.0787 84.6191 13.9131 85.2394 13.9131C85.8597 13.9131 86.3352 14.0787 86.6661 14.4098C87.0176 14.7409 87.1933 15.2273 87.1933 15.8689V23.9095H86.7591C87.214 22.8126 87.917 21.9847 88.8681 21.4259C89.8399 20.8464 90.9358 20.5567 92.1557 20.5567C93.3756 20.5567 94.3784 20.7843 95.1642 21.2397C95.9499 21.695 96.5391 22.3883 96.932 23.3197C97.3249 24.2303 97.5213 25.3893 97.5213 26.7967V34.3095C97.5213 34.9511 97.3559 35.4478 97.025 35.7997C96.6942 36.1308 96.2187 36.2964 95.5984 36.2964C94.9781 36.2964 94.4922 36.1308 94.1407 35.7997C93.8098 35.4478 93.6444 34.9511 93.6444 34.3095V26.9829C93.6444 25.8032 93.417 24.9443 92.9621 24.4062C92.5279 23.8681 91.8456 23.5991 90.9151 23.5991C89.7779 23.5991 88.8681 23.9612 88.1858 24.6856C87.5241 25.3893 87.1933 26.331 87.1933 27.5107V34.3095C87.1933 35.6341 86.542 36.2964 85.2394 36.2964Z" fill="#191C1E"/>
<path d="M105.522 36.3585C104.426 36.3585 103.444 36.1515 102.575 35.7376C101.728 35.3029 101.056 34.7234 100.56 33.9991C100.084 33.2747 99.8462 32.4572 99.8462 31.5465C99.8462 30.4289 100.136 29.5493 100.715 28.9077C101.294 28.2454 102.234 27.7694 103.537 27.4797C104.84 27.1899 106.587 27.045 108.778 27.045H110.329V29.2803H108.809C107.528 29.2803 106.504 29.3423 105.739 29.4665C104.974 29.5907 104.426 29.808 104.095 30.1185C103.785 30.4082 103.63 30.8221 103.63 31.3603C103.63 32.0432 103.868 32.602 104.343 33.0367C104.819 33.4713 105.481 33.6886 106.328 33.6886C107.011 33.6886 107.61 33.5334 108.127 33.2229C108.665 32.8918 109.089 32.4468 109.399 31.888C109.709 31.3292 109.864 30.6876 109.864 29.9632V26.3931C109.864 25.3583 109.637 24.6132 109.182 24.1579C108.727 23.7025 107.962 23.4749 106.887 23.4749C106.287 23.4749 105.636 23.5473 104.933 23.6922C104.25 23.8371 103.527 24.0854 102.762 24.4373C102.369 24.6235 102.017 24.6753 101.707 24.5925C101.418 24.5097 101.19 24.3441 101.025 24.0958C100.859 23.8267 100.777 23.537 100.777 23.2265C100.777 22.9161 100.859 22.616 101.025 22.3262C101.19 22.0158 101.469 21.7881 101.862 21.6432C102.813 21.25 103.723 20.9706 104.591 20.805C105.481 20.6395 106.287 20.5567 107.011 20.5567C108.499 20.5567 109.719 20.7843 110.67 21.2397C111.642 21.695 112.366 22.3883 112.841 23.3197C113.317 24.2303 113.555 25.41 113.555 26.8588V34.3095C113.555 34.9511 113.4 35.4478 113.09 35.7997C112.779 36.1308 112.335 36.2964 111.756 36.2964C111.177 36.2964 110.722 36.1308 110.391 35.7997C110.081 35.4478 109.926 34.9511 109.926 34.3095V32.8194H110.174C110.029 33.5437 109.74 34.175 109.306 34.7131C108.892 35.2305 108.365 35.6341 107.724 35.9238C107.083 36.2136 106.349 36.3585 105.522 36.3585Z" fill="#191C1E"/>
<path d="M118.544 36.2964C117.903 36.2964 117.407 36.1308 117.056 35.7997C116.725 35.4478 116.559 34.9511 116.559 34.3095V22.5746C116.559 21.933 116.725 21.4466 117.056 21.1155C117.386 20.7843 117.852 20.6188 118.451 20.6188C119.051 20.6188 119.516 20.7843 119.847 21.1155C120.178 21.4466 120.343 21.933 120.343 22.5746V24.5304H120.033C120.322 23.2886 120.891 22.3469 121.739 21.7053C122.587 21.0637 123.713 20.6808 125.119 20.5567C125.554 20.5153 125.895 20.6291 126.143 20.8982C126.412 21.1465 126.567 21.5398 126.608 22.0779C126.65 22.5953 126.525 23.0196 126.236 23.3507C125.967 23.6611 125.554 23.8474 124.995 23.9095L124.313 23.9716C123.052 24.0958 122.101 24.489 121.46 25.1513C120.819 25.7929 120.498 26.7035 120.498 27.8832V34.3095C120.498 34.9511 120.333 35.4478 120.002 35.7997C119.671 36.1308 119.185 36.2964 118.544 36.2964Z" fill="#191C1E"/>
<path d="M132.616 36.3585C131.52 36.3585 130.538 36.1515 129.67 35.7376C128.822 35.3029 128.15 34.7234 127.654 33.9991C127.178 33.2747 126.941 32.4572 126.941 31.5465C126.941 30.4289 127.23 29.5493 127.809 28.9077C128.388 28.2454 129.329 27.7694 130.631 27.4797C131.934 27.1899 133.681 27.045 135.873 27.045H137.424V29.2803H135.904C134.622 29.2803 133.598 29.3423 132.833 29.4665C132.068 29.5907 131.52 29.808 131.19 30.1185C130.879 30.4082 130.724 30.8221 130.724 31.3603C130.724 32.0432 130.962 32.602 131.438 33.0367C131.913 33.4713 132.575 33.6886 133.423 33.6886C134.105 33.6886 134.705 33.5334 135.222 33.2229C135.759 32.8918 136.183 32.4468 136.493 31.888C136.803 31.3292 136.958 30.6876 136.958 29.9632V26.3931C136.958 25.3583 136.731 24.6132 136.276 24.1579C135.821 23.7025 135.056 23.4749 133.981 23.4749C133.381 23.4749 132.73 23.5473 132.027 23.6922C131.345 23.8371 130.621 24.0854 129.856 24.4373C129.463 24.6235 129.112 24.6753 128.801 24.5925C128.512 24.5097 128.285 24.3441 128.119 24.0958C127.954 23.8267 127.871 23.537 127.871 23.2265C127.871 22.9161 127.954 22.616 128.119 22.3262C128.285 22.0158 128.564 21.7881 128.957 21.6432C129.908 21.25 130.817 20.9706 131.686 20.805C132.575 20.6395 133.381 20.5567 134.105 20.5567C135.594 20.5567 136.814 20.7843 137.765 21.2397C138.737 21.695 139.46 22.3883 139.936 23.3197C140.411 24.2303 140.649 25.41 140.649 26.8588V34.3095C140.649 34.9511 140.494 35.4478 140.184 35.7997C139.874 36.1308 139.429 36.2964 138.85 36.2964C138.271 36.2964 137.816 36.1308 137.486 35.7997C137.176 35.4478 137.02 34.9511 137.02 34.3095V32.8194H137.269C137.124 33.5437 136.834 34.175 136.4 34.7131C135.987 35.2305 135.459 35.6341 134.818 35.9238C134.177 36.2136 133.443 36.3585 132.616 36.3585Z" fill="#191C1E"/>
<path d="M149.485 36.3585C148.161 36.3585 146.993 36.0377 145.98 35.3961C144.987 34.7545 144.212 33.8438 143.654 32.6641C143.095 31.4637 142.816 30.0564 142.816 28.442C142.816 26.807 143.095 25.41 143.654 24.251C144.212 23.0713 144.987 22.1606 145.98 21.5191C146.993 20.8775 148.161 20.5567 149.485 20.5567C150.746 20.5567 151.842 20.8671 152.772 21.488C153.723 22.1089 154.364 22.9264 154.695 23.9405H154.354V15.8689C154.354 15.2273 154.519 14.7409 154.85 14.4098C155.181 14.0787 155.657 13.9131 156.277 13.9131C156.897 13.9131 157.373 14.0787 157.703 14.4098C158.055 14.7409 158.231 15.2273 158.231 15.8689V34.3095C158.231 34.9511 158.065 35.4478 157.735 35.7997C157.404 36.1308 156.928 36.2964 156.308 36.2964C155.688 36.2964 155.212 36.1308 154.881 35.7997C154.55 35.4478 154.385 34.9511 154.385 34.3095V31.888L154.726 32.8194C154.416 33.8956 153.785 34.7545 152.834 35.3961C151.883 36.0377 150.766 36.3585 149.485 36.3585ZM150.57 33.4092C151.335 33.4092 152.007 33.2229 152.586 32.8504C153.165 32.4779 153.61 31.9294 153.92 31.205C154.25 30.46 154.416 29.539 154.416 28.442C154.416 26.7863 154.064 25.5549 153.361 24.7477C152.658 23.9199 151.728 23.5059 150.57 23.5059C149.805 23.5059 149.133 23.6922 148.554 24.0647C147.975 24.4166 147.52 24.965 147.189 25.7101C146.879 26.4345 146.724 27.3451 146.724 28.442C146.724 30.0771 147.076 31.3189 147.779 32.1674C148.482 32.9953 149.412 33.4092 150.57 33.4092Z" fill="#191C1E"/>
<path d="M166.314 36.3585C165.218 36.3585 164.236 36.1515 163.367 35.7376C162.519 35.3029 161.847 34.7234 161.351 33.9991C160.876 33.2747 160.638 32.4572 160.638 31.5465C160.638 30.4289 160.927 29.5493 161.506 28.9077C162.085 28.2454 163.026 27.7694 164.329 27.4797C165.631 27.1899 167.378 27.045 169.57 27.045H171.121V29.2803H169.601C168.319 29.2803 167.296 29.3423 166.531 29.4665C165.766 29.5907 165.218 29.808 164.887 30.1185C164.577 30.4082 164.422 30.8221 164.422 31.3603C164.422 32.0432 164.659 32.602 165.135 33.0367C165.611 33.4713 166.272 33.6886 167.12 33.6886C167.802 33.6886 168.402 33.5334 168.919 33.2229C169.456 32.8918 169.88 32.4468 170.19 31.888C170.501 31.3292 170.656 30.6876 170.656 29.9632V26.3931C170.656 25.3583 170.428 24.6132 169.973 24.1579C169.518 23.7025 168.753 23.4749 167.678 23.4749C167.079 23.4749 166.427 23.5473 165.724 23.6922C165.042 23.8371 164.318 24.0854 163.553 24.4373C163.16 24.6235 162.809 24.6753 162.499 24.5925C162.209 24.5097 161.982 24.3441 161.816 24.0958C161.651 23.8267 161.568 23.537 161.568 23.2265C161.568 22.9161 161.651 22.616 161.816 22.3262C161.982 22.0158 162.261 21.7881 162.654 21.6432C163.605 21.25 164.515 20.9706 165.383 20.805C166.272 20.6395 167.079 20.5567 167.802 20.5567C169.291 20.5567 170.511 20.7843 171.462 21.2397C172.434 21.695 173.157 22.3883 173.633 23.3197C174.109 24.2303 174.346 25.41 174.346 26.8588V34.3095C174.346 34.9511 174.191 35.4478 173.881 35.7997C173.571 36.1308 173.126 36.2964 172.548 36.2964C171.969 36.2964 171.514 36.1308 171.183 35.7997C170.873 35.4478 170.718 34.9511 170.718 34.3095V32.8194H170.966C170.821 33.5437 170.532 34.175 170.097 34.7131C169.684 35.2305 169.157 35.6341 168.516 35.9238C167.875 36.2136 167.141 36.3585 166.314 36.3585Z" fill="#191C1E"/>
<path d="M181.045 41.8844C180.59 41.8844 180.218 41.7603 179.929 41.5119C179.639 41.2842 179.464 40.9738 179.402 40.5806C179.36 40.1873 179.433 39.7734 179.619 39.3388L181.728 34.651V36.2653L176.083 23.1955C175.897 22.7402 175.835 22.3159 175.897 21.9226C175.959 21.5294 176.145 21.219 176.455 20.9913C176.786 20.7429 177.231 20.6188 177.789 20.6188C178.264 20.6188 178.647 20.7326 178.936 20.9603C179.226 21.1672 179.484 21.5708 179.712 22.171L183.899 32.6331H182.968L187.248 22.14C187.476 21.5605 187.745 21.1672 188.055 20.9603C188.365 20.7326 188.778 20.6188 189.295 20.6188C189.75 20.6188 190.112 20.7429 190.381 20.9913C190.65 21.219 190.815 21.5294 190.877 21.9226C190.939 22.2952 190.867 22.7091 190.66 23.1644L183.123 40.3943C182.855 40.9738 182.565 41.367 182.255 41.574C181.945 41.781 181.542 41.8844 181.045 41.8844Z" fill="#191C1E"/>
<defs>
<linearGradient id="paint0_linear_3_400" x1="15.0327" y1="2.28967" x2="24.0838" y2="51.9558" gradientUnits="userSpaceOnUse">
<stop stop-color="#5333FC"/>
<stop offset="1" stop-color="#D376FF"/>
</linearGradient>
<linearGradient id="paint1_linear_3_400" x1="15.0327" y1="2.28967" x2="24.0838" y2="51.9558" gradientUnits="userSpaceOnUse">
<stop stop-color="#5333FC"/>
<stop offset="1" stop-color="#D376FF"/>
</linearGradient>
<clipPath id="clip0_3_400">
<rect y="0.0922852" width="51.6915" height="51.7413" fill="white"/>
</clipPath>
</defs>
</svg>
