<svg width="108" height="34" viewBox="0 0 108 34" fill="none" xmlns="http://www.w3.org/2000/svg">
<g clip-path="url(#clip0_3_377)">
<mask id="mask0_3_377" style="mask-type:luminance" maskUnits="userSpaceOnUse" x="0" y="0" width="108" height="34">
<path d="M108 0H0V34H108V0Z" fill="white"/>
</mask>
<g mask="url(#mask0_3_377)">
<mask id="mask1_3_377" style="mask-type:luminance" maskUnits="userSpaceOnUse" x="0" y="0" width="108" height="34">
<path d="M108 0H0.0166016V34H108V0Z" fill="white"/>
</mask>
<g mask="url(#mask1_3_377)">
<path d="M8.9964 25.2165H8.72773L3.33315 10.1958H0V10.5911L7.00785 28.9003H10.6893L17.6931 10.5911V10.1958H14.3869L8.9964 25.2165Z" fill="black"/>
</g>
<path d="M43.8501 11.8975H40.7059V15.3077H38.0586V17.4528H40.7059V25.6108C40.7059 26.6894 41.0165 27.5076 41.6401 28.0654C42.2625 28.6231 43.1346 28.9008 44.2537 28.9008H46.8066V26.6379H44.9922C44.2308 26.6379 43.8501 26.2652 43.8501 25.5196V17.4528H46.8876V15.3077H43.8501V11.8975Z" fill="black"/>
<path d="M31.0717 14.9927C28.9846 14.9927 27.3201 15.5915 26.0794 16.789C24.8388 17.9865 24.2178 19.7564 24.2178 22.0986C24.2178 24.4407 24.8401 26.2132 26.0862 27.4147C27.3309 28.6162 29.0022 29.2177 31.0987 29.2177C32.1558 29.2177 33.0589 29.0841 33.8068 28.8158C34.5547 28.5489 35.173 28.1999 35.6617 27.7703C36.1504 27.3407 36.5244 26.8795 36.7836 26.389C37.0428 25.8973 37.2183 25.4281 37.3074 24.9813V24.5862H34.5115C34.4481 24.9456 34.2915 25.3105 34.0417 25.6779C33.7906 26.0467 33.4234 26.3534 32.9401 26.5992C32.4568 26.8451 31.8291 26.968 31.0582 26.968C29.8662 26.968 28.9441 26.5926 28.2894 25.8432C27.6346 25.0937 27.2944 24.0997 27.2674 22.8625H37.5895V21.5593C37.5895 19.5158 37.0252 17.9099 35.8966 16.7427C34.768 15.5756 33.1588 14.9927 31.0717 14.9927ZM27.3079 20.716C27.397 19.7075 27.7521 18.8722 28.3704 18.2099C28.9887 17.5477 29.8797 17.216 31.0447 17.216C32.2098 17.216 33.121 17.5424 33.6988 18.1967C34.2766 18.851 34.5696 19.6903 34.579 20.716H27.3079Z" fill="black"/>
<path d="M57.2851 25.4271C57.0569 25.8566 56.7141 26.2096 56.2564 26.4859C55.8001 26.7621 55.1993 26.9009 54.4555 26.9009C53.2635 26.9009 52.3252 26.4818 51.6394 25.6439C50.9536 24.8059 50.6107 23.6242 50.6107 22.0975C50.6107 20.5709 50.9549 19.4024 51.6461 18.5644C52.336 17.7265 53.2729 17.3074 54.4555 17.3074C55.1818 17.3074 55.7704 17.4409 56.2227 17.7092C56.6749 17.9776 57.0137 18.3147 57.2379 18.723C57.4619 19.1315 57.5956 19.5505 57.6415 19.98H60.625V19.5849C60.544 18.8222 60.2673 18.0899 59.7921 17.3868C59.3169 16.6849 58.6365 16.1099 57.7495 15.6631C56.8625 15.2164 55.7555 14.9917 54.4299 14.9917C53.0231 14.9917 51.7906 15.2706 50.7335 15.827C49.6765 16.3848 48.8571 17.1911 48.2739 18.2485C47.6907 19.306 47.4004 20.5894 47.4004 22.0975C47.4004 23.6057 47.692 24.9023 48.2739 25.9598C48.8557 27.0172 49.6738 27.8235 50.7268 28.3813C51.7798 28.9377 53.0137 29.2166 54.4299 29.2166C55.846 29.2166 56.8936 28.9906 57.79 28.5385C58.6864 28.0865 59.3735 27.4983 59.8528 26.7753C60.3321 26.051 60.6169 25.2817 60.706 24.4662V24.0709H57.7225C57.6604 24.5442 57.5146 24.9962 57.2865 25.4258L57.2851 25.4271Z" fill="black"/>
<path d="M72.8096 17.0322H72.541C72.2358 16.5232 71.7323 16.0606 71.029 15.6443C70.3255 15.2279 69.3563 15.019 68.1197 15.019C66.8831 15.019 65.8774 15.2808 64.9147 15.8016C63.9522 16.3236 63.1882 17.1062 62.6238 18.1504C62.0596 19.1946 61.7773 20.5097 61.7773 22.0985C61.7773 23.6873 62.0596 25.0051 62.6238 26.0532C63.1882 27.1014 63.9522 27.8865 64.9147 28.4086C65.8774 28.9308 66.9466 29.1911 68.1197 29.1911C69.3563 29.1911 70.3255 28.9823 71.029 28.566C71.7323 28.1495 72.2358 27.687 72.541 27.1781H72.8096V28.9016H75.8741V15.3085H72.8096V17.0322ZM71.7485 25.625C71.0316 26.4326 70.0866 26.8357 68.9122 26.8357C67.7376 26.8357 66.7792 26.4326 66.0623 25.625C65.3454 24.8174 64.9877 23.6423 64.9877 22.0985C64.9877 20.5546 65.3454 19.3928 66.0623 18.5852C66.7792 17.7776 67.7281 17.3745 68.9122 17.3745C70.0961 17.3745 71.0303 17.7776 71.7485 18.5852C72.4654 19.3928 72.8231 20.5639 72.8231 22.0985C72.8231 23.6331 72.4639 24.8187 71.7485 25.625Z" fill="black"/>
<path d="M91.7181 18.1504C91.1539 17.1062 90.3893 16.3236 89.4266 15.8016C88.4633 15.2795 87.395 15.019 86.2219 15.019C84.9853 15.019 84.0172 15.2279 83.3199 15.6443C82.6203 16.0606 82.1139 16.5232 81.8009 17.0322H81.5325V15.3085H78.4678V33.9998H81.6522V27.3354H81.9206C82.2071 27.7649 82.6868 28.1813 83.3591 28.5857C84.0313 28.9889 84.9853 29.1911 86.2211 29.1911C87.456 29.1911 88.4633 28.9294 89.4259 28.4086C90.3885 27.8865 91.1523 27.1014 91.7166 26.0532C92.2808 25.0051 92.5633 23.6873 92.5633 22.0985C92.5633 20.5097 92.2808 19.1946 91.7166 18.1504H91.7181ZM88.2778 25.625C87.5617 26.4326 86.6163 26.8357 85.4416 26.8357C84.2677 26.8357 83.3207 26.4326 82.5999 25.625C81.8792 24.8174 81.5176 23.6423 81.5176 22.0985C81.5176 20.5546 81.8776 19.3928 82.5999 18.5852C83.3207 17.7776 84.2685 17.3745 85.4416 17.3745C86.6147 17.3745 87.5617 17.7776 88.2778 18.5852C88.9946 19.3928 89.3531 20.5639 89.3531 22.0985C89.3531 23.6331 88.9946 24.8187 88.2778 25.625Z" fill="black"/>
<path d="M19.1436 28.9009H22.3282V15.3091H19.1436V28.9009Z" fill="black"/>
<mask id="mask2_3_377" style="mask-type:luminance" maskUnits="userSpaceOnUse" x="0" y="0" width="108" height="34">
<path d="M108 0H0.0166016V34H108V0Z" fill="white"/>
</mask>
<g mask="url(#mask2_3_377)">
<path d="M20.711 10.1958C19.7512 10.1958 18.9736 10.9572 18.9736 11.897C18.9736 12.8368 19.7512 13.598 20.711 13.598C21.6709 13.598 22.4485 12.8368 22.4485 11.897C22.4485 10.9572 21.6709 10.1958 20.711 10.1958Z" fill="#00FF00"/>
<path d="M95.8159 13.6115H106.279C107.557 13.6115 108.389 12.2937 107.816 11.1755L102.586 0.93037C101.953 -0.310774 100.144 -0.310774 99.5098 0.93037L94.2781 11.1741C93.7076 12.2937 94.5371 13.6102 95.8159 13.6102V13.6115Z" fill="#00FF00"/>
</g>
</g>
</g>
<defs>
<clipPath id="clip0_3_377">
<rect width="108" height="34" fill="white"/>
</clipPath>
</defs>
</svg>
