<?xml version="1.0" standalone="no"?>
<!DOCTYPE svg PUBLIC "-//W3C//DTD SVG 20010904//EN"
 "http://www.w3.org/TR/2001/REC-SVG-20010904/DTD/svg10.dtd">
<svg version="1.0" xmlns="http://www.w3.org/2000/svg"
 width="600.000000pt" height="600.000000pt" viewBox="0 0 600.000000 600.000000"
 preserveAspectRatio="xMidYMid meet">
<metadata>
Created by potrace 1.14, written by Peter Selinger 2001-2017
</metadata>
<g transform="translate(0.000000,600.000000) scale(0.100000,-0.100000)"
fill="#000000" stroke="none">
<path d="M3227 5929 c-67 -55 -103 -227 -77 -365 7 -38 23 -103 36 -145 25
-86 24 -129 -4 -210 -25 -70 -21 -135 11 -214 16 -37 22 -66 18 -79 -4 -11
-32 -38 -62 -60 -107 -82 -116 -159 -46 -401 27 -95 32 -126 32 -225 0 -97 -4
-125 -24 -177 -13 -35 -30 -63 -37 -63 -8 0 -14 -4 -14 -9 0 -5 -12 -8 -27 -5
-20 3 -24 2 -13 -5 8 -5 18 -7 22 -5 10 6 11 -10 1 -19 -3 -4 -13 -1 -22 6
-14 11 -15 10 -1 -7 14 -17 15 -17 36 10 l23 28 -6 -75 c-4 -56 -10 -78 -24
-91 -10 -9 -19 -20 -19 -24 0 -4 8 0 18 9 18 16 21 11 66 -111 64 -172 63
-247 -4 -367 -15 -27 -56 -101 -90 -164 -58 -103 -63 -118 -64 -175 -1 -33 -6
-68 -11 -77 -22 -36 -75 -89 -113 -113 -22 -14 -53 -42 -69 -62 -26 -35 -28
-44 -30 -149 -2 -94 -7 -125 -33 -200 -34 -95 -44 -144 -55 -245 -4 -36 -13
-100 -19 -142 -16 -99 -12 -155 19 -281 13 -56 27 -115 29 -132 23 -129 62
-215 157 -340 79 -106 98 -143 105 -214 5 -43 2 -70 -11 -104 -16 -42 -16 -49
-2 -94 9 -26 18 -69 22 -96 5 -41 14 -55 63 -103 66 -65 94 -81 149 -87 55 -7
88 1 117 28 20 19 33 22 64 18 51 -7 102 10 140 47 28 27 64 50 76 50 4 0 4
-12 2 -27 -6 -35 -17 -164 -20 -230 -3 -63 25 -187 51 -221 11 -15 39 -37 64
-49 24 -11 78 -38 119 -59 65 -32 86 -38 160 -41 47 -2 101 -8 120 -14 55 -17
112 3 169 59 27 26 53 56 58 66 10 18 13 17 54 -17 59 -51 92 -58 254 -52 183
7 208 11 270 40 64 31 85 48 118 102 51 81 43 187 -20 280 -66 96 -61 156 28
342 57 120 100 186 169 261 122 132 260 339 310 464 51 127 64 209 64 426 1
232 -9 314 -60 515 -9 33 -17 67 -19 75 -21 99 -33 134 -77 230 -90 196 -115
280 -112 380 4 121 41 240 143 450 10 21 24 59 32 84 7 25 18 44 24 42 5 -2 9
-8 8 -14 -2 -6 4 -9 12 -6 21 8 19 36 -2 32 -11 -2 -19 5 -21 17 -2 16 -1 17
7 5 6 -8 11 -10 11 -4 0 5 -4 14 -9 20 -5 5 -11 36 -12 69 -2 33 -7 66 -12 73
-5 6 -7 12 -4 12 8 0 -80 177 -91 184 -10 6 -72 -35 -72 -48 0 -5 7 -17 15
-26 8 -9 16 -25 18 -37 1 -12 8 -27 14 -35 23 -27 52 -128 37 -128 -4 0 -13 8
-21 18 -13 15 -13 15 -3 -6 17 -36 4 -39 -17 -4 -16 26 -21 28 -36 17 -9 -7
-17 -16 -17 -21 0 -4 5 -3 12 4 7 7 16 12 22 12 5 0 7 -3 3 -6 -11 -11 37 -43
49 -33 17 14 16 -64 -2 -118 -9 -25 -36 -88 -59 -139 -147 -314 -154 -495 -30
-759 65 -136 106 -267 141 -440 2 -11 6 -31 9 -45 10 -46 15 -75 23 -115 4
-22 7 -134 7 -250 -1 -297 -23 -373 -171 -601 -69 -108 -96 -143 -141 -189
-78 -81 -161 -200 -209 -300 -28 -60 -54 -117 -56 -125 -3 -8 -11 11 -18 42
l-13 58 61 132 c77 168 192 442 192 456 0 6 13 67 30 134 16 67 26 126 22 130
-10 10 -82 21 -82 13 0 -19 -71 -307 -80 -323 -5 -9 -28 -62 -51 -117 -23 -55
-74 -173 -115 -263 l-74 -163 16 -57 c8 -31 17 -65 19 -75 10 -47 17 -58 36
-55 18 3 20 -4 22 -77 2 -69 6 -86 32 -128 17 -27 37 -62 47 -78 21 -40 17
-122 -8 -155 -20 -27 -70 -61 -78 -54 -3 4 -13 70 -15 103 -1 8 -53 10 -74 1
-12 -4 -14 -16 -11 -47 11 -91 19 -82 -82 -85 l-92 -3 -7 71 -7 70 -32 0 c-53
0 -58 -9 -48 -83 5 -40 5 -67 0 -67 -32 0 -87 52 -113 107 -14 30 -18 183 -16
639 0 96 23 182 75 279 64 119 88 205 102 371 l7 74 -42 0 c-46 0 -47 -1 -55
-80 -17 -161 -33 -217 -92 -326 -77 -142 -82 -177 -83 -584 l-1 -355 26 -55
25 -55 -30 29 c-19 18 -31 40 -31 55 0 13 -6 52 -14 85 -8 34 -19 106 -26 161
-6 55 -14 116 -16 136 -3 20 -7 59 -10 85 -2 27 -9 63 -14 79 -5 17 -12 54
-15 84 -6 65 -78 350 -111 443 -13 37 -40 100 -61 139 -40 76 -40 75 -43 305
0 10 -17 11 -77 5 -9 -1 -11 -36 -10 -129 l3 -127 43 -85 c24 -47 50 -103 58
-125 31 -87 101 -361 108 -427 3 -28 12 -78 20 -112 7 -33 16 -95 20 -136 7
-77 12 -117 20 -160 3 -14 7 -49 10 -78 3 -30 7 -57 10 -62 3 -4 9 -38 14 -75
6 -39 17 -75 28 -87 17 -19 17 -21 -15 -49 -64 -57 -98 -33 -107 76 -3 43 -8
81 -10 85 -2 3 -22 4 -45 2 l-41 -4 7 -88 7 -87 -44 7 c-64 9 -87 25 -93 63
-9 51 -15 110 -16 135 0 19 -4 22 -27 18 -16 -2 -36 -5 -46 -5 -15 -1 -16 -8
-11 -66 6 -55 4 -65 -9 -65 -24 0 -56 39 -68 84 -18 66 -15 199 9 361 4 28 6
104 6 170 -1 104 -6 138 -39 260 -20 77 -50 178 -67 225 -80 227 -99 288 -130
410 l-32 132 -35 -6 c-19 -3 -38 -9 -42 -13 -5 -5 9 -76 31 -158 45 -174 44
-171 103 -335 37 -104 95 -299 113 -384 3 -12 8 -51 11 -88 5 -65 5 -68 -16
-68 -14 0 -25 -9 -31 -25 -5 -13 -22 -31 -38 -39 l-28 -15 -2 37 c-2 20 -5 46
-7 57 -2 11 -4 24 -4 28 -1 4 -20 6 -43 4 -35 -3 -43 -8 -42 -23 1 -10 4 -52
8 -91 7 -79 3 -84 -43 -59 -29 16 -69 9 -84 -15 -12 -19 -29 -26 -25 -12 2 8
-19 132 -28 165 -4 12 -12 15 -32 11 -15 -3 -33 -6 -41 -6 -10 0 -12 -12 -7
-51 7 -63 15 -107 22 -125 4 -12 2 -12 -13 0 -63 47 -83 74 -83 110 0 20 -7
53 -16 74 -14 34 -14 40 0 70 28 58 15 180 -27 262 -9 17 -46 70 -83 118 -66
87 -119 185 -128 239 -14 79 -29 147 -47 209 -31 105 -29 164 17 480 3 20 21
85 40 142 31 94 34 116 33 198 -1 54 3 101 9 114 6 11 31 32 56 47 47 28 118
102 143 151 9 16 17 57 18 90 2 65 5 74 101 240 74 128 95 187 101 281 6 86 1
110 -47 229 -42 104 -46 139 -21 164 12 12 23 21 26 21 3 0 9 0 15 0 5 0 6 8
3 18 -6 15 -5 16 13 2 18 -14 18 -14 4 4 -14 18 -13 19 3 13 10 -4 21 -7 23
-7 3 0 2 -5 -2 -12 -4 -7 -3 -8 4 -4 6 4 8 14 5 24 -6 15 -5 16 13 2 17 -14
18 -13 7 1 -7 9 -9 20 -5 25 4 4 -1 2 -12 -6 -10 -8 -26 -15 -35 -15 -8 0 -20
-10 -26 -22 -9 -18 -14 -20 -25 -10 -10 9 -11 9 -6 0 4 -7 2 -13 -4 -13 -6 0
-8 -4 -5 -10 3 -5 1 -10 -4 -10 -10 0 -9 31 3 87 7 33 26 64 35 58 5 -2 14 2
21 10 6 7 19 11 28 8 14 -4 15 -3 2 5 -8 6 -18 8 -24 5 -5 -4 -7 1 -3 11 4 11
3 15 -4 11 -6 -4 -8 -13 -5 -21 3 -7 0 -16 -6 -20 -7 -5 -9 5 -4 32 25 154 16
278 -30 424 -12 41 -26 98 -30 125 -15 113 -9 132 60 178 92 61 108 124 62
238 -32 80 -32 85 -2 179 28 87 27 141 -3 233 -27 83 -32 108 -38 203 -4 67
-1 94 16 147 12 36 28 67 35 70 7 3 39 -18 72 -47 89 -79 253 -205 294 -226
38 -19 111 -36 204 -46 104 -11 368 -11 471 0 101 11 180 12 355 3 171 -10
257 22 405 150 50 43 102 83 115 89 49 23 98 44 103 44 2 0 3 -75 2 -167 -2
-167 -2 -168 -33 -228 -38 -74 -46 -139 -27 -222 15 -65 14 -102 -5 -171 -5
-22 -8 -56 -5 -76 4 -36 42 -116 55 -116 4 0 17 -21 30 -47 30 -61 31 -151 2
-248 -19 -64 -62 -287 -62 -326 0 -11 12 -16 44 -18 l44 -2 12 88 c12 90 28
165 56 263 32 116 14 254 -43 327 -17 21 -35 48 -42 60 -11 21 -8 83 4 103 13
21 12 116 -2 174 -18 75 -14 105 28 192 l33 69 0 182 c0 134 -3 188 -13 207
-47 86 -198 35 -376 -128 -27 -26 -79 -61 -115 -79 -70 -35 -97 -37 -355 -26
-49 2 -130 -1 -180 -6 -170 -17 -511 -9 -605 13 -20 5 -47 15 -60 22 -24 12
-140 97 -150 110 -3 3 -23 19 -45 36 -22 16 -59 46 -82 68 -89 81 -130 91
-186 45z"/>
<path d="M3727 4755 c-75 -19 -94 -64 -62 -141 20 -47 90 -131 126 -149 111
-58 248 -27 265 60 14 78 -37 142 -167 203 -83 39 -103 42 -162 27z m98 -45
c11 -5 15 -9 8 -9 -17 -1 -53 -140 -45 -176 3 -15 -56 56 -73 86 -20 37 -25
76 -12 87 25 20 89 26 122 12z m141 -76 c34 -27 55 -73 46 -108 -6 -21 -58
-46 -97 -46 -27 0 -32 9 -13 28 7 7 11 39 10 82 -1 43 3 70 9 70 6 0 26 -12
45 -26z"/>
<path d="M4670 4732 c-69 -23 -144 -66 -169 -98 -29 -37 -36 -96 -16 -134 50
-97 252 -87 332 18 25 32 28 45 27 105 -1 118 -50 149 -174 109z m106 -30 c12
-8 20 -30 28 -76 6 -36 -16 -85 -49 -109 -25 -18 -25 -18 -26 5 -3 59 -7 103
-13 138 -5 31 -3 39 11 43 28 7 37 7 49 -1z m-153 -150 c4 -91 7 -88 -65 -60
-62 23 -48 116 22 150 40 19 37 25 43 -90z"/>
<path d="M4255 4274 c-11 -2 -48 -12 -82 -20 -60 -15 -61 -17 -52 -41 5 -13
23 -44 40 -69 74 -108 150 -105 227 11 l33 49 -34 34 c-34 33 -83 47 -132 36z
m86 -54 c10 -6 19 -17 19 -24 0 -18 -37 -49 -49 -41 -6 3 -11 -2 -11 -13 0
-11 -7 -23 -16 -26 -24 -9 -36 -7 -28 6 4 6 -2 18 -12 26 -19 14 -18 15 1 8
16 -6 17 -5 8 5 -9 9 -15 9 -26 0 -11 -9 -17 -8 -28 6 -9 11 -10 14 -1 9 6 -4
12 -2 12 3 0 6 -7 11 -15 11 -32 0 -13 19 28 28 58 13 95 14 118 2z"/>
<path d="M4221 4194 c0 -11 3 -14 6 -6 3 7 2 16 -1 19 -3 4 -6 -2 -5 -13z"/>
<path d="M4265 4197 c-14 -11 -15 -16 -5 -22 9 -5 11 -4 6 3 -9 15 -1 15 27 1
20 -9 20 -9 5 4 -10 8 -15 17 -11 20 11 12 -3 7 -22 -6z"/>
<path d="M4330 4200 c0 -5 5 -10 10 -10 6 0 10 5 10 10 0 6 -4 10 -10 10 -5 0
-10 -4 -10 -10z"/>
<path d="M4270 4140 c0 -5 5 -10 10 -10 6 0 10 5 10 10 0 6 -4 10 -10 10 -5 0
-10 -4 -10 -10z"/>
<path d="M3903 4181 c-4 -3 -9 -15 -10 -26 -1 -11 0 -14 3 -7 3 6 10 10 15 7
5 -4 6 2 2 11 -4 11 -3 15 5 10 6 -3 13 -3 16 2 6 10 -19 12 -31 3z"/>
<path d="M3941 4161 c-10 -23 -10 -24 3 -8 10 13 15 14 18 5 3 -7 7 -4 10 8 8
30 -18 26 -31 -5z"/>
<path d="M3990 4186 c0 -2 8 -10 18 -17 15 -13 16 -12 3 4 -13 16 -21 21 -21
13z"/>
<path d="M4540 4178 c0 -4 -8 -5 -17 -2 -13 4 -14 3 -5 -3 7 -6 12 -14 10 -19
-1 -5 3 -19 10 -31 15 -27 -2 -32 -18 -5 -6 9 -10 11 -8 3 2 -8 15 -21 28 -30
19 -12 22 -13 15 -2 -6 11 -4 13 8 8 8 -3 18 0 21 8 3 9 0 12 -10 8 -8 -3 -21
3 -28 13 -14 19 -11 44 6 44 5 0 7 -4 4 -8 -2 -4 4 -9 15 -9 10 -1 19 3 19 8
0 6 -5 7 -12 3 -7 -5 -9 -2 -6 7 4 10 -1 15 -13 15 -11 0 -19 -4 -19 -8z"/>
<path d="M4614 4183 c4 -7 2 -13 -3 -13 -6 0 -11 -5 -11 -11 0 -5 4 -8 9 -5 5
4 11 1 13 -6 3 -8 7 -6 11 4 3 10 -1 22 -11 30 -11 9 -14 10 -8 1z"/>
<path d="M3836 4161 c13 -13 17 -13 21 -2 5 11 7 11 15 0 8 -12 9 -11 6 1 -3
8 -17 15 -32 16 -25 1 -26 0 -10 -15z"/>
<path d="M4647 4160 c-3 -11 -3 -20 -1 -20 2 0 8 9 14 20 6 11 7 20 2 20 -6 0
-12 -9 -15 -20z"/>
<path d="M4680 4160 c-6 -11 -7 -20 -2 -20 6 0 12 9 15 20 3 11 3 20 1 20 -2
0 -8 -9 -14 -20z"/>
<path d="M4710 4170 c0 -5 0 -12 0 -15 0 -3 3 -5 6 -4 4 0 10 -4 13 -10 4 -6
12 -2 20 10 7 12 8 18 2 15 -5 -4 -12 -2 -16 4 -8 13 -25 13 -25 0z m24 -8 c3
-5 -1 -9 -9 -9 -8 0 -12 4 -9 9 3 4 7 8 9 8 2 0 6 -4 9 -8z"/>
<path d="M3719 4168 c-1 -2 -3 -13 -4 -24 -2 -22 9 -25 33 -11 6 5 16 6 21 3
14 -9 41 4 41 19 0 8 -9 13 -19 12 -11 0 -17 -5 -15 -9 3 -5 11 -5 17 -2 9 5
9 4 1 -5 -13 -14 -47 -4 -37 12 3 6 1 7 -6 3 -6 -4 -9 -11 -6 -16 3 -5 1 -11
-5 -15 -9 -6 -14 7 -11 28 1 6 -7 10 -10 5z"/>
<path d="M3980 4163 c0 -6 6 -14 13 -16 9 -4 8 -8 -3 -16 -10 -7 -11 -11 -2
-11 6 0 12 -5 12 -10 0 -7 -6 -7 -20 0 -17 9 -19 8 -13 -7 6 -17 5 -17 -13 -1
-14 12 -23 14 -34 7 -12 -9 -12 -10 3 -5 15 5 17 2 12 -17 -4 -15 -4 -18 3 -8
5 7 14 11 20 7 6 -3 13 -2 17 4 4 6 10 8 15 5 5 -3 14 3 19 14 8 15 6 24 -9
43 -11 12 -19 18 -20 11z"/>
<path d="M4762 4150 c-7 -11 -12 -23 -12 -27 0 -5 5 0 11 10 5 9 15 17 20 17
6 0 7 -6 3 -12 -4 -7 -4 -10 1 -6 4 4 16 3 26 -3 15 -8 17 -6 12 8 -6 15 -4
16 9 5 13 -10 17 -10 21 1 3 9 -5 12 -27 12 -17 -1 -36 2 -41 6 -6 5 -16 0
-23 -11z"/>
<path d="M3646 4145 c-16 -12 -22 -12 -28 -2 -5 8 -8 9 -8 0 0 -7 -12 -10 -32
-8 -29 4 -30 3 -12 -10 16 -12 16 -14 3 -15 -9 0 -19 3 -23 7 -11 11 -36 12
-33 1 1 -6 -4 -13 -12 -16 -8 -2 -11 0 -7 6 10 16 -13 25 -29 12 -8 -6 -19 -9
-24 -6 -5 4 -12 2 -16 -4 -4 -6 -10 -8 -15 -5 -5 3 -21 -2 -35 -11 -23 -15
-30 -13 -26 9 2 13 -18 -2 -28 -22 -8 -15 -5 -17 19 -17 16 0 27 3 24 8 -3 4
9 6 25 4 19 -2 28 1 24 7 -4 6 0 8 10 4 12 -4 14 -2 10 11 -6 15 -4 15 14 -1
13 -11 23 -14 27 -8 4 6 13 8 20 5 7 -3 19 2 26 10 7 9 17 13 22 10 6 -4 5
-10 -3 -16 -10 -6 -6 -7 11 -2 14 4 30 7 37 7 6 0 9 6 7 12 -3 6 2 12 11 12
10 0 14 -6 10 -16 -4 -13 -2 -12 9 2 13 17 32 25 22 9 -3 -5 1 -9 9 -9 8 0 15
4 15 9 0 5 4 7 9 3 15 -9 25 15 12 28 -9 9 -11 8 -6 -3 4 -11 -1 -16 -16 -17
-17 -2 -18 1 -9 13 16 18 10 17 -14 -1z m-166 -40 c-7 -9 -15 -13 -17 -11 -7
7 7 26 19 26 6 0 6 -6 -2 -15z m-70 -9 c0 -2 -7 -7 -16 -10 -8 -3 -12 -2 -9 4
6 10 25 14 25 6z m-65 -16 c3 -5 1 -10 -4 -10 -6 0 -11 5 -11 10 0 6 2 10 4
10 3 0 8 -4 11 -10z"/>
<path d="M4867 4136 c-10 -25 -8 -34 3 -16 9 13 10 13 10 0 0 -12 2 -13 9 -1
5 7 14 10 20 7 6 -4 9 -11 7 -15 -3 -4 1 -8 9 -8 8 0 12 4 9 8 -2 4 0 10 6 14
5 3 10 -1 10 -10 0 -9 6 -15 13 -12 27 9 12 32 -20 31 -18 0 -33 4 -33 9 0 5
-6 4 -14 -2 -11 -9 -15 -9 -18 1 -3 8 -7 6 -11 -6z"/>
<path d="M5023 4112 c10 -13 8 -14 -11 -8 -12 4 -22 3 -22 -2 0 -6 12 -9 28
-7 15 2 33 -2 40 -7 10 -8 11 -6 6 8 -7 18 -6 18 16 -1 13 -11 20 -14 16 -7
-4 6 -3 12 3 12 5 0 15 -8 20 -17 8 -14 10 -15 11 -3 0 13 1 13 10 0 5 -8 10
-10 10 -5 0 6 5 3 10 -5 6 -10 10 -11 10 -2 0 6 5 12 11 12 5 0 7 -5 3 -12 -4
-7 -3 -8 5 -4 6 4 8 12 5 18 -4 6 -1 8 7 6 8 -3 13 -11 12 -17 -5 -18 14 -13
21 6 4 10 4 14 0 10 -4 -4 -13 -2 -20 4 -9 7 -19 7 -31 0 -12 -6 -25 -6 -34 0
-11 7 -10 9 6 10 11 0 14 3 7 6 -7 3 -19 -1 -27 -7 -12 -10 -16 -9 -21 3 -3 8
-13 14 -22 12 -9 -1 -23 3 -31 9 -11 8 -13 8 -7 -1 4 -8 1 -13 -9 -13 -9 0
-14 4 -11 8 3 5 -1 9 -9 9 -12 0 -12 -3 -2 -15z"/>
<path d="M3885 4101 c-3 -6 -11 -9 -16 -6 -5 3 -6 -1 -3 -9 3 -8 13 -17 21
-20 13 -5 14 -4 3 9 -15 18 0 20 20 3 12 -11 12 -10 0 7 -8 11 -15 21 -16 23
-1 2 -5 -2 -9 -7z"/>
<path d="M4595 4094 c-21 -22 -19 -30 3 -11 24 22 38 22 21 0 -7 -10 -9 -15
-5 -11 5 4 15 3 22 -3 15 -12 27 2 19 23 -8 19 -42 20 -60 2z m55 -14 c0 -5
-2 -10 -4 -10 -3 0 -8 5 -11 10 -3 6 -1 10 4 10 6 0 11 -4 11 -10z"/>
<path d="M3294 4085 c-5 -11 -10 -13 -19 -5 -10 8 -15 8 -21 -1 -4 -8 -3 -9 4
-5 7 4 12 3 12 -2 0 -6 8 -13 17 -16 10 -4 14 -4 11 0 -4 4 -3 15 3 25 5 11 7
19 4 19 -3 0 -8 -7 -11 -15z"/>
<path d="M3830 4091 c0 -5 6 -14 14 -20 12 -10 13 -8 9 8 -5 21 -23 30 -23 12z"/>
<path d="M4674 4080 c0 -11 4 -20 8 -20 4 0 8 9 8 20 0 11 -4 20 -8 20 -4 0
-8 -9 -8 -20z"/>
<path d="M3770 4080 c0 -6 -11 -8 -24 -6 -18 3 -23 1 -19 -10 3 -8 -1 -14 -11
-14 -9 0 -16 -4 -16 -8 0 -5 7 -9 15 -9 8 0 15 4 15 9 0 5 4 6 10 3 6 -3 7 1
4 10 -5 11 -2 14 10 9 9 -3 13 -11 9 -17 -3 -6 -1 -7 5 -3 7 4 22 9 33 11 28
6 30 8 19 25 -8 13 -10 13 -10 0 0 -9 -9 -16 -19 -17 -14 -1 -18 3 -14 13 3 8
2 14 -1 14 -3 0 -6 -5 -6 -10z"/>
<path d="M4727 4071 c2 -8 -2 -11 -12 -7 -9 3 -14 2 -10 -3 8 -13 74 -6 88 9
9 10 9 11 -2 5 -8 -4 -17 -2 -23 6 -8 11 -9 10 -4 -3 3 -10 1 -18 -4 -18 -6 0
-10 8 -10 18 0 13 -2 14 -9 3 -5 -7 -11 -9 -13 -5 -3 5 -3 3 -1 -5z"/>
<path d="M5246 4075 c-9 -26 -7 -32 5 -12 6 10 9 21 6 23 -2 3 -7 -2 -11 -11z"/>
<path d="M5276 4082 c2 -3 -1 -11 -7 -18 -10 -13 6 -32 18 -20 4 3 0 6 -8 6
-12 0 -11 2 1 10 10 6 12 12 4 18 -6 5 -9 7 -8 4z"/>
<path d="M4001 4053 c14 -16 5 -17 -23 -2 -13 7 -18 7 -14 1 3 -6 2 -13 -4
-17 -5 -3 -10 -1 -10 6 0 7 -3 10 -6 6 -3 -3 -1 -14 5 -24 6 -11 11 -13 11 -5
0 7 3 11 8 9 4 -3 16 -1 26 2 22 9 30 38 10 38 -10 0 -11 -4 -3 -14z"/>
<path d="M4513 4054 c0 -10 4 -11 11 -4 16 16 30 12 16 -5 -12 -14 -8 -17 16
-14 4 0 11 -5 16 -13 8 -10 9 -10 5 2 -2 8 -10 14 -16 13 -6 -2 -11 2 -11 7 0
6 5 10 12 10 20 0 0 13 -25 15 -15 2 -24 -2 -24 -11z"/>
<path d="M4810 4062 c0 -6 -8 -13 -17 -15 -16 -4 -16 -5 -1 -6 18 -1 34 16 24
26 -3 4 -6 1 -6 -5z"/>
<path d="M4838 4063 c10 -4 9 -9 -5 -19 -15 -12 -15 -13 -2 -8 10 3 20 1 23
-4 3 -5 21 -8 40 -6 25 3 35 0 40 -12 6 -15 8 -15 28 2 19 17 21 17 15 2 -3
-10 -1 -20 5 -24 7 -4 8 -3 4 4 -4 7 -3 12 3 12 5 0 11 -5 13 -10 2 -6 9 -1
16 10 7 12 8 20 2 20 -5 0 -10 -5 -10 -12 0 -6 -8 -4 -19 6 -16 15 -19 15 -31
1 -18 -21 -26 -10 -9 12 13 16 12 17 -3 4 -10 -7 -18 -9 -18 -4 0 5 -7 10 -15
10 -8 0 -15 -5 -15 -11 0 -8 -2 -8 -8 0 -8 13 -47 34 -59 33 -4 0 -2 -3 5 -6z
m32 -23 c0 -5 -2 -10 -4 -10 -3 0 -8 5 -11 10 -3 6 -1 10 4 10 6 0 11 -4 11
-10z"/>
<path d="M3633 4046 c-3 -5 -1 -6 5 -2 7 4 12 2 12 -3 0 -6 -7 -11 -15 -11 -8
0 -15 6 -15 13 0 8 -4 7 -10 -3 -8 -12 -12 -13 -19 -2 -6 11 -10 10 -15 -4 -6
-14 -9 -16 -15 -5 -6 9 -8 4 -8 -15 0 -16 2 -24 4 -17 2 7 12 9 21 6 15 -4 15
-3 2 6 -8 6 -10 11 -5 12 31 4 41 3 46 -5 4 -4 16 1 28 13 26 26 35 27 26 4
-5 -14 -3 -15 6 -6 6 6 8 16 5 21 -8 13 -45 11 -53 -2z"/>
<path d="M4588 4038 c5 -5 16 -8 23 -6 8 3 3 7 -10 11 -17 4 -21 3 -13 -5z"/>
<path d="M3920 4029 c0 -5 -6 -7 -12 -3 -9 5 -9 2 1 -9 7 -9 19 -17 25 -16 7
0 7 2 -1 5 -7 3 -9 12 -6 20 3 8 2 14 -1 14 -3 0 -6 -5 -6 -11z"/>
<path d="M3530 4019 c0 -5 -4 -7 -10 -4 -5 3 -10 2 -10 -3 0 -19 26 -20 27 -1
1 10 0 19 -3 19 -2 0 -4 -5 -4 -11z"/>
<path d="M3880 4022 c0 -7 -3 -11 -7 -11 -23 4 -42 -3 -47 -17 -10 -26 4 -37
25 -18 10 9 19 14 19 9 0 -4 6 -2 13 4 8 6 18 7 23 3 4 -4 2 2 -6 13 -8 11
-16 22 -17 24 -2 2 -3 -1 -3 -7z m4 -24 c-4 -5 -9 -7 -12 -4 -3 3 -14 -1 -24
-11 -10 -9 -18 -11 -18 -5 0 13 25 29 45 29 8 0 12 -4 9 -9z"/>
<path d="M4631 4022 c-1 -7 -5 -10 -11 -7 -6 4 -7 -1 -3 -11 4 -12 8 -14 11
-5 3 8 8 7 16 -5 7 -9 18 -14 24 -10 15 9 16 26 1 26 -5 0 -7 -4 -4 -10 3 -5
2 -10 -3 -10 -5 0 -14 10 -20 23 -6 12 -11 16 -11 9z"/>
<path d="M3470 4010 c-8 -5 -18 -6 -24 -3 -5 3 -6 1 -2 -5 4 -7 3 -12 -3 -12
-5 0 -11 3 -14 8 -2 4 -2 2 -1 -5 4 -17 -26 -25 -42 -12 -11 9 -14 9 -14 0 0
-7 -5 -9 -10 -6 -6 3 -13 -1 -16 -9 -7 -18 -34 -22 -34 -4 0 6 -2 9 -5 6 -3
-3 -3 -12 1 -21 5 -15 9 -15 34 -2 15 8 31 11 35 7 5 -4 5 -2 2 4 -5 8 4 11
26 10 23 -2 39 5 55 22 13 13 26 21 29 18 4 -3 -2 -13 -13 -22 -18 -14 -18
-15 4 -4 22 11 28 25 14 34 -4 2 -14 1 -22 -4z"/>
<path d="M5030 4000 c-9 -19 -9 -22 0 -13 7 6 19 9 26 6 8 -3 14 0 14 7 0 6
-4 9 -9 6 -5 -4 -11 0 -13 6 -3 8 -10 3 -18 -12z"/>
<path d="M5080 3999 c0 -6 7 -9 16 -7 10 2 19 -3 21 -10 3 -8 -2 -10 -14 -6
-14 5 -15 4 -3 -4 8 -6 18 -8 22 -6 4 3 8 0 8 -5 0 -6 8 -3 18 7 23 21 19 30
-5 11 -15 -12 -16 -12 -10 3 3 10 3 17 -1 17 -4 -1 -9 0 -12 1 -19 7 -40 7
-40 -1z"/>
<path d="M3776 3981 c-17 -11 -34 -17 -39 -14 -6 4 -7 1 -2 -7 6 -10 3 -12
-13 -8 -12 4 -20 2 -16 -3 5 -8 0 -10 -34 -13 -7 -1 -17 -7 -21 -15 -5 -7 -13
-11 -19 -7 -6 3 -14 1 -18 -5 -5 -8 -3 -9 6 -4 9 5 10 1 6 -16 -6 -21 -5 -21
4 -6 6 9 16 14 22 11 7 -4 8 -2 4 4 -4 7 -2 12 4 12 6 0 8 5 4 12 -4 7 -3 8 5
4 6 -4 9 -12 6 -17 -4 -5 -1 -9 4 -9 6 0 11 7 11 15 0 16 15 21 23 8 2 -5 2
-2 1 5 -4 15 8 16 23 1 8 -8 13 -7 18 2 5 8 4 10 -3 5 -7 -4 -12 -3 -12 3 0 6
10 15 22 22 18 10 20 9 15 -5 -4 -11 -3 -15 4 -11 6 4 8 13 5 21 -3 8 -1 14 3
14 5 0 11 -6 14 -12 3 -7 4 -3 4 10 -1 12 -1 22 -2 22 0 0 -13 -9 -29 -19z"/>
<path d="M4699 3987 c-8 -7 -12 -11 -10 -9 2 1 13 -5 23 -15 10 -9 18 -12 18
-7 0 5 5 2 11 -6 9 -13 10 -13 6 1 -3 9 -2 20 1 25 4 5 6 8 3 7 -2 -1 -11 2
-21 7 -11 6 -22 5 -31 -3z m35 -18 c-6 -11 -24 -2 -24 11 0 5 7 7 15 4 8 -4
12 -10 9 -15z"/>
<path d="M5458 3988 c10 -13 10 -17 0 -20 -9 -3 -9 -6 0 -12 7 -4 12 -2 12 3
0 6 5 11 11 11 5 0 8 -4 4 -9 -3 -6 3 -14 13 -20 14 -7 19 -6 19 4 0 8 -7 11
-16 7 -14 -5 -14 -4 -1 14 8 10 10 16 5 11 -4 -4 -20 0 -34 10 -22 14 -24 14
-13 1z"/>
<path d="M4255 3983 c-31 -6 -117 -45 -145 -67 -19 -15 -21 -18 -5 -12 117 43
201 43 284 2 66 -34 73 -33 31 4 -60 52 -124 80 -165 73z"/>
<path d="M4767 3973 c-4 -3 -7 -11 -7 -17 0 -6 5 -4 10 4 7 12 10 12 10 1 0
-7 6 -11 14 -8 8 3 20 -1 28 -10 11 -14 10 -15 -12 -8 -31 9 -25 2 19 -20 21
-10 30 -12 25 -4 -5 9 -2 10 10 6 10 -4 20 -7 22 -7 2 0 4 -5 4 -11 0 -5 -5
-7 -12 -3 -7 4 -8 3 -4 -4 4 -6 13 -9 21 -5 8 3 15 1 15 -5 0 -5 18 -17 39
-25 22 -9 42 -20 45 -25 7 -12 52 -8 48 4 -2 5 -10 8 -18 6 -8 -2 -13 2 -12 9
2 6 -4 14 -12 16 -12 4 -12 3 -1 -5 9 -6 10 -12 3 -16 -6 -4 -16 3 -22 14 -8
16 -17 19 -33 14 -20 -6 -21 -5 -7 12 14 17 13 18 -1 6 -13 -10 -18 -10 -28 1
-6 8 -7 18 -3 22 4 5 1 5 -5 1 -7 -4 -13 -2 -13 4 0 6 -4 9 -9 6 -5 -3 -25 5
-45 19 -20 13 -36 22 -36 18 0 -3 -6 0 -13 6 -8 6 -17 8 -20 4z"/>
<path d="M5188 3958 c4 -18 5 -18 19 -1 12 14 14 15 10 2 -3 -8 3 -21 13 -27
17 -10 17 -9 5 15 -16 31 -55 40 -47 11z"/>
<path d="M5156 3962 c-3 -5 1 -9 9 -9 8 0 12 4 9 9 -3 4 -7 8 -9 8 -2 0 -6 -4
-9 -8z"/>
<path d="M5241 3963 c-1 -17 16 -25 25 -12 4 7 3 9 -4 5 -5 -3 -13 0 -15 6 -4
9 -6 10 -6 1z"/>
<path d="M3333 3913 c-29 -10 -10 -69 48 -148 47 -66 45 -64 194 -138 123 -61
227 -99 305 -112 19 -3 49 -9 65 -14 28 -7 119 -6 204 2 20 2 36 9 35 16 -1 6
-2 16 -2 21 -1 7 -35 9 -100 4 -65 -4 -117 -2 -157 7 -33 7 -64 13 -70 15 -64
13 -154 49 -268 106 -134 67 -139 70 -177 130 -35 54 -45 76 -42 100 2 9 -21
16 -35 11z"/>
<path d="M3584 3886 c-3 -8 -13 -12 -22 -9 -13 4 -14 3 -4 -5 11 -7 11 -10 -2
-15 -9 -4 -16 -12 -16 -19 0 -10 2 -10 9 1 5 8 14 10 21 6 9 -5 11 -4 6 3 -4
7 -2 12 3 12 6 0 11 8 11 18 0 14 2 15 10 2 6 -9 10 -10 10 -3 0 19 -20 26
-26 9z"/>
<path d="M3525 3860 c-4 -6 -11 -7 -17 -4 -7 4 -8 2 -4 -4 10 -16 23 -15 30 3
6 17 0 20 -9 5z"/>
<path d="M5155 3817 c-51 -54 -178 -153 -231 -180 -45 -22 -201 -68 -240 -70
-23 -1 -36 -8 -40 -20 -8 -24 0 -30 33 -29 64 3 247 64 303 102 25 16 62 41
83 55 45 31 177 160 177 173 0 8 -22 22 -33 22 -1 0 -25 -24 -52 -53z"/>
<path d="M3494 3833 c16 -20 36 -23 36 -6 0 4 -3 3 -7 0 -3 -4 -16 1 -27 10
-21 18 -21 18 -2 -4z"/>
<path d="M3057 3793 c-4 -3 -7 -11 -7 -17 0 -6 5 -5 12 2 6 6 9 14 7 17 -3 3
-9 2 -12 -2z"/>
<path d="M5500 3781 c0 -6 4 -13 10 -16 6 -3 7 1 4 9 -7 18 -14 21 -14 7z"/>
<path d="M3018 3773 c6 -2 12 -9 12 -14 0 -6 -5 -7 -12 -3 -7 5 -8 3 -3 -5 5
-9 11 -9 17 -3 12 12 2 32 -15 31 -9 0 -9 -2 1 -6z"/>
<path d="M5492 3754 c10 -10 20 -16 22 -13 3 3 -5 11 -17 18 -21 13 -21 12 -5
-5z"/>
<path d="M1440 2422 c-55 -4 -243 -35 -278 -46 -9 -3 -35 -8 -57 -11 -76 -12
-194 -44 -237 -66 -24 -12 -96 -75 -163 -143 -128 -129 -167 -190 -201 -311
-25 -88 -22 -220 8 -322 45 -151 130 -260 273 -348 44 -27 105 -69 135 -93 63
-51 91 -63 141 -65 42 -1 89 29 117 76 11 17 34 73 51 122 18 50 43 115 56
146 14 30 30 80 36 110 25 120 74 158 243 183 21 4 42 8 45 11 15 9 131 17
314 21 106 2 216 6 245 7 75 4 175 -8 294 -37 56 -13 111 -28 120 -31 18 -7
31 14 40 60 3 20 2 21 -152 60 -154 39 -172 40 -515 30 -259 -7 -302 -11 -444
-40 -173 -34 -232 -84 -272 -231 -12 -43 -25 -83 -29 -89 -4 -5 -28 -68 -54
-140 -51 -144 -77 -182 -117 -166 -13 5 -40 23 -59 41 -19 17 -73 54 -120 82
-153 92 -243 210 -273 362 -39 194 9 328 181 501 57 58 122 115 143 125 34 18
113 40 191 54 15 2 65 12 110 22 108 21 104 21 166 29 29 4 67 7 85 6 17 0
185 -3 372 -5 320 -5 444 -9 678 -22 89 -5 97 -4 98 13 0 10 2 30 4 46 3 25 1
27 -33 28 -20 0 -71 2 -112 4 -221 12 -290 14 -570 16 -168 1 -332 4 -365 8
-33 3 -76 5 -95 3z"/>
</g>
</svg>
