<svg width="400" height="400" viewBox="0 0 400 400" fill="none" xmlns="http://www.w3.org/2000/svg">
  <g opacity="0.8">
    <!-- Person sitting with cosmic elements -->
    <path d="M200 120c-30 0-55 25-55 55v80c0 15 12 27 27 27h56c15 0 27-12 27-27v-80c0-30-25-55-55-55z" fill="#1a1a1a" stroke="#666" stroke-width="2"/>
    
    <!-- Cosmic flowing hair/space -->
    <path d="M150 100c20-40 80-50 120-20s30 80-10 100c-20 10-40-5-50-25s-40-35-60-55z" fill="none" stroke="#1a1a1a" stroke-width="2"/>
    
    <!-- Stars and cosmic elements -->
    <circle cx="120" cy="80" r="3" fill="#1a1a1a"/>
    <circle cx="280" cy="90" r="2" fill="#1a1a1a"/>
    <circle cx="180" cy="60" r="2" fill="#1a1a1a"/>
    <circle cx="320" cy="120" r="3" fill="#1a1a1a"/>
    
    <!-- Planets/celestial bodies -->
    <circle cx="100" cy="150" r="8" fill="none" stroke="#1a1a1a" stroke-width="2"/>
    <circle cx="320" cy="180" r="12" fill="#1a1a1a" opacity="0.6"/>
    
    <!-- Work tools scattered around -->
    <rect x="80" y="280" width="20" height="25" rx="2" fill="none" stroke="#1a1a1a" stroke-width="2"/>
    <rect x="110" y="285" width="15" height="20" rx="1" fill="none" stroke="#1a1a1a" stroke-width="2"/>
    
    <!-- Coffee cup -->
    <ellipse cx="90" cy="320" rx="8" ry="6" fill="none" stroke="#1a1a1a" stroke-width="2"/>
    <path d="M98 320h5c3 0 5-2 5-5s-2-5-5-5h-5" fill="none" stroke="#1a1a1a" stroke-width="2"/>
  </g>
</svg>