<svg width="454" height="454" viewBox="0 0 454 454" fill="none" xmlns="http://www.w3.org/2000/svg">
<path d="M160.648 340.727C164.432 339.388 168.309 338.324 172.248 337.549L172.725 339.297C172.778 339.503 172.903 339.683 173.078 339.804C173.254 339.925 173.466 339.978 173.678 339.955L189.272 338.139C193.563 328.355 201.44 313.532 201.553 313.305C201.44 309.605 201.553 306.495 201.553 302.954C192.632 306.268 176.13 312.556 167.504 316.574C167.308 316.699 167.158 316.884 167.072 317.1C166.987 317.316 166.971 317.552 167.027 317.777C167.027 317.777 167.186 318.345 167.39 319.162C163.168 319.162 150.524 318.549 147.482 321.432C147.009 322.09 146.777 322.892 146.824 323.702C146.642 326.835 148.209 351.169 150.706 358.319C151.999 362.065 154.723 361.656 156.585 358.07C158.739 352.669 160.122 346.99 160.694 341.204C160.694 340.909 160.625 340.931 160.648 340.727ZM158.038 320.41C160.807 320.183 161.67 320.229 167.617 320.047C168.684 324.088 170.886 332.396 172.021 336.641C168.016 337.261 164.063 338.179 160.194 339.388C158.989 333.126 158.268 326.782 158.038 320.41Z" fill="#212121"/>
<path d="M369.579 121.74C370.146 120.945 369.42 119.924 368.807 119.129C370.544 117.344 372.469 115.753 374.55 114.385C378.063 112.635 381.273 110.336 384.061 107.575C385.219 106.372 387.398 103.898 386.581 102.445C385.764 100.992 384.311 100.901 382.336 101.741C383.191 100.843 383.891 99.8066 384.402 98.6765C385.037 96.9059 383.539 95.4758 380.293 96.7924C381.473 94.9083 381.746 92.9334 379.748 91.98C378.137 91.2082 375.776 93.0469 374.414 94.25C371.739 96.5869 369.229 99.1049 366.9 101.786C365.47 98.79 363.2 95.3396 360.362 96.4292C357.525 97.5188 359.727 102.399 361.18 105.055L356.027 108.619C355.248 108.199 354.368 108.003 353.484 108.052C347.628 109.05 320.728 129.526 318.004 129.526C315.916 129.526 286.088 115.225 260.301 111.093C260.252 110.939 260.159 110.802 260.034 110.697C259.909 110.593 259.758 110.526 259.597 110.503C255.099 109.736 250.54 109.394 245.977 109.482C245.839 109.491 245.705 109.53 245.584 109.597C245.461 109.664 245.357 109.756 245.273 109.868H243.367C242.913 108.029 241.233 103.784 240.643 102.15C242.186 100.81 244.32 100.129 245.432 97.9728C247.475 93.9776 247.385 87.0314 246.817 82.5822C249.382 80.63 249.45 77.4974 248.86 74.2967C248.633 73.0028 247.929 70.0745 246.84 69.3481C246.227 68.9395 244.933 69.3481 243.821 69.7567C242.708 67.1689 242.708 68.3493 243.162 67.3051C243.374 66.8239 243.497 66.3088 243.526 65.7842C244.729 66.1474 247.226 63.7412 246.363 60.5632C245.911 59.4257 245.357 58.3316 244.706 57.2944C245.024 56.5226 245.705 55.5919 243.571 52.7544C242.652 51.7631 241.458 51.0676 240.143 50.7568H239.099C238.346 49.6635 237.24 48.862 235.966 48.4868C234.045 47.9965 232.005 48.2821 230.291 49.2813C229.837 49.6218 229.474 50.0758 229.02 50.3936C227.993 49.7704 226.817 49.4411 225.615 49.4411C224.414 49.4411 223.238 49.7704 222.21 50.3936C221.609 50.6293 221.062 50.9842 220.602 51.4366C220.143 51.8893 219.778 52.43 219.532 53.0268C218.419 52.643 217.239 52.4952 216.066 52.593C214.895 52.6909 213.755 53.0318 212.722 53.5943C208.8 55.7207 205.866 59.2978 204.55 63.5596C204.514 64.2022 204.514 64.8465 204.55 65.4891H204.3C200.895 64.9897 196.559 73.0709 200.032 79.3588C200.441 80.1079 200.963 80.8116 201.462 81.6288C202.915 83.8988 202.348 84.5798 205.594 87.3492C206.547 88.1664 206.706 88.0983 207.296 88.5977C207.887 89.0971 207.66 88.8474 208 90.1186C208.185 90.8673 208.518 91.5722 208.978 92.1917C209.438 92.8113 210.017 93.3334 210.679 93.7279C210.921 95.9484 211.867 98.0327 213.38 99.6753C213.859 100.212 214.418 100.671 215.037 101.037C215.204 101.131 215.391 101.186 215.582 101.196C216.263 105.418 217.103 110.912 217.466 113.25L215.446 114.34C212.803 115.403 210.232 116.639 207.75 118.04C207.556 118.175 207.418 118.376 207.364 118.607C204.958 119.878 202.688 121.081 201.394 121.853C183.371 132.545 132.182 203.028 131.66 206.252C131.603 206.437 131.603 206.634 131.66 206.819C132.394 207.99 133.288 209.052 134.316 209.975C133.999 210.554 133.618 211.093 133.181 211.586C128.641 214.56 121.831 218.987 118.177 222.936C117.92 223.165 117.727 223.457 117.619 223.782C117.509 224.107 117.486 224.456 117.553 224.792C117.619 225.129 117.772 225.443 117.997 225.704C118.222 225.963 118.511 226.16 118.834 226.273C119.515 226.5 119.629 226.432 124.056 224.003C122.839 225.07 121.844 226.366 121.128 227.817C120.832 229.065 121.967 229.792 123.398 229.565C124.202 229.353 124.968 229.016 125.668 228.566C125.258 229.198 125.04 229.936 125.04 230.689C125.04 231.441 125.258 232.179 125.668 232.811C127.938 235.671 133.885 226.659 137.018 224.435C138.289 226.046 140.014 229.814 142.76 228.816C145.144 227.93 142.533 222.687 142.76 221.166C143.684 220.279 144.67 219.46 145.712 218.714C147.462 220.012 149.465 220.933 151.591 221.415C155.336 221.415 194.425 181.963 197.399 178.808C196.332 188.841 190.952 231.903 192.087 240.279C192.609 244.07 201.712 244.615 205.548 244.819C204.391 272.059 203.619 313.328 203.415 313.759C197.399 326.721 195.765 330.262 193.744 334.189C190.067 341.226 174.586 367.195 172.838 373.097C172.588 374.028 172.565 374.391 173.541 376.116C170.616 379.192 167.902 382.461 165.415 385.9C164.167 388.17 169.524 409.326 173.314 416.817C174.177 418.497 175.584 421.085 177.469 421.019C183.144 420.812 183.121 400.428 182.962 394.73C182.961 394.554 182.897 394.386 182.78 394.253C183.809 392.717 184.931 391.247 186.14 389.849C186.862 390.347 187.621 390.786 188.41 391.166C189.182 391.507 190.044 390.916 190.68 390.394C198.239 384.447 239.008 333.644 247.748 309.673C251.72 298.732 257.009 283.613 258.508 272.899C259.423 266.125 259.508 259.264 258.757 252.469C258.757 252.372 258.795 252.28 258.863 252.212C258.931 252.144 259.024 252.106 259.12 252.106C259.217 252.106 259.31 252.144 259.378 252.212C259.446 252.28 259.484 252.372 259.484 252.469C260.621 259.302 260.842 266.257 260.142 273.149C258.462 288.017 246.726 319.003 240.461 330.398C245.864 329.399 256.85 327.22 262.162 325.631C279.868 320.251 296.212 304.202 297.642 286.179C298.106 277.687 298.106 269.178 297.642 260.686C297.489 248.964 295.966 237.3 293.102 225.933C297.915 223.322 302.319 220.258 303.749 217.443C306.813 211.427 298.709 176.81 296.939 167.094C306.632 168.161 323.134 170.091 330.83 164.075C339.637 156.993 358.66 137.062 369.579 121.74ZM181.736 393.481C177.65 391.007 171.93 385.128 171.067 380.52C171.998 379.339 172.974 378.25 173.882 377.024C176.958 381.719 180.794 385.869 185.232 389.305C183.985 390.627 182.818 392.021 181.736 393.481ZM362.201 105.691C362.318 105.616 362.404 105.499 362.436 105.364C362.47 105.229 362.451 105.086 362.383 104.964C361.588 103.489 359.205 98.2906 360.862 97.7004C361.815 97.3372 362.655 97.9274 363.359 98.7219C364.434 100.085 365.269 101.62 365.833 103.262C365.875 103.395 365.952 103.515 366.058 103.608C366.162 103.701 366.291 103.763 366.427 103.789C366.565 103.815 366.707 103.802 366.84 103.753C366.97 103.705 367.085 103.621 367.172 103.512C369.442 100.992 374.754 95.2488 377.751 93.7052C380.021 92.5248 380.565 94.704 375.004 99.7888C373.727 100.763 372.5 101.801 371.327 102.899C371.262 102.988 371.226 103.095 371.226 103.205C371.226 103.315 371.262 103.422 371.327 103.512C371.327 104.102 371.803 104.76 372.62 104.147C374.594 102.415 376.68 100.815 378.863 99.3575C379.977 98.5659 381.273 98.0661 382.631 97.9047C381.95 99.9931 375.617 105.668 375.072 106.304C374.9 106.459 374.794 106.675 374.779 106.907C374.766 107.138 374.841 107.366 374.993 107.542C375.146 107.717 375.36 107.826 375.59 107.845C375.823 107.864 376.052 107.792 376.23 107.643C378.749 106.009 383.153 102.195 384.674 102.763C386.195 103.33 381.678 107.552 380.543 108.551C374.028 114.203 375.708 110.571 368.171 118.244C364.891 114.65 361.125 111.533 356.98 108.982L362.201 105.691ZM263.57 214.265C263.184 211.132 262.707 207.75 262.117 204.232L263.093 202.938C267.633 197.104 268.995 187.819 268.564 180.533C270.993 191.179 272.922 201.644 274.398 212.04L263.57 214.265ZM229.815 136.54C223.845 132 214.243 124.169 208.658 118.811L217.738 114.271C226.077 122.06 233.214 131.041 238.917 140.921C247.64 156.944 254.11 174.093 258.144 191.883L225.774 146.097L229.996 137.335C230.053 137.2 230.064 137.051 230.032 136.909C230 136.766 229.925 136.638 229.815 136.54ZM245.16 110.798C245.296 111.048 246.862 114.385 249.246 120.219C249.246 120.469 248.815 126.144 248.61 128.141C245.713 126.993 242.981 125.466 240.484 123.601C240.983 121.626 243.23 112.66 243.389 110.639L245.16 110.798ZM237.101 135.178C237.26 134.77 237.419 134.225 237.601 133.589L239.122 134.384C239.984 134.951 239.644 133.226 240.416 138.22C240.416 139.06 240.643 139.991 240.688 141.012C239.644 139.128 238.35 137.108 237.124 135.178H237.101ZM235.83 133.271C231.542 127.189 226.659 121.547 221.257 116.428L238.35 123.851C237.692 125.417 236.738 130.207 235.853 133.271H235.83ZM253.287 146.574C251.017 140.376 249.269 133.453 248.406 131.637C248.457 131.071 248.457 130.501 248.406 129.934C248.735 130.057 249.078 130.133 249.428 130.161C249.647 130.164 249.859 130.087 250.026 129.945C250.194 129.804 250.303 129.606 250.336 129.39C250.517 128.641 250.812 124.85 250.858 124.01C257.462 140.682 262.974 157.766 267.361 175.153C254.535 147.867 256.51 155.767 253.309 146.574H253.287ZM272.059 189.908C266.884 165.097 257.781 134.157 247.43 111.23C251.232 111.232 255.027 111.535 258.78 112.138C260.709 129.39 259.098 128.799 260.392 129.48C261.686 130.161 269.472 133.294 270.629 133.771C270.516 135.519 272.15 185.504 272.082 189.908H272.059ZM245.932 70.8009C247.116 73.3834 247.532 76.251 247.135 79.0637C246.95 79.7798 246.571 80.4303 246.038 80.9429C245.504 81.4559 244.84 81.8108 244.118 81.9685C243.397 82.1262 242.644 82.0803 241.946 81.836C241.248 81.5917 240.633 81.1583 240.166 80.5846C239.082 78.3031 238.269 75.9035 237.737 73.4341C238.35 72.6396 244.888 71.0506 245.932 70.8009ZM214.697 93.5009C213.868 93.1233 213.019 92.7902 212.154 92.5021C211.573 92.2636 211.057 91.8954 210.641 91.4257C210.225 90.956 209.922 90.3976 209.756 89.7926C209.589 89.1879 209.563 88.5531 209.68 87.9365C209.797 87.3203 210.053 86.7388 210.429 86.2369C211.859 85.0338 213.153 85.1019 214.333 86.8952C215.082 88.2799 215.06 88.3934 215.4 88.5296C215.499 88.5726 215.605 88.5944 215.711 88.5932C215.817 88.5919 215.922 88.568 216.019 88.523C216.115 88.478 216.203 88.4124 216.271 88.3315C216.34 88.2506 216.392 88.1557 216.422 88.0529C216.759 86.6323 216.811 85.1589 216.581 83.7172C216.308 82.1509 216.263 75.2047 216.308 74.9777C216.972 75.3273 217.716 75.492 218.465 75.4544C222.573 75.2955 223.391 73.1844 225.025 71.4592C226.909 71.6408 227.295 72.5488 229.429 71.4592C230.428 70.8909 231.345 70.1884 232.153 69.3708C232.805 69.6379 233.436 69.9569 234.037 70.3242C235.397 70.9784 236.931 71.1794 238.414 70.8975C239.897 70.6156 241.252 69.8657 242.277 68.7579C242.527 69.2346 242.754 69.7113 242.958 70.2107C240.872 70.8583 238.908 71.8476 237.147 73.139C236.761 73.6157 237.328 76.2035 237.465 76.8164C235.564 77.0558 233.723 77.6485 232.039 78.5643C231.699 77.3839 230.95 75.182 229.769 74.5691C229.414 74.4606 229.035 74.4606 228.68 74.5691C226.637 74.8869 219.305 77.0888 218.419 78.2919C217.648 79.1318 219.849 85.624 220.53 86.6909C223.141 90.7315 230.791 89.5511 232.221 84.8295C232.575 83.2451 232.575 81.6016 232.221 80.0171C232.879 80.0171 234.854 79.3134 235.081 79.2453C236.647 82.7638 237.101 82.9681 238.917 86.759C238.668 86.9633 238.259 87.3038 237.919 87.5308C236.307 88.5977 235.966 88.4161 236.057 88.8701C236.084 88.9601 236.142 89.0377 236.222 89.0876C236.301 89.138 236.396 89.1574 236.489 89.1425C237.442 89.0063 238.373 88.7471 239.258 88.3707C239.788 88.173 240.225 87.7842 240.484 87.2811C241.119 85.851 237.601 80.4711 236.216 78.8594C236.489 78.8594 237.124 78.4054 237.601 78.1557C238.236 80.6981 238.668 82.6957 241.119 83.6945C241.829 83.962 242.584 84.0837 243.34 84.0528C244.097 84.0214 244.838 83.8377 245.523 83.5129C245.886 87.5081 245.818 94.0003 243.911 97.5415C242.935 99.3802 240.529 100.084 238.986 101.605C238.532 102.036 238.827 102.649 238.986 103.307C241.505 110.322 241.551 110.299 241.414 111.207C240.747 114.976 239.814 118.693 238.622 122.33C238.055 122.08 231.676 118.698 219.191 113.84C218.805 111.275 216.74 97.5869 216.081 95.0672C216.127 94.1819 216.013 93.9776 214.697 93.3874V93.5009ZM230.587 84.2393C229.86 86.7136 226.432 87.7805 223.981 87.0995C221.529 86.4185 221.37 85.17 220.213 82.219C219.67 81.0919 219.295 79.8908 219.1 78.6551C219.849 77.8379 228.044 76.1581 229.066 75.9992C230.498 78.4504 231.037 81.3226 230.587 84.1258V84.2393ZM141.762 220.53C140.899 221.37 142.057 224.117 142.238 226.5C142.238 226.705 142.238 227.59 142.102 227.658C140.853 228.067 139.696 226.182 138.992 225.047C138.288 223.912 137.585 222.369 136.472 222.777C134.202 223.844 128.936 230.836 126.87 231.562C125.826 229.565 131.797 223.867 132.001 223.549C132.088 223.404 132.134 223.235 132.133 223.067C132.132 222.897 132.085 222.728 131.996 222.585C131.907 222.439 131.78 222.322 131.629 222.242C131.477 222.165 131.308 222.131 131.138 222.142C130.73 222.142 130.457 222.505 129.821 223.073C127.888 224.959 125.675 226.536 123.261 227.749C125.45 225.237 127.793 222.865 130.275 220.644C130.398 220.517 130.484 220.36 130.525 220.19C130.525 220.19 130.049 218.987 129.118 219.463C127.801 220.19 121.4 223.89 119.38 224.843C119.107 224.662 119.266 224.389 119.38 224.117C122.58 220.19 129.617 215.423 133.93 212.404C134.436 211.881 134.858 211.285 135.178 210.633C138.166 213.412 141.352 215.969 144.712 218.283C143.677 218.962 142.691 219.713 141.762 220.53ZM194.584 241.164C194.085 240.847 193.722 240.552 193.654 240.143C192.405 230.881 199.351 178.399 199.238 176.333C199.238 176.212 199.213 176.092 199.166 175.98C199.121 175.869 199.05 175.768 198.964 175.683C198.877 175.599 198.774 175.532 198.661 175.488C198.549 175.443 198.428 175.422 198.307 175.425C197.149 175.425 199.192 175.425 170.273 203.119C168.366 204.913 153.792 218.85 151.364 219.781C148.027 219.531 135.474 209.521 133.431 206.365C137.38 198.375 185.277 132.636 201.848 122.58C203.12 121.808 205.299 120.605 207.682 119.334C208.507 120.111 209.394 120.817 210.338 121.445C215.605 126.439 222.937 132.658 228.498 137.335L224.162 145.938C224.096 146.052 224.062 146.181 224.062 146.313C224.062 146.444 224.096 146.573 224.162 146.687C259.37 197.195 258.848 196.627 259.075 196.627C261.332 208.299 262.736 220.118 263.275 231.994C263.275 235.194 263.275 234.922 263.411 234.695C263.547 234.468 263.411 234.854 263.411 234.854C257.917 240.847 203.551 246.431 194.584 241.164ZM320.07 165.959C309.787 167.389 298.164 165.256 295.917 165.165C294.669 159.113 292.179 153.386 288.608 148.344C288.553 148.271 288.474 148.22 288.383 148.204C288.294 148.187 288.201 148.205 288.124 148.253C288.046 148.302 287.989 148.378 287.965 148.467C287.942 148.555 287.952 148.649 287.995 148.73C289.311 151.409 293.715 162.963 294.805 165.778C294.464 166.867 305.065 210.701 302.069 216.603C299.39 221.938 283.795 228.657 278.166 230.586C277.053 217.948 275.234 205.383 272.718 192.95C273.49 186.412 272.491 147.55 272.196 133.181C272.186 133.014 272.131 132.852 272.035 132.716C271.938 132.579 271.806 132.473 271.651 132.409L261.459 128.118C261.413 122.724 261.071 117.336 260.437 111.979C285.884 116.383 315.53 130.933 318.004 130.956C321.591 130.956 348.241 110.526 353.757 109.709C356.208 109.323 366.741 118.516 367.967 121.059C357.207 136.086 338.298 155.835 329.536 162.668C326.714 164.555 323.454 165.688 320.07 165.959Z" fill="#212121"/>
<path d="M228.249 79.6995C228.22 79.5505 228.164 79.4085 228.08 79.2818C227.997 79.1547 227.889 79.0453 227.765 78.9599C227.638 78.8749 227.498 78.815 227.348 78.784C227.201 78.7531 227.048 78.7519 226.898 78.7803C226.749 78.8084 226.607 78.8658 226.48 78.9492C226.353 79.0325 226.244 79.1394 226.158 79.2649C226.073 79.3904 226.013 79.5315 225.983 79.6801C225.952 79.8287 225.95 79.9818 225.979 80.1308C226.433 82.4008 226.524 82.9229 227.522 82.9229C227.711 82.9233 227.897 82.8771 228.063 82.7879C228.23 82.6984 228.372 82.5692 228.474 82.4111C228.578 82.2534 228.641 82.0723 228.657 81.884C228.673 81.6958 228.642 81.5068 228.567 81.3339C228.499 80.9707 228.294 79.9038 228.249 79.6995ZM235.195 94.7269C236.671 95.1582 238.078 94.4545 238.033 94.0913C237.987 93.7281 238.033 93.9097 236.035 93.1606C234.696 92.6612 233.22 90.8906 232.698 91.163C232.176 91.4354 232.97 92.8882 233.152 93.1606C233.638 93.8973 234.357 94.4491 235.195 94.7269ZM276.713 73.1619C273.74 85.6242 271.56 96.2024 271.197 98.3135C270.955 99.2318 270.91 100.191 271.061 101.128C272.264 103.693 287.814 108.755 289.789 107.757C291.763 106.758 296.894 95.2036 302.864 83.2861C306.52 83.4029 310.181 83.1367 313.782 82.4916C317.575 81.7957 321.266 80.6289 324.769 79.0185C332.442 75.4773 340.841 60.3137 341.976 52.6865C342.827 44.4055 341.074 36.0656 336.959 28.8288C317.914 -4.19971 262.049 13.5744 266.589 50.2576C267.885 58.6512 271.379 66.5533 276.713 73.1619ZM290.56 100.198C290.56 100.561 290.152 100.515 288.29 100.198C284.482 99.7192 280.796 98.5417 277.417 96.7245C275.828 95.8619 275.397 95.6803 275.556 95.2944C275.715 94.9085 276.055 95.0447 278.507 95.7257C278.734 95.7257 285.771 97.9957 287.791 98.6994C290.401 99.8798 290.56 99.8798 290.56 100.198ZM290.152 63.2647C292.575 63.3902 294.991 62.8903 297.166 61.8119C299.186 62.7909 301.373 63.384 303.613 63.5598C299.799 70.6649 292.059 85.1475 289.562 92.8655L279.937 90.2096C282.207 84.6254 287.223 71.5502 290.106 63.2647H290.152ZM289.357 61.3806C287.662 61.1247 286.098 60.3199 284.906 59.09C283.712 57.8596 282.956 56.2723 282.752 54.5706C282.116 50.0306 285.022 44.9458 289.403 46.1489C292.149 46.898 292.49 49.0772 292.013 51.8239C291.605 53.8215 290.129 58.8382 289.312 61.2898L289.357 61.3806ZM295.532 55.9326C295.774 54.4472 296.332 53.0307 297.166 51.7785C297.563 51.0958 298.144 50.5382 298.842 50.1693C299.54 49.7999 300.327 49.634 301.116 49.6901C302.796 50.1895 303.522 53.3675 302.137 55.3651C300.805 57.1311 299.15 58.626 297.257 59.7689C296.604 59.3867 296.086 58.8142 295.77 58.1283C295.454 57.4428 295.354 56.6763 295.486 55.9326H295.532ZM274.67 27.0809C284.84 14.8456 303.976 9.98779 317.8 15.0272C325.31 17.6051 331.626 22.8248 335.574 29.7141C339.488 36.6004 341.162 44.5335 340.364 52.4141C339.32 59.4738 331.284 74.138 324.224 77.3841C317.77 80.3285 310.727 81.7569 303.636 81.5609C302.864 81.5609 302.047 81.5609 301.751 82.1057C300.412 84.8297 297.961 90.0961 295.554 95.0447C293.891 94.2423 292.17 93.5741 290.401 93.0471C293.035 85.5107 301.343 70.7103 305.293 63.5371C308.715 63.8301 312.155 63.2362 315.281 61.8119C316.124 61.3674 316.824 60.6913 317.299 59.8626C317.772 59.0342 318.001 58.0878 317.956 57.1344C317.91 56.1815 317.592 55.2611 317.044 54.481C316.493 53.7014 315.733 53.0943 314.849 52.7319C311.331 51.0067 308.176 55.1381 306.337 58.6112C305.837 59.5192 305.27 60.5861 304.634 61.7892C302.798 61.6687 300.987 61.2943 299.254 60.6769C300.98 59.4635 302.512 57.9942 303.794 56.3185C304.513 55.233 304.877 53.9515 304.837 52.6506C304.795 51.3492 304.352 50.0929 303.567 49.0545C302.951 48.3384 302.094 47.8716 301.158 47.742C300.221 47.6124 299.27 47.8291 298.483 48.3508C296.892 49.3277 295.619 50.7425 294.813 52.4256C294.009 54.1087 293.706 55.9887 293.943 57.8394C294.189 58.884 294.752 59.8275 295.554 60.5407C294.066 61.1573 292.467 61.4664 290.855 61.4487C291.763 58.7701 293.239 53.935 293.625 51.9601C293.867 50.8342 293.92 49.6761 293.784 48.5324C293.608 47.5509 293.152 46.6409 292.471 45.912C291.792 45.1827 290.914 44.6664 289.947 44.4237C284.431 42.8574 280.368 48.9637 281.163 54.6614C281.386 56.7031 282.263 58.6182 283.662 60.123C285.059 61.6278 286.906 62.6419 288.926 63.015C286.02 71.187 281.48 84.3757 279.21 90.0053L274.216 88.7114C277.417 72.6398 277.803 73.0257 277.349 72.8214C272.19 66.2454 268.891 58.4065 267.792 50.1214C267.257 46.0131 267.594 41.8384 268.778 37.8689C269.962 33.8991 271.971 30.2234 274.67 27.0809ZM306.178 61.9254C307.767 59.0425 310.945 52.7319 314.032 54.2755C314.649 54.5244 315.188 54.9371 315.587 55.4691C315.988 56.0011 316.234 56.6322 316.302 57.2946C316.257 61.2898 310.037 61.9935 306.087 61.9254H306.178ZM393.074 71.9361C395.809 70.3273 399.04 69.7779 402.154 70.3925C405.574 70.4536 408.841 71.8209 411.285 74.2143C413.731 76.6077 415.163 79.8452 415.295 83.2634C413.239 82.0702 410.834 81.6211 408.487 81.9922C402.789 82.4916 395.344 85.5788 396.342 91.0722C397.16 95.6122 403.152 94.9993 407.692 93.7735C412.232 92.5477 415.84 90.3231 416.772 85.942C422.286 89.9599 423.582 96.9969 423.809 103.875C423.809 103.971 423.846 104.064 423.917 104.132C423.983 104.2 424.078 104.238 424.173 104.238C424.267 104.238 424.362 104.2 424.428 104.132C424.499 104.064 424.536 103.971 424.536 103.875C424.693 96.1797 423.31 88.6433 417.02 84.2622C417.086 82.2914 416.748 80.3281 416.034 78.4906C415.32 76.6536 414.234 74.9808 412.856 73.5734C411.474 72.1664 409.82 71.0545 407.997 70.3046C406.173 69.5551 404.216 69.1832 402.244 69.2121C399.093 68.7519 395.881 69.4106 393.164 71.0735C392.324 71.4821 392.71 72.095 393.074 71.9361ZM413.776 88.212C411.211 91.5716 403.947 93.3195 400.587 92.752C399.339 92.5477 398.317 92.0256 398.045 90.7317C397.228 86.1917 405.059 83.7174 409.735 83.5585C411.638 83.4124 413.537 83.8994 415.138 84.9432C414.965 86.1302 414.498 87.2545 413.776 88.212ZM382.677 45.3998C385.106 42.4034 383.471 37.1824 376.684 37.1597C374.051 37.1597 372.78 39.8383 372.961 42.4034C373.37 48.5097 380.248 48.3281 382.677 45.3998ZM374.55 42.2899C374.55 40.7917 375.254 38.8395 376.82 38.8622C380.475 38.8622 382.155 40.5647 382.155 42.4488C382.064 46.7391 374.255 48.9637 374.55 42.2899ZM373.62 299.64C353.666 291.672 344.405 330.239 328.106 363.381C328.002 364.773 328.049 366.176 328.242 367.558C328.242 371.031 328.628 394.026 330.649 396.637C331.193 397.681 333.486 396.637 334.553 395.979C343.614 390.37 352.153 383.957 360.068 376.82C360.136 376.742 360.185 376.653 360.217 376.555C360.247 376.457 360.259 376.355 360.249 376.252C364.472 370.237 380.293 338.911 384.13 323.202C386.808 312.079 384.152 303.794 373.62 299.64ZM380.747 328.469C370.065 327.099 359.737 323.727 350.307 318.526C355.619 308.47 362.179 297.007 373.007 301.32C385.06 306.109 384.811 316.029 380.747 328.401V328.469ZM342.975 387.489C342.277 386.904 341.516 386.401 340.705 385.991C337.636 384.432 334.093 384.09 330.785 385.037C330.558 382.336 329.264 364.766 329.264 364.607C346.266 370.827 341.022 368.126 357.866 376.502C356.095 378.182 349.444 382.835 342.975 387.443V387.489ZM354.688 321.795C356.901 323.004 359.175 324.103 361.498 325.086C356.294 333.258 351.697 341.803 347.742 350.647C343.928 358.614 344.064 358.569 340.183 367.263C337.913 366.537 335.643 365.856 333.373 365.175C335.824 360.294 353.258 324.61 354.688 321.75V321.795ZM341.068 367.49C348.445 354.256 355.959 337.798 362.406 325.382C364.676 326.335 366.946 327.107 369.216 327.788C368.013 330.058 364.494 336.096 363.564 337.844C362.633 339.592 353.303 357.979 352.645 359.386C351.601 361.656 348.74 367.989 347.855 370.01C345.54 368.988 343.315 368.216 340.977 367.445L341.068 367.49ZM348.672 370.305C350.057 367.785 355.755 357.207 356.458 355.845C357.525 353.734 369.42 329.422 370.078 328.015C372.167 328.605 374.369 329.104 375.776 329.377C371.622 340.727 359.659 362.587 355.346 373.369C351.419 371.531 350.534 371.077 348.582 370.259L348.672 370.305ZM350.057 319.184L354.12 321.454C345.931 335.4 338.799 349.937 332.782 364.948L329.377 363.903C342.566 335.801 343.179 332.123 349.966 319.139L350.057 319.184ZM359.409 375.344L355.982 373.71C359.682 366.446 371.259 347.809 376.548 329.536C377.819 329.763 379.068 329.967 380.271 330.126C374.437 345.691 367.434 360.792 359.319 375.299L359.409 375.344ZM288.29 390.077C289.195 389.327 289.841 388.313 290.139 387.177C290.435 386.04 290.369 384.839 289.947 383.743C289.754 382.162 289.03 380.692 287.891 379.578C286.753 378.464 285.267 377.769 283.682 377.613C282.097 377.454 280.504 377.839 279.169 378.706C277.831 379.572 276.829 380.87 276.327 382.381C273.422 380.497 270.267 378.5 267.247 376.593C269.517 373.574 276.191 374.913 276.872 377.387C276.888 377.484 276.94 377.571 277.018 377.627C277.097 377.684 277.196 377.709 277.292 377.694C277.389 377.679 277.474 377.626 277.533 377.548C277.589 377.469 277.614 377.37 277.599 377.274C277.258 373.324 269.041 371.009 265.727 375.662C262.798 373.869 259.166 371.69 256.124 370.032C258.735 367.762 264.569 369.034 265.204 371.394C265.235 371.476 265.292 371.542 265.367 371.586C265.441 371.627 265.53 371.642 265.613 371.625C265.698 371.608 265.774 371.563 265.828 371.495C265.882 371.429 265.91 371.343 265.908 371.258C265.613 367.581 258.009 365.107 254.558 369.147C253.113 368.337 251.592 367.668 250.018 367.15C249.73 367.03 249.415 366.996 249.108 367.053C248.802 367.11 248.518 367.254 248.293 367.467C242.55 374.618 223.187 393.186 214.243 395.343C214.018 395.377 213.806 395.47 213.628 395.612C213.45 395.754 213.314 395.939 213.231 396.151C213.148 396.363 213.121 396.594 213.155 396.817C213.191 397.042 213.284 397.253 213.426 397.431C215.389 399.425 217.638 401.116 220.1 402.448C217.83 404.718 216.059 406.761 214.742 408.237C214.061 408.963 213.698 422.855 214.288 425.922C214.375 426.219 214.57 426.479 214.833 426.648C217.693 428.601 254.535 444.536 258.304 442.402C260.823 440.97 290.901 409.667 291.378 408.713C292.104 407.215 291.854 397.227 291.809 393.232C291.627 392.029 289.38 390.735 288.29 390.077ZM215.65 420.065V415.001C225.071 419.541 246.636 428.803 254.808 431.391C256.896 432.072 257.078 431.981 258.167 431.391C264.41 427.395 286.452 402.562 290.492 398.771V403.56C278.234 415.843 257.418 437.363 257.032 436.137C254.785 436.001 217.603 420.973 215.65 420.065ZM287.723 382.427C288.538 383.802 288.977 385.368 288.994 386.967C288.987 387.476 288.862 387.975 288.629 388.429C288.396 388.881 288.063 389.275 287.655 389.577C285.748 388.306 282.139 385.945 277.871 383.176C280.209 378.568 285.407 378.5 287.632 382.427H287.723ZM215.083 396.955C224.753 394.094 243.117 376.388 249.292 368.716C250.777 369.13 252.211 369.717 253.559 370.464C251.289 374.686 253.718 379.317 254.581 378.658C255.058 378.295 254.195 378.159 254.059 375.934C254 374.31 254.369 372.698 255.126 371.258C258.258 372.893 261.936 375.026 265.046 376.82C263.139 381.065 265.431 385.264 266.226 384.651C267.02 384.038 265.863 384.175 265.727 381.95C265.672 380.491 265.95 379.039 266.544 377.705C269.744 379.589 273.013 381.541 276.01 383.38C275.548 384.511 275.365 385.737 275.474 386.953C275.586 388.17 275.987 389.343 276.645 390.372C276.675 390.41 276.711 390.443 276.755 390.468C276.797 390.491 276.844 390.508 276.891 390.514C276.94 390.519 276.989 390.517 277.037 390.504C277.084 390.491 277.128 390.47 277.167 390.44C277.205 390.41 277.239 390.374 277.262 390.33C277.287 390.288 277.304 390.241 277.309 390.192C277.315 390.145 277.313 390.096 277.3 390.048C277.287 390.001 277.266 389.956 277.235 389.918C276.827 389.015 276.626 388.034 276.645 387.044C276.664 386.055 276.904 385.083 277.349 384.197C282.638 387.421 286.906 390.122 288.222 391.007C287.973 391.234 264.296 412.3 256.238 418.567C250.949 417.18 223.187 403.401 215.083 396.955ZM215.945 409.599C226.229 414.139 249.587 424.671 254.967 425.695C255.897 425.877 256.261 425.943 258.031 424.535C265.59 418.476 290.174 392.755 290.401 393.028C290.413 393.096 290.413 393.164 290.401 393.232V397.772C285.339 401.835 257.191 431.391 256.737 429.983C254.467 429.983 217.58 414.935 215.696 414.093C215.65 413.14 215.855 410.597 215.945 409.599ZM257.282 440.879C255.012 442.175 220.44 428.122 215.809 425.262C215.635 423.813 215.552 422.36 215.56 420.903C225.502 425.806 254.422 438.019 257.078 437.908C260.96 437.701 288.404 406.806 290.356 404.65C290.379 405.81 290.263 406.967 290.016 408.1C289.63 408.849 258.78 440.041 257.282 440.879ZM69.2118 312.919C69.3707 315.348 69.4842 317.459 69.4842 319.434C69.4842 319.735 69.6039 320.024 69.8164 320.236C70.0294 320.45 70.3179 320.569 70.6192 320.569C70.9201 320.569 71.209 320.45 71.4215 320.236C71.6345 320.024 71.7542 319.735 71.7542 319.434C71.7542 317.323 71.6407 315.235 71.4818 312.76C71.4607 312.46 71.3208 312.18 71.093 311.981C70.8652 311.782 70.5684 311.684 70.2671 311.705C69.9662 311.726 69.686 311.866 69.4879 312.093C69.2898 312.322 69.1907 312.618 69.2118 312.919ZM415.093 267.406C414.944 267.415 414.8 267.453 414.663 267.518C414.531 267.584 414.412 267.674 414.317 267.788C414.218 267.899 414.143 268.03 414.098 268.17C414.052 268.312 414.036 268.462 414.048 268.609C414.185 270.697 414.321 272.945 414.321 275.124C414.321 275.425 414.44 275.714 414.655 275.926C414.866 276.139 415.154 276.259 415.456 276.259C415.757 276.259 416.046 276.139 416.256 275.926C416.471 275.714 416.591 275.425 416.591 275.124C416.591 272.854 416.455 270.584 416.294 268.45C416.285 268.303 416.248 268.157 416.182 268.024C416.116 267.89 416.025 267.771 415.914 267.674C415.802 267.576 415.67 267.502 415.53 267.457C415.39 267.412 415.241 267.393 415.093 267.406ZM63.3325 307.267C63.6334 307.267 63.9223 307.148 64.1348 306.934C64.3478 306.722 64.4675 306.433 64.4675 306.132C64.4675 305.831 64.3478 305.542 64.1348 305.33C63.9223 305.116 63.6334 304.997 63.3325 304.997C60.5858 304.997 58.2931 305.201 56.0231 305.156C55.7197 305.156 55.4288 305.275 55.2125 305.487C54.9958 305.699 54.8712 305.988 54.8654 306.291C54.8654 306.592 54.9851 306.881 55.1976 307.093C55.4106 307.307 55.6991 307.426 56.0004 307.426C58.3385 307.471 60.9036 307.38 63.3325 307.267ZM408.056 260.687C405.332 260.687 403.039 260.845 400.746 260.868C400.445 260.868 400.156 260.987 399.944 261.201C399.73 261.413 399.611 261.702 399.611 262.003C399.611 262.304 399.73 262.593 399.944 262.805C400.156 263.019 400.445 263.138 400.746 263.138C403.198 263.138 405.74 263.138 408.192 262.957C408.493 262.938 408.775 262.801 408.975 262.576C409.174 262.351 409.276 262.054 409.259 261.753C409.24 261.453 409.103 261.171 408.879 260.971C408.652 260.77 408.356 260.668 408.056 260.687ZM68.5989 293.238C68.7351 295.327 68.8713 297.574 68.8713 299.753C68.8771 300.052 68.9984 300.338 69.2101 300.55C69.4214 300.762 69.7071 300.882 70.0063 300.888C70.3072 300.888 70.5961 300.769 70.8086 300.555C71.0216 300.343 71.1413 300.054 71.1413 299.753C71.1413 297.483 71.0051 295.213 70.8689 293.079C70.8478 292.779 70.7079 292.499 70.4801 292.3C70.2523 292.102 69.9555 292.003 69.6542 292.024C69.3533 292.045 69.0731 292.185 68.875 292.412C68.6769 292.641 68.5778 292.938 68.5989 293.238ZM415.976 255.443C415.976 253.173 415.84 250.903 415.683 248.769C415.662 248.468 415.522 248.188 415.295 247.99C415.068 247.791 414.771 247.693 414.469 247.714C414.168 247.734 413.887 247.874 413.689 248.101C413.491 248.33 413.392 248.627 413.413 248.928C413.549 251.016 413.685 253.264 413.685 255.443C413.685 255.744 413.805 256.033 414.019 256.245C414.23 256.459 414.519 256.578 414.82 256.578C415.121 256.578 415.414 256.459 415.629 256.247C415.848 256.035 415.972 255.745 415.976 255.443ZM85.3515 306.972C85.5005 306.966 85.647 306.93 85.7824 306.868C85.9177 306.806 86.0399 306.716 86.141 306.607C86.2421 306.497 86.321 306.371 86.3722 306.229C86.4237 306.089 86.4473 305.941 86.4411 305.791C86.418 305.495 86.2838 305.217 86.0647 305.014C85.8459 304.814 85.5587 304.702 85.2607 304.702C82.514 304.815 80.2213 304.906 77.9286 304.861C77.6273 304.861 77.3388 304.98 77.1258 305.194C76.9133 305.406 76.7936 305.695 76.7936 305.996C76.7936 306.297 76.9133 306.586 77.1258 306.798C77.3388 307.011 77.6273 307.131 77.9286 307.131C80.3575 307.176 82.8999 307.085 85.3515 306.972ZM430.075 260.391C427.805 260.505 425.283 260.573 422.765 260.573C422.617 260.567 422.468 260.592 422.324 260.645C422.183 260.698 422.059 260.779 421.948 260.881C421.841 260.985 421.754 261.11 421.696 261.248C421.638 261.387 421.605 261.536 421.605 261.685C421.605 261.988 421.725 262.279 421.94 262.497C422.15 262.713 422.439 262.837 422.74 262.843C425.328 262.843 427.417 262.843 430.165 262.661C430.314 262.656 430.458 262.62 430.595 262.557C430.731 262.495 430.855 262.406 430.954 262.297C431.057 262.187 431.135 262.06 431.185 261.918C431.238 261.778 431.259 261.63 431.255 261.481C431.226 261.186 431.09 260.912 430.871 260.711C430.657 260.509 430.372 260.395 430.075 260.391ZM33.1867 239.712C33.4818 239.939 97.496 230.45 100.243 228.77C100.395 228.659 100.516 228.511 100.596 228.341C100.675 228.171 100.71 227.982 100.697 227.794C100.697 224.866 96.8604 197.376 95.0217 190.521C94.7947 189.681 94.5677 188.841 94.0456 188.546C90.5725 186.458 29.3732 197.989 25.7185 200.35C25.6195 200.409 25.5338 200.488 25.4674 200.581C25.4008 200.675 25.355 200.781 25.3325 200.895C24.5607 203.641 31.2118 238.35 33.1867 239.712ZM26.7173 201.44C31.0757 199.465 86.6227 189.295 92.9787 190.09C94.5223 194.062 98.6537 223.163 98.9261 227.431C95.7708 228.362 34.0494 238.963 33.8224 239.008C33.5954 239.053 33.5727 239.326 33.096 237.896C31.0984 231.903 26.6038 206.57 26.7173 201.44Z" fill="#212121"/>
<path d="M105.236 230.791C105.36 230.562 105.415 230.301 105.395 230.042C105.395 226.432 100.219 186.367 98.3808 183.166C98.2367 182.93 98.0329 182.736 97.7894 182.605C97.5463 182.473 97.2726 182.408 96.9961 182.417C89.3916 181.486 25.2414 194.017 21.0192 196.945C20.429 197.354 20.5198 198.375 20.5879 199.465C20.9511 205.435 27.3979 244.706 29.6679 244.479C29.9176 244.479 29.8268 244.297 29.2366 245.5C25.6954 252.787 18.9762 276.123 19.1124 280.821C19.1124 282.796 19.5664 285.361 21.5186 285.225C35.5245 283.5 104.192 272.604 123.941 268.541C124.713 268.382 125.212 267.678 125.189 266.52C124.956 264.591 124.372 262.722 123.464 261.004C120.695 255.806 109.209 235.217 105.236 230.791ZM29.8041 243.775C28.0335 241.505 21.5186 202.393 22.018 198.057C27.012 195.469 90.2996 183.234 96.928 184.233C98.744 189.227 103.443 225.297 103.738 229.633C95.7022 232.402 40.0645 241.392 29.8041 243.775ZM30.8029 244.456C32.7097 243.979 97.6544 233.106 103.602 231.54C106.848 234.559 121.512 260.641 122.465 262.866C109.436 265.136 32.1422 278.052 20.7695 279.777C20.9284 272.899 27.9881 248.86 30.8029 244.456Z" fill="#212121"/>
<path d="M39.3391 267.996C41.314 267.701 83.2182 262.662 98.3591 258.553C98.4524 258.529 98.5325 258.468 98.5816 258.387C98.6303 258.303 98.6443 258.203 98.6204 258.11C98.596 258.018 98.5362 257.936 98.4528 257.889C98.3698 257.84 98.2708 257.825 98.1775 257.849C95.2038 258.462 58.9292 263.297 39.2937 267.292C39.2394 267.283 39.1836 267.285 39.1307 267.3C39.0777 267.315 39.0287 267.342 38.9877 267.379C38.9464 267.415 38.9143 267.461 38.8933 267.512C38.8724 267.563 38.8634 267.618 38.867 267.673C38.8706 267.727 38.8865 267.782 38.9139 267.83C38.9411 267.877 38.979 267.919 39.0244 267.949C39.0699 267.981 39.122 268.002 39.1765 268.009C39.2309 268.017 39.2865 268.013 39.3391 267.996ZM69.9614 110.049C69.1133 111.965 68.4005 113.937 67.8276 115.951C67.7938 116.275 67.8829 116.599 68.0773 116.859C70.37 120.31 93.8645 146.801 99.9935 150.524C100.833 151.046 101.832 151.409 102.445 150.66C106.897 145.12 112.708 140.827 119.311 138.198C124.686 136.296 130.321 135.232 136.018 135.042C140.558 134.634 141.353 134.18 143.101 131.206C145.163 127.292 147.898 123.773 151.182 120.809C155.369 117.148 160.016 114.05 165.006 111.593C165.231 111.466 165.407 111.267 165.505 111.028C165.604 110.79 165.62 110.525 165.551 110.276C164.784 108.324 163.769 106.478 162.532 104.783C163.349 104.511 164.257 104.261 164.257 103.444C164.257 101.174 144.463 72.5264 138.969 67.1238C138.402 66.5563 137.585 65.8072 136.836 65.8526C125.486 66.4882 114.431 77.2026 108.029 86.555C100.697 86.2826 95.9529 85.6243 87.5993 89.1428C81.7019 91.646 76.3851 95.3403 71.9817 99.9934C71.3007 100.697 66.6699 105.6 66.6018 105.986C66.5337 106.372 66.6699 106.372 69.9614 110.049ZM160.761 109.414C151.296 111.026 145.257 118.902 140.808 127.46C138.833 131.274 139.015 131.456 136.926 131.41C133.275 131.203 129.611 131.34 125.985 131.819C123.325 132.216 120.71 132.87 118.176 133.771C112.41 135.814 105.805 142.352 102.286 147.209C102.212 147.309 102.116 147.392 102.007 147.453C101.898 147.514 101.778 147.55 101.653 147.561C101.529 147.572 101.404 147.556 101.286 147.515C101.168 147.474 101.06 147.409 100.97 147.323C93.5921 139.718 80.5396 126.371 73.9793 118.698C73.6615 118.358 74.2063 117.858 74.5241 118.221C78.769 122.761 89.7331 133.635 101.492 145.461C105.464 140.399 111.593 134.27 117.654 132.137C120.959 130.958 124.398 130.195 127.892 129.867C131.164 129.618 134.449 129.618 137.721 129.867C139.06 128.323 145.689 110.799 160.716 108.846C160.76 108.879 160.796 108.92 160.822 108.969C160.848 109.017 160.862 109.07 160.864 109.125C160.866 109.179 160.856 109.234 160.834 109.283C160.813 109.334 160.78 109.378 160.739 109.414H160.761ZM136.813 67.6913C141.353 70.8693 159.831 98.2228 162.237 103.012C158.062 104.335 154.031 106.077 150.206 108.211C146.584 110.027 143.412 112.627 140.923 115.824C138.433 119.021 136.688 122.732 135.814 126.689C127.665 113.432 116.292 98.8357 108.733 88.0986C109.187 87.8035 121.944 68.5766 136.813 67.6913ZM88.0987 90.3913C96.3842 87.0544 100.97 87.8262 107.825 88.1213C114.635 99.7437 126.87 116.133 134.929 126.87C127.491 125.11 119.665 126.187 112.978 129.889C108.96 132.159 104.057 137.607 101.038 140.99C96.6793 137.494 71.5277 110.708 67.4871 106.168C73.7069 99.1308 79.45 93.8417 88.0987 90.3005V90.3913ZM46.5577 148.117C45.9968 147.724 45.3336 147.501 44.6484 147.477C43.9633 147.453 43.286 147.628 42.6987 147.981C42.2711 148.172 41.8848 148.445 41.5629 148.785C41.2404 149.125 40.9885 149.525 40.8209 149.963C40.6533 150.4 40.5735 150.866 40.5861 151.334C40.5986 151.803 40.7032 152.264 40.8941 152.692C41.0847 153.119 41.3582 153.505 41.6979 153.827C42.0379 154.149 42.4379 154.402 42.8754 154.569C43.3129 154.737 43.7788 154.817 44.2473 154.804C44.7153 154.792 45.1767 154.687 45.6043 154.496C46.2878 154.347 46.9098 153.993 47.3873 153.482C47.8652 152.971 48.1764 152.327 48.2796 151.635C48.3832 150.944 48.2738 150.237 47.9664 149.609C47.6589 148.98 47.1677 148.46 46.5577 148.117ZM45.0595 152.657C43.4705 153.157 42.5171 152.657 42.1312 151.886C41.4048 150.274 42.3128 147.8 44.6736 148.526C46.3307 149.139 47.67 151.931 45.0595 152.771V152.657ZM161.987 44.2422C162.646 45.5815 165.71 45.0821 167.049 44.6508C167.753 44.4238 168.207 44.1741 168.275 43.4931C168.479 41.7906 168.706 27.0356 167.935 25.6055C167.855 25.4555 167.733 25.3326 167.583 25.2518C167.434 25.171 167.264 25.136 167.095 25.1515C164.673 25.1447 162.263 25.4968 159.944 26.1957C159.014 26.7632 161.17 42.744 161.987 44.2422ZM160.421 26.7405C162.518 26.4405 164.639 26.3418 166.754 26.4454C166.89 28.1252 166.527 42.6759 166.505 42.9029C165.545 43.2467 164.521 43.3709 163.508 43.2661C163.349 42.744 163.077 41.3366 162.736 39.566C161.736 35.3353 160.963 31.0539 160.421 26.7405ZM44.3558 128.959C44.5737 129.07 44.8148 129.128 45.0595 129.128C45.3043 129.128 45.5453 129.07 45.7632 128.959C46.6403 128.418 47.3357 127.627 47.7608 126.689C47.8186 126.538 47.8363 126.376 47.8124 126.217C47.7885 126.058 47.7241 125.907 47.6246 125.781C46.535 124.487 34.6402 110.708 33.1874 111.57C31.4036 112.725 29.7113 114.015 28.1253 115.429C28.0614 115.487 28.0101 115.557 27.975 115.635C27.9398 115.713 27.9214 115.798 27.921 115.883C27.8756 117.064 41.087 127.642 44.3558 128.959ZM33.4598 112.161C35.1169 113.364 40.7011 120.264 45.8767 126.371C45.6543 126.721 45.3786 127.035 45.0595 127.301C39.618 123.819 34.4225 119.966 29.51 115.77C30.7415 114.477 32.0613 113.271 33.4598 112.161ZM69.1215 62.0844C69.6209 53.2768 74.7511 49.1908 80.1083 48.1466C78.5874 53.7308 78.8371 60.9948 84.3532 61.9255C86.9864 62.3568 88.2803 60.9948 90.1871 59.4058C98.3364 52.5958 91.7534 45.7858 82.5599 46.2625C85.9876 36.8647 93.9099 29.2148 104.42 28.9651C104.516 28.9651 104.609 28.9269 104.677 28.8588C104.745 28.7906 104.783 28.6982 104.783 28.6019C104.783 28.5057 104.745 28.4132 104.677 28.3451C104.609 28.277 104.516 28.2387 104.42 28.2387C93.07 28.0117 84.1489 36.1837 80.6304 46.3987C74.5695 47.4429 68.554 51.9829 68.3951 61.9482C68.386 61.9961 68.3864 62.0448 68.3968 62.0922C68.4067 62.1397 68.4261 62.1847 68.4533 62.2251C68.481 62.2652 68.5156 62.2994 68.5565 62.3258C68.5969 62.3523 68.6428 62.3708 68.6902 62.3795C68.7381 62.3886 68.7868 62.3878 68.8343 62.3778C68.8817 62.3679 68.9267 62.3485 68.9672 62.3213C69.0072 62.2937 69.0414 62.259 69.0679 62.2181C69.0943 62.1777 69.1124 62.1323 69.1215 62.0844ZM82.0378 47.8742C85.4201 47.6472 90.4595 48.6914 91.8442 51.7559C92.6387 53.5038 91.8442 55.6603 89.0294 58.0211C88.265 58.7867 87.3934 59.4368 86.4416 59.9506C83.0366 61.4034 79.2684 57.2039 82.0378 47.8742ZM88.53 368.92C86.3368 368.332 84.0486 368.19 81.7993 368.501C79.5499 368.811 77.3855 369.567 75.4333 370.727C73.4811 371.884 71.7803 373.422 70.4315 375.25C69.0823 377.075 68.112 379.152 67.5779 381.36C66.5696 385.945 67.4236 390.742 69.9523 394.696C72.4811 398.652 76.4771 401.44 81.0617 402.448C85.6463 403.456 90.4438 402.603 94.3982 400.074C98.3533 397.545 101.142 393.55 102.15 388.964C102.581 386.753 102.57 384.479 102.117 382.272C101.665 380.064 100.78 377.97 99.5139 376.107C98.2477 374.244 96.6252 372.649 94.7403 371.416C92.855 370.182 90.7443 369.335 88.53 368.92ZM95.5443 387.421C94.6334 391.053 92.453 394.24 89.3972 396.404C86.3413 398.57 82.6115 399.571 78.8825 399.225C75.4594 397.888 72.6173 395.385 70.857 392.159C69.0968 388.932 68.5301 385.189 69.2577 381.587C70.1071 377.866 72.2673 374.575 75.3434 372.316C78.4194 370.057 82.2058 368.981 86.0103 369.283C89.4673 370.712 92.3098 373.313 94.037 376.631C95.7643 379.949 96.2662 383.77 95.4535 387.421H95.5443Z" fill="#212121"/>
<path d="M118.767 375.39C116.79 374.709 114.672 374.544 112.615 374.913C111.762 372.957 110.713 371.094 109.482 369.352C110.958 368.012 114.998 364.29 114.022 362.542C110.548 358.386 106.424 354.822 101.809 351.986C99.8827 350.906 97.7613 350.219 95.5672 349.966C94.1144 350.17 90.6636 355.823 89.8918 357.094C89.3924 357.094 87.6222 356.526 87.486 356.458C87.486 354.824 87.0093 348.922 85.5338 348.241C83.8838 347.634 82.1705 347.213 80.4263 346.992C78.8146 346.742 64.3093 349.398 63.2424 351.351C62.5387 352.667 64.1731 357.639 64.6498 359.023C63.4257 359.697 62.2498 360.455 61.1313 361.293C58.8613 362.905 59.4742 362.837 59.0656 362.655C58.5716 362.419 58.0425 362.266 57.4993 362.201C55.6858 361.138 53.5598 360.737 51.4838 361.066C49.3954 361.747 44.4695 372.961 43.675 375.844C43.415 376.57 43.3448 377.352 43.4707 378.114C44.0155 379.612 47.6475 380.815 49.1684 381.292C48.7483 384.213 48.7483 387.179 49.1684 390.1C47.1708 390.644 43.0163 391.87 43.2433 393.913C43.4703 395.956 48.7821 409.44 50.984 410.507C52.1904 411.182 53.5244 411.596 54.9004 411.725C56.2764 411.854 57.664 411.695 58.9748 411.256C59.7128 410.887 60.426 410.471 61.1086 410.007C62.0166 410.688 62.97 411.301 63.9461 411.892C63.2424 413.639 61.6761 417.544 62.1755 419.314C62.4252 420.247 63.1743 420.54 64.2185 420.928C67.1014 421.972 82.6282 425.695 84.989 425.287C85.8743 425.15 86.351 424.218 86.6234 423.334C87.1278 421.316 87.4245 419.257 87.5083 417.181C88.6743 417.065 89.8336 416.892 90.9818 416.661C91.6831 417.891 92.5799 419.005 93.6377 419.95C94.7954 420.767 95.7715 420.359 97.0881 419.521C97.7237 420.338 98.6771 421.473 99.6986 421.584C102.264 421.882 112.865 411.892 113.954 409.849C114.862 408.146 111.548 405.104 110.073 403.765C111.669 401.362 112.922 398.75 113.795 396.002C115.433 396.247 117.09 396.34 118.744 396.274C119.493 396.274 120.356 396.001 120.673 395.298C122.058 392.143 121.65 380.18 120.673 377.138C120.537 376.253 119.516 375.662 118.767 375.39ZM119.311 377.478C120.083 380.429 120.333 391.575 119.198 394.458C117.235 394.651 115.255 394.56 113.318 394.186C113.112 394.15 112.899 394.193 112.723 394.306C112.546 394.42 112.419 394.596 112.365 394.798C111.461 397.867 110.058 400.766 108.211 403.379C108.079 403.553 108.02 403.769 108.046 403.986C108.071 404.202 108.179 404.399 108.347 404.537C109.94 405.798 111.293 407.336 112.343 409.077C111.208 410.938 102.332 419.067 99.8802 419.748C99.517 419.748 98.5182 418.386 98.2685 418.023C97.4299 416.76 96.6721 415.451 95.9985 414.093C95.9003 413.895 95.7315 413.743 95.526 413.664C95.32 413.582 95.0918 413.582 94.8858 413.664C88.3028 416.136 85.8062 414.684 85.8062 416.318C85.8091 418.766 85.4104 421.196 84.6254 423.516C79.2909 422.934 74.0381 421.762 68.9628 420.02C69.208 417.593 69.884 415.233 70.9604 413.049C71.6414 411.528 68.9174 411.96 63.8326 406.784C63.6688 406.633 63.4542 406.548 63.2313 406.548C63.008 406.548 62.7934 406.633 62.6295 406.784C60.3595 408.645 57.4085 410.461 56.8183 410.166C55.6606 409.599 50.3261 397.5 50.0083 395.048C51.6229 393.923 53.4558 393.149 55.3882 392.778C55.5942 392.719 55.7721 392.589 55.8893 392.409C56.0057 392.23 56.054 392.014 56.0238 391.802C55.4675 388.588 55.4675 385.3 56.0238 382.086C56.0585 381.888 56.0168 381.685 55.9074 381.517C55.7977 381.349 55.6284 381.228 55.4336 381.178C53.722 380.73 52.0749 380.066 50.5304 379.204C50.031 378.84 50.0764 378.863 50.1218 378.477C51.5911 373.179 53.9474 368.166 57.0907 363.654C58.3165 363.314 61.6307 365.742 62.7657 366.605C62.8842 366.721 63.0431 366.785 63.2082 366.785C63.3737 366.785 63.5326 366.721 63.651 366.605C64.694 365.523 65.817 364.522 67.0106 363.609C70.461 360.998 71.3917 361.339 71.0966 360.431C70.0528 358.153 69.4668 355.692 69.3714 353.189C69.7231 352.896 70.1226 352.667 70.5518 352.508C72.6712 351.67 74.8483 350.987 77.0667 350.465C79.7556 349.716 82.5193 349.266 85.3068 349.126C85.7835 349.33 86.2148 351.396 86.3283 352.032C87.1682 356.572 86.6007 357.502 87.259 357.57C93.7285 358.206 95.0451 359.999 95.4991 359.205C96.7579 357.003 98.2252 354.928 99.8802 353.008C100.357 352.531 100.334 352.304 101.764 353.121C106.037 355.913 109.863 359.334 113.114 363.268C113.455 363.858 110.504 366.991 108.347 368.83C107.598 369.488 108.665 369.783 110.617 373.506C112.57 377.229 112.115 378.273 113.159 378.046C115.173 377.563 117.244 377.372 119.311 377.478ZM434.363 187.797C429.604 185.854 424.618 184.533 419.521 183.87C415.798 183.28 411.415 182.69 407.715 182.213C411.279 177.174 421.832 164.416 423.603 161.306C424.102 160.466 423.153 159.286 422.447 158.582C418.497 154.36 410.87 152.771 405.014 151.863C401.654 151.318 387.625 149.593 385.242 150.728C382.382 152.09 361.225 183.87 360.59 188.705C360.59 189.522 360.862 189.84 361.657 190.135C364.994 191.361 380.044 193.268 383.403 194.062C378.863 202.007 358.683 228.861 356.708 232.652C356.231 233.606 356.526 234.173 357.094 234.355C359.137 235.166 361.239 235.819 363.382 236.307C364.199 236.557 365.992 235.444 368.603 233.855C380.316 226.818 430.574 193.631 434.433 189.341C434.54 189.24 434.623 189.118 434.68 188.982C434.734 188.846 434.759 188.7 434.751 188.553C434.747 188.407 434.705 188.263 434.639 188.133C434.573 188.003 434.478 187.888 434.363 187.797ZM385.582 215.037C366.287 227.772 359.773 231.495 359.546 231.654C362.655 226.909 381.973 200.441 385.287 194.108C385.344 193.985 385.374 193.852 385.374 193.716C385.374 193.582 385.342 193.448 385.284 193.326C385.225 193.203 385.14 193.098 385.034 193.012C384.93 192.927 384.807 192.867 384.674 192.837C382.404 192.019 365.879 190.249 361.974 188.864C362.474 184.642 383.085 152.726 385.582 151.454C388.079 150.183 412.3 153.066 416.842 156.312C414.457 160.966 401.291 177.264 399.157 181.055C398.726 181.827 398.59 182.576 399.429 182.78C400.269 182.985 421.605 185.482 426.261 187.003C420.586 191.747 391.938 210.77 385.582 214.946V215.037ZM239.962 76.2493C239.962 76.4536 240.098 76.7033 240.439 78.0199C240.527 78.3055 240.724 78.5453 240.987 78.6894C241.248 78.833 241.557 78.8697 241.846 78.7917C242.135 78.7075 242.379 78.5119 242.523 78.2477C242.669 77.984 242.703 77.6732 242.618 77.3843C242.391 76.499 242.187 75.7499 242.05 75.3867C241.918 75.1374 241.698 74.9463 241.432 74.851C241.167 74.7552 240.876 74.7618 240.614 74.8696C240.354 74.9773 240.141 75.1783 240.023 75.4334C239.901 75.6884 239.879 75.9794 239.962 76.2493Z" fill="#212121"/>
</svg>
