<svg width="160" height="68" viewBox="0 0 160 68" fill="none" xmlns="http://www.w3.org/2000/svg">
<path d="M39.3364 16.5822V15.2112C39.3364 14.9872 39.2098 14.7824 39.0095 14.6822C38.6568 14.5059 38.2337 14.7175 38.1631 15.1054L37.9179 16.4543C37.8465 16.8468 38.1103 17.2219 38.5038 17.2875C38.9397 17.3601 39.3364 17.024 39.3364 16.5822Z" fill="#212121"/>
<path d="M47.3357 16.7585V15.1255C47.3357 14.9495 47.4186 14.7838 47.5593 14.6782C47.911 14.4145 48.4154 14.641 48.4519 15.079L48.5875 16.7064C48.6104 16.981 48.4513 17.2383 48.1955 17.3406C47.7837 17.5053 47.3357 17.202 47.3357 16.7585Z" fill="#212121"/>
<path d="M55.0776 20.2651C55.0776 20.2651 55.2419 19.1651 55.3357 18.4587C55.5889 16.5501 56.4893 15.3724 55.8518 13.5557C55.5827 12.7891 54.9539 12.5506 54.8195 11.7494C54.7017 11.0466 55.0553 10.6552 55.0776 9.94298C55.1061 9.03086 54.7003 8.52525 54.8195 7.6205C54.932 6.76685 55.4554 6.40592 55.5937 5.55608C55.7071 4.85981 55.6601 4.452 55.5937 3.7497C55.5062 2.82472 56.0066 1.44411 55.0776 1.42722C54.759 1.42143 54.6022 1.57431 54.3034 1.68528C52.3906 2.39577 51.8924 4.01397 49.9165 4.52386C48.3553 4.92677 47.3993 4.4736 45.7877 4.52386C44.1729 4.57423 43.2739 4.82307 41.6588 4.78191C39.5217 4.72746 37.1467 4.71319 36.2397 4.00775C35.3327 3.30232 34.8242 2.90681 33.9172 2.20138C33.0102 1.49595 32.5739 0.628347 31.8528 1.16917C31.4923 1.43958 31.4859 1.7761 31.3367 2.20138C31.1338 2.77983 31.0929 3.13687 31.0786 3.7497C31.0621 4.4621 31.2125 4.85439 31.3367 5.55608C31.4987 6.47096 31.8772 6.94977 31.8528 7.87856C31.8309 8.70929 31.3762 9.1129 31.3367 9.94298C31.2878 10.9695 32.1985 11.5557 31.8528 12.5235C31.5652 13.3288 30.6221 13.2779 30.3045 14.0718C30.0051 14.8204 30.1874 15.3386 30.3045 16.1363C30.411 16.8621 30.6721 17.2242 30.8206 17.9426C31.0459 19.0327 31.1538 19.6707 31.0786 20.7812C30.9945 22.0249 30.3788 22.6335 30.3045 23.8779C30.1937 25.7328 31.5328 26.675 31.3367 28.5228C31.1509 30.273 30.3009 31.0694 29.5303 32.6517C29.333 33.0569 29.112 33.2439 29.0142 33.6839C28.9268 34.0774 29.0973 34.3216 29.0142 34.7161C28.8645 35.4272 28.478 35.7333 27.982 36.2644C27.5416 36.736 27.0512 36.7607 26.6917 37.2966C26.1276 38.1377 26.6287 38.8833 26.4337 39.8772C26.2311 40.9096 25.8656 41.4259 25.6595 42.4577C25.5004 43.2544 25.5022 43.7159 25.4015 44.5221C25.3007 45.3283 25.1292 45.7742 25.1434 46.5866C25.1614 47.6141 25.4253 48.1664 25.6595 49.1671C25.9214 50.2859 25.9198 50.978 26.4337 52.0057C26.7587 52.6557 27.0432 52.9629 27.4659 53.554C27.759 53.9639 27.991 54.1482 28.2401 54.5862C28.5083 55.058 28.652 55.3439 28.7562 55.8765C28.8633 56.4248 28.901 56.7675 28.7562 57.3071C28.6869 57.5652 28.5154 57.6742 28.4981 57.9409C28.4774 58.2589 28.6699 58.4083 28.7562 58.7151C28.8953 59.2097 28.7335 59.5749 29.0142 60.0053C29.1699 60.2441 29.3133 60.3366 29.5303 60.5214C29.9776 60.9025 30.2347 61.2505 30.8206 61.2956C31.2349 61.3275 31.5668 61.339 31.8528 61.0375C32.0079 60.8741 31.9176 60.6374 32.1109 60.5214C32.3841 60.3575 32.5673 60.755 32.885 60.7795C33.2993 60.8114 33.5667 60.7445 33.9172 60.5214C34.1577 60.3684 34.2151 60.1887 34.4333 60.0053C34.7116 59.7716 34.9935 59.7829 35.2075 59.4892C35.3952 59.2317 35.4655 58.7151 35.4655 58.7151" stroke="#212121"/>
<path d="M46.0452 15.8781C45.9118 16.2585 45.8452 16.5603 46.0452 16.9103C46.2255 17.2258 46.4772 17.3042 46.8194 17.4264C47.2939 17.5959 47.6208 17.5486 48.1096 17.4264C48.5469 17.3171 48.8126 17.2181 49.1419 16.9103C49.4073 16.6622 49.5624 16.4867 49.658 16.1361C49.7375 15.8445 49.7051 15.6606 49.658 15.362C49.6083 15.0472 49.6082 14.829 49.3999 14.5878C49.064 14.1989 48.6054 14.4527 48.1096 14.5879C47.7591 14.6835 47.6314 14.635 47.3355 14.8459C46.81 15.2204 46.2589 15.2692 46.0452 15.8781Z" stroke="#212121" stroke-width="0.5"/>
<path d="M40.6265 15.8784C40.7762 16.2527 40.8265 16.5607 40.6265 16.9107C40.4463 17.2261 40.1984 17.316 39.8524 17.4268C39.4684 17.5496 39.2168 17.4989 38.8202 17.4268C38.5066 17.3698 38.3227 17.3268 38.046 17.1687C37.6748 16.9566 37.5402 16.7274 37.2718 16.3945C37.0437 16.1117 36.8665 15.9665 36.7557 15.6204C36.6329 15.2365 36.4879 14.8895 36.7557 14.5882C36.9054 14.4198 37.0565 14.3964 37.2718 14.3301C37.6571 14.2116 37.9188 14.2116 38.3041 14.3301C38.5194 14.3964 38.6186 14.4874 38.8202 14.5882C39.2233 14.7897 39.4879 14.8392 39.8524 15.1043C40.1982 15.3558 40.4677 15.4815 40.6265 15.8784Z" stroke="#212121" stroke-width="0.5"/>
<path d="M24.6271 41.4254C24.6271 41.4254 21.1688 41.2165 18.95 41.1673C16.8342 41.1204 13.5308 41.1673 13.5308 41.1673C13.5308 41.1673 11.6878 40.865 10.1762 41.1673C8.66451 41.4697 7.81699 41.6392 6.30535 41.9415C4.79371 42.2438 4.232 42.9738 3.20871 44.0059C2.34262 44.8795 1.82733 45.4321 1.40234 46.5864C0.948377 47.8195 0.902964 48.6495 1.14428 49.9411C1.36792 51.1381 1.69818 51.8099 2.43455 52.7797C3.34869 53.9836 4.32188 54.1952 5.53119 55.1022C5.9343 55.4045 6.09163 55.6994 6.5634 55.8764C8.18674 56.4854 8.35457 53.8073 9.14394 52.2636C9.63809 51.2972 9.41076 50.4527 10.1762 49.6831C11.0079 48.8467 11.8657 48.9176 13.0147 48.6509C14.5885 48.2856 15.5289 48.4447 17.1436 48.3928C18.8559 48.3378 19.8345 48.1505 21.5305 48.3928C22.7645 48.5691 24.6271 49.167 24.6271 49.167" stroke="#212121"/>
<path d="M43.7231 22.8668C42.6554 22.6714 41.1426 23.899 41.1426 23.899C41.1426 23.899 42.6838 23.1832 43.7231 23.3618C44.5279 23.5001 45.5295 24.157 45.5295 24.157C45.5295 24.157 44.5759 23.0228 43.7231 22.8668Z" fill="#212121"/>
<path d="M55.077 20.7812C55.077 20.7812 56.7973 23.1037 56.1092 25.1682C55.421 27.2326 54.0447 28.9742 54.0447 31.6195C54.0447 34.2647 55.5062 35.4952 56.1092 38.0708C56.7362 40.7491 57.2067 42.2884 57.1414 45.0383C57.1028 46.6628 57.1324 47.6233 56.6253 49.1671C56.1609 50.5807 55.5944 51.2519 54.8189 52.5218C53.5794 54.5517 52.1514 55.2423 51.2062 57.4248C50.5844 58.8604 49.8585 59.7633 50.1739 61.2956C50.3557 62.1785 51.1275 62.4621 51.2062 63.36C51.2597 63.9707 51.2531 64.3766 50.9481 64.9084C50.627 65.4681 50.241 65.6643 49.6578 65.9406C48.8331 66.3312 48.2477 66.1804 47.3354 66.1986C46.2225 66.2209 45.3917 66.6025 44.4968 65.9406C43.9125 65.5084 43.4646 64.3923 43.4646 64.3923C43.4646 64.3923 43.4258 61.8754 43.4646 60.2634C43.5106 58.3466 43.1894 57.2022 43.7226 55.3604C44.0612 54.1907 44.6583 53.6867 45.0129 52.5218C45.3989 51.2538 45.529 49.1671 45.529 49.1671" stroke="#212121"/>
<path d="M52.7553 47.8767L51.9812 51.2314L50.4328 54.8441L49.1426 57.6827L49.6587 59.7472" stroke="#212121"/>
<path d="M49.1418 66.1987L48.8837 64.1343M46.0452 66.1987L45.7871 64.1343" stroke="#212121"/>
<path d="M40.368 66.7146L40.1234 64.3442M37.7875 66.1985L37.5429 63.8281" stroke="#212121"/>
<path d="M33.7416 60.5213L33.4971 58.151M31.0787 61.2955L30.5627 58.4569" stroke="#212121"/>
<path d="M43.2069 65.4244C43.2069 65.4244 42.8295 66.1459 42.4327 66.4566C42.0054 66.7912 41.6715 67.0938 41.1425 66.9727C40.9228 66.9224 40.6264 66.7146 40.6264 66.7146C40.6264 66.7146 39.4972 66.9122 38.82 66.7146C38.3873 66.5885 38.1868 66.408 37.7878 66.1985C37.0684 65.8209 36.3861 65.8708 35.9814 65.1663C35.8227 64.89 35.8045 64.7003 35.7234 64.3922C35.4013 63.1693 35.6475 62.4163 35.7234 61.154C35.7808 60.1979 35.9829 59.6728 35.9814 58.7149C35.9789 57.0744 35.6105 56.1763 35.2072 54.5861C34.7373 52.7326 34.1786 51.7812 33.6589 49.9411C33.3201 48.7415 32.8848 46.8445 32.8848 46.8445" stroke="#212121"/>
<path d="M42.9492 19.8744C42.5374 19.93 41.917 20.1324 41.917 20.1324C41.917 20.1324 42.6137 21.7582 43.4653 21.6808C44.175 21.6162 44.7556 20.3905 44.7556 20.3905C44.7556 20.3905 44.4886 20.0128 44.2395 19.8744C43.799 19.6297 43.4485 19.8069 42.9492 19.8744Z" fill="#212121" fill-opacity="0.3" stroke="#212121" stroke-width="0.5"/>
<circle cx="42.9495" cy="21.1648" r="0.258053" fill="#212121"/>
<circle cx="43.9817" cy="21.1648" r="0.258053" fill="#212121"/>
<g opacity="0.4">
<path d="M46.3623 20.7578C47.3633 20.6844 48.4947 20.9242 49.4874 21.0308C50.2246 21.1099 50.9583 21.3345 51.6937 21.3809C52.135 21.4087 52.5905 21.4859 53.0185 21.5924C53.7439 21.7728 54.6099 21.7333 55.2322 22.1598C55.627 22.4304 56.0685 22.5754 56.5042 22.7591C56.8127 22.8891 57.0722 23.1349 57.4107 23.1528" stroke="#212121" stroke-width="0.5" stroke-linecap="round"/>
<path d="M40.3203 20.7578C39.3193 20.6844 38.1879 20.9242 37.1952 21.0308C36.458 21.1099 35.7243 21.3345 34.9889 21.3809C34.5476 21.4087 34.0922 21.4859 33.6641 21.5924C32.9387 21.7728 32.0727 21.7333 31.4504 22.1598C31.0556 22.4304 30.6142 22.5754 30.1784 22.7591C29.8699 22.8891 29.6104 23.1349 29.2719 23.1528" stroke="#212121" stroke-width="0.5" stroke-linecap="round"/>
<path d="M46.3037 21.2429C46.3801 21.5356 47.1386 21.5981 47.3641 21.6385C48.0542 21.7621 48.7679 21.864 49.45 22.0223C50.1803 22.1918 50.9219 22.3514 51.6516 22.5348C53.7707 23.0676 56.045 23.4518 57.3873 25.3797" stroke="#212121" stroke-width="0.5" stroke-linecap="round"/>
<path d="M40.3789 21.2429C40.3026 21.5356 39.5441 21.5981 39.3185 21.6385C38.6284 21.7621 37.9148 21.864 37.2326 22.0223C36.5023 22.1918 35.7608 22.3514 35.031 22.5348C32.9119 23.0676 30.6376 23.4518 29.2953 25.3797" stroke="#212121" stroke-width="0.5" stroke-linecap="round"/>
<path d="M46.3037 22.0544C46.5965 22.237 46.9451 22.3321 47.2668 22.448C48.4044 22.8581 49.5265 23.3034 50.6083 23.846C51.0712 24.0782 51.4638 24.3935 51.9739 24.5045" stroke="#212121" stroke-width="0.5" stroke-linecap="round"/>
<path d="M40.3789 22.0544C40.0862 22.237 39.7375 22.3321 39.4158 22.448C38.2782 22.8581 37.1561 23.3034 36.0743 23.846C35.6114 24.0782 35.2189 24.3935 34.7087 24.5045" stroke="#212121" stroke-width="0.5" stroke-linecap="round"/>
</g>
<path d="M32.8848 23.8777C32.8848 24.4231 33.3611 24.9388 33.6379 25.3712C33.999 25.9355 34.6744 26.1871 35.2548 26.4598C35.8814 26.7541 36.4764 27.1171 37.1186 27.3774C37.6886 27.6085 37.736 27.5123 38.3039 27.7485C38.574 27.8608 39.3292 27.9266 39.5942 28.0229C40.2494 28.2612 41.4691 28.0229 42.1747 28.0229" stroke="#212121" stroke-width="0.5" stroke-linecap="square"/>
<path d="M54.06 24.3938C53.7171 24.8464 53.2778 25.2407 52.8638 25.6152C52.4403 25.9985 51.9465 26.262 51.5158 26.6246C50.952 27.0994 50.3002 27.2225 49.6204 27.441C49.0449 27.626 48.4621 27.8682 47.8516 27.8682" stroke="#212121" stroke-width="0.5" stroke-linecap="square"/>
<path d="M38.8303 47.915C38.8303 48.5485 38.6997 49.1536 38.8449 49.7827C38.8933 49.9925 38.8956 50.2043 38.9616 50.4101C39.0436 50.6657 39.1966 50.8545 39.2899 51.0996C39.4095 51.4135 39.641 51.6691 39.7751 51.9787C39.9044 52.2771 39.9557 52.6026 40.0925 52.8979C40.2341 53.204 40.3136 53.5301 40.3697 53.861C40.434 54.2402 40.5974 54.5977 40.6615 54.9662C40.7869 55.6871 41.0745 56.3866 41.1941 57.1039C41.2593 57.4953 41.2296 57.9679 41.34 58.3405C41.4573 58.7363 41.5607 59.0855 41.5917 59.5041C41.6184 59.8642 41.6548 60.2325 41.7194 60.5875C41.7779 60.9092 41.73 61.259 41.7996 61.5724C41.87 61.8891 41.9095 62.2219 41.9784 62.5318C42.0466 62.8389 41.9671 63.182 42.0623 63.4912C42.1853 63.8909 42.3103 64.3187 42.3103 64.7387C42.3103 65.1781 42.5476 65.4211 42.8356 65.709" stroke="#212121" stroke-linecap="square"/>
<path d="M87.865 32.0034C88.2479 32.1128 88.6217 32.2952 88.9864 32.5505C89.351 32.7875 89.661 33.0975 89.9163 33.4804C90.1715 33.845 90.363 34.2826 90.4906 34.7932C90.6365 35.3037 90.6821 35.869 90.6274 36.4889C90.5909 36.9812 90.4451 37.4917 90.1898 38.0205C89.9527 38.5493 89.5972 39.0325 89.1231 39.4701C88.6673 39.9077 88.0838 40.2724 87.3727 40.5641C86.6616 40.8558 85.8228 41.0017 84.8565 41.0017C83.9083 41.0017 82.9875 40.8832 82.0941 40.6462C81.2189 40.4091 80.4257 40.0353 79.7146 39.5248C79.0217 38.996 78.4565 38.3305 78.0189 37.5282C77.5995 36.7259 77.3716 35.7596 77.3351 34.6291C77.2986 33.4439 77.5083 32.4228 77.9642 31.5658C78.4382 30.7089 79.0308 30.0069 79.7419 29.4599C80.453 28.8946 81.2371 28.4661 82.0941 28.1744C82.9511 27.8827 83.7533 27.7185 84.5009 27.6821C85.0844 27.6456 85.6952 27.7003 86.3334 27.8462C86.9898 27.9738 87.6006 28.2109 88.1659 28.5573C88.7493 28.9037 89.2416 29.3596 89.6428 29.9248C90.0621 30.4901 90.3174 31.1829 90.4086 32.0034H88.4667H87.865ZM83.2701 28.0103C82.3402 28.1926 81.5744 28.6393 80.9727 29.3505C80.3892 30.0433 79.9699 30.8547 79.7146 31.7846H88.4394C88.3482 31.1829 88.1476 30.6268 87.8376 30.1163C87.5459 29.6057 87.1721 29.1772 86.7163 28.8308C86.2604 28.4661 85.7408 28.2109 85.1573 28.065C84.5738 27.9009 83.9448 27.8827 83.2701 28.0103ZM90.3812 36.5436C90.4724 35.8325 90.4268 35.1943 90.2445 34.6291C90.0621 34.0638 89.7978 33.5898 89.4513 33.2069C89.1231 32.824 88.722 32.5322 88.2479 32.3316C87.7738 32.1128 87.2724 32.0034 86.7436 32.0034H79.6599C79.4776 32.7328 79.4046 33.4804 79.4411 34.2462C79.4776 35.012 79.6143 35.7231 79.8513 36.3795C80.3619 37.82 81.1095 38.8684 82.0941 39.5248C83.0969 40.163 84.3003 40.4547 85.7043 40.4C86.2878 40.3635 86.8439 40.245 87.3727 40.0445C87.9197 39.8439 88.4029 39.5704 88.8223 39.2239C89.2416 38.8775 89.5881 38.4764 89.8616 38.0205C90.1351 37.5647 90.3083 37.0724 90.3812 36.5436Z" fill="#212121"/>
<path d="M115.287 39.0325C115.342 39.5248 115.433 39.8895 115.56 40.1265C115.688 40.3453 115.852 40.5185 116.053 40.6462V40.8376H112.689V40.6462C112.889 40.5185 113.026 40.3362 113.099 40.0992C113.172 39.8439 113.19 39.4883 113.154 39.0325C113.135 38.8866 113.108 38.6496 113.072 38.3214C113.053 37.9749 113.017 37.5829 112.962 37.1453C112.926 36.7077 112.889 36.2427 112.853 35.7504C112.816 35.2581 112.771 34.7841 112.716 34.3282C112.68 33.8541 112.643 33.4257 112.607 33.0428C112.57 32.6416 112.543 32.3225 112.525 32.0855C112.47 31.575 112.37 31.0644 112.224 30.5539C112.096 30.0251 111.905 29.5693 111.649 29.1864C111.412 28.8034 111.102 28.5117 110.719 28.3111C110.355 28.1106 109.908 28.065 109.379 28.1744C108.759 28.302 108.258 28.6393 107.875 29.1864C107.492 29.7334 107.2 30.3807 107 31.1282C106.799 31.8758 106.662 32.669 106.59 33.5077C106.535 34.3465 106.507 35.1214 106.507 35.8325V39.0325C106.507 39.5066 106.553 39.8621 106.644 40.0992C106.754 40.3362 106.909 40.5185 107.109 40.6462V40.8376H103.745V40.6462C103.946 40.5185 104.092 40.3362 104.183 40.0992C104.292 39.8621 104.347 39.5066 104.347 39.0325V32.0855C104.347 31.5567 104.283 31.0371 104.155 30.5265C104.046 30.016 103.864 29.5693 103.608 29.1864C103.353 28.8034 103.025 28.5117 102.624 28.3111C102.241 28.1106 101.785 28.065 101.256 28.1744C100.49 28.3203 99.8887 28.7396 99.4511 29.4325C99.0317 30.1254 98.7126 30.9277 98.4938 31.8393C98.2933 32.7328 98.1656 33.6353 98.1109 34.547C98.0745 35.4587 98.0562 36.2063 98.0562 36.7898V39.0325C98.0562 39.5066 98.1109 39.8621 98.2203 40.0992C98.3297 40.3362 98.4847 40.5185 98.6853 40.6462V40.8376H95.2938V40.6462C95.4944 40.5185 95.6494 40.3362 95.7588 40.0992C95.8682 39.8621 95.9229 39.5066 95.9229 39.0325V29.7881C95.9229 29.314 95.8864 28.9858 95.8135 28.8034C95.7406 28.6211 95.5673 28.5117 95.2938 28.4752V28.2838L97.8648 27.6821H98.0562V33.7539C98.1292 33.0245 98.2477 32.3043 98.4118 31.5932C98.5759 30.8638 98.822 30.2166 99.1502 29.6513C99.4784 29.0678 99.9069 28.5938 100.436 28.2291C100.964 27.8644 101.639 27.6821 102.46 27.6821C102.988 27.6821 103.49 27.7915 103.964 28.0103C104.438 28.2291 104.857 28.5482 105.222 28.9676C105.587 29.3687 105.878 29.8701 106.097 30.4718C106.334 31.0735 106.462 31.7482 106.48 32.4957L106.507 32.7966C106.599 32.1402 106.726 31.502 106.89 30.8821C107.073 30.2621 107.319 29.7151 107.629 29.2411C107.957 28.767 108.358 28.3932 108.832 28.1197C109.325 27.828 109.917 27.6821 110.61 27.6821C111.704 27.6821 112.607 28.0832 113.318 28.8855C114.029 29.6878 114.466 30.8912 114.631 32.4957C114.703 33.1522 114.776 33.8177 114.849 34.4923C114.922 35.167 114.986 35.796 115.041 36.3795C115.096 36.963 115.141 37.4917 115.178 37.9658C115.232 38.4217 115.269 38.7772 115.287 39.0325Z" fill="#212121"/>
<path d="M129.114 40.5094C129.899 40.2906 130.537 39.9259 131.029 39.4154C131.54 38.8866 131.913 38.2849 132.15 37.6103C132.387 36.9174 132.497 36.1607 132.479 35.3402C132.479 34.5197 132.36 33.6992 132.123 32.8787C131.886 32.0581 131.549 31.3106 131.111 30.6359C130.692 29.9613 130.19 29.4052 129.607 28.9676C129.042 28.5299 128.403 28.2382 127.692 28.0923C126.999 27.9282 126.261 27.9556 125.477 28.1744C124.693 28.3932 124.046 28.767 123.535 29.2958C123.043 29.8063 122.678 30.408 122.441 31.1009C122.204 31.7755 122.085 32.5231 122.085 33.3436C122.104 34.1641 122.231 34.9846 122.468 35.8051C122.705 36.6257 123.034 37.3823 123.453 38.0752C123.891 38.7499 124.392 39.306 124.957 39.7436C125.541 40.1812 126.179 40.4821 126.872 40.6462C127.583 40.792 128.33 40.7464 129.114 40.5094ZM127.583 27.6821C128.495 27.6821 129.361 27.828 130.181 28.1197C131.02 28.3932 131.749 28.7943 132.369 29.3231C133.007 29.8336 133.509 30.4627 133.873 31.2103C134.238 31.9579 134.42 32.8057 134.42 33.7539C134.42 34.8479 134.202 35.8416 133.764 36.7351C133.345 37.6285 132.789 38.3943 132.096 39.0325C131.403 39.6524 130.61 40.1356 129.716 40.4821C128.823 40.8285 127.92 41.0017 127.009 41.0017C126.079 41.0017 125.203 40.865 124.383 40.5915C123.562 40.318 122.833 39.9259 122.195 39.4154C121.575 38.8866 121.083 38.2484 120.718 37.5009C120.353 36.7351 120.171 35.8781 120.171 34.9299C120.171 33.7994 120.381 32.7875 120.8 31.894C121.238 31.0006 121.803 30.2439 122.496 29.624C123.207 28.9858 124 28.5026 124.875 28.1744C125.769 27.8462 126.671 27.6821 127.583 27.6821Z" fill="#212121"/>
<path d="M151.81 39.0325C151.865 39.5248 151.956 39.8895 152.084 40.1265C152.212 40.3453 152.376 40.5185 152.576 40.6462V40.8376H149.185V40.6462C149.404 40.5185 149.54 40.3362 149.595 40.0992C149.668 39.8439 149.686 39.4883 149.65 39.0325C149.631 38.8866 149.604 38.6496 149.568 38.3214C149.549 37.9749 149.522 37.5829 149.486 37.1453C149.449 36.7077 149.404 36.2427 149.349 35.7504C149.312 35.2581 149.267 34.7841 149.212 34.3282C149.176 33.8541 149.139 33.4257 149.103 33.0428C149.066 32.6416 149.039 32.3225 149.021 32.0855C148.966 31.575 148.857 31.0644 148.692 30.5539C148.547 30.0251 148.328 29.5693 148.036 29.1864C147.763 28.8034 147.407 28.5117 146.969 28.3111C146.55 28.1106 146.049 28.065 145.465 28.1744C144.955 28.2656 144.508 28.4935 144.125 28.8581C143.76 29.2228 143.441 29.6604 143.168 30.171C142.894 30.6815 142.666 31.2467 142.484 31.8667C142.32 32.4684 142.183 33.0701 142.074 33.6718C141.982 34.2735 141.919 34.8479 141.882 35.3949C141.846 35.9419 141.827 36.4069 141.827 36.7898V39.0325C141.827 39.5066 141.873 39.8621 141.964 40.0992C142.074 40.3362 142.238 40.5185 142.457 40.6462V40.8376H139.065V40.6462C139.266 40.5185 139.412 40.3362 139.503 40.0992C139.612 39.8621 139.667 39.5066 139.667 39.0325V29.7881C139.667 29.314 139.63 28.9858 139.557 28.8034C139.484 28.6211 139.32 28.5117 139.065 28.4752V28.2838L141.636 27.6821H141.827V34.465C141.919 33.6992 142.055 32.9151 142.238 32.1128C142.42 31.3106 142.684 30.5812 143.031 29.9248C143.396 29.2684 143.87 28.7305 144.453 28.3111C145.037 27.8918 145.775 27.6821 146.669 27.6821C147.234 27.6821 147.763 27.7824 148.255 27.9829C148.765 28.1653 149.221 28.457 149.622 28.8581C150.023 29.2593 150.361 29.7607 150.634 30.3624C150.908 30.9641 151.081 31.6752 151.154 32.4957C151.227 33.1522 151.291 33.8177 151.345 34.4923C151.418 35.167 151.482 35.796 151.537 36.3795C151.592 36.963 151.646 37.4917 151.701 37.9658C151.756 38.4217 151.792 38.7772 151.81 39.0325Z" fill="#212121"/>
<path d="M158.449 38.0205C158.868 38.0205 159.214 38.1664 159.488 38.4581C159.78 38.7316 159.926 39.0781 159.926 39.4974C159.926 39.9168 159.78 40.2724 159.488 40.5641C159.214 40.8558 158.868 41.0017 158.449 41.0017C158.029 41.0017 157.674 40.8558 157.382 40.5641C157.09 40.2724 156.944 39.9168 156.944 39.4974C156.944 39.0781 157.09 38.7316 157.382 38.4581C157.674 38.1664 158.029 38.0205 158.449 38.0205Z" fill="#212121"/>
</svg>
